<svg version="1.1" xmlns="http://www.w3.org/2000/svg" viewBox="0 0 925.4984301868589 403.2810272820401" width="1850.9968603737177" height="806.5620545640802">
  <!-- svg-source:excalidraw -->
  
  <defs>
    <style class="style-fonts">
      @font-face {
        font-family: "Virgil";
        src: url("https://excalidraw.com/Virgil.woff2");
      }
      @font-face {
        font-family: "Cascadia";
        src: url("https://excalidraw.com/Cascadia.woff2");
      }
    </style>
    
  </defs>
  <rect x="0" y="0" width="925.4984301868589" height="403.2810272820401" fill="#ffffff"></rect><g stroke-opacity="0.4" fill-opacity="0.4" stroke-linecap="round" transform="translate(354.8838429930702 10.000000000000028) rotate(0 121.10413165970812 90.93953566076786)"><path d="M17.5 44.36 C17.5 44.36, 17.5 44.36, 17.5 44.36 M17.5 44.36 C17.5 44.36, 17.5 44.36, 17.5 44.36 M9.28 58.74 C17.21 51.23, 21.82 44.44, 40.03 24.71 M10.05 58.07 C22.16 45.27, 33.97 30.78, 39.83 23.7 M6.05 71.19 C21.24 53.19, 33.81 36.93, 48.18 23.31 M5.08 70.68 C17.26 59.2, 28.18 45.64, 47.76 21.14 M3.32 77.81 C18.65 62.57, 33.47 44.58, 56.34 20.79 M4.72 77.09 C24.37 54.01, 44.25 31.45, 55.99 19.8 M3.39 85.3 C28.84 57.64, 48.09 30.1, 62.26 17.31 M3.6 83.76 C18.63 69.11, 32.82 51.1, 63.42 16.44 M2.91 89.39 C24.29 67.08, 44 44.76, 71.91 11.57 M4.92 89.91 C27.66 60.87, 52.46 34.59, 70.78 13.54 M3.77 95.38 C22.12 75.3, 39.69 56.97, 79.45 10.11 M3.2 96.99 C23.64 74.57, 41.85 53.06, 78.58 9.74 M4.37 104.16 C31.77 70.63, 57.89 37.5, 85.34 7.98 M3.6 101.83 C35.29 66.84, 68.31 30.52, 87.12 7.53 M3.73 110.64 C32.78 72.4, 64.7 37.14, 94.35 8.4 M3.87 110.11 C30.16 75.4, 60.9 41.98, 92.46 5.91 M6.13 112.31 C26.38 87.65, 48.01 66.87, 98.87 4.78 M4.95 114.02 C38.94 76.24, 70.78 38.43, 99.66 5.59 M7.27 118.49 C44.93 76.92, 82.11 34.44, 106.43 4.46 M7.12 116.51 C44.92 73.73, 84.09 28.08, 104.23 5.71 M8.23 121.33 C37.86 91.43, 64.61 59.87, 108.93 4.49 M9.83 121.41 C30.96 95.76, 54.07 68.81, 111.33 4.74 M9.52 124.02 C48.28 84.13, 82.33 41.36, 116.1 4.58 M11.73 124.64 C51 80.33, 89.04 33.64, 117.11 2.42 M12.43 129.09 C45.15 88.83, 78.24 52.4, 120.88 3.95 M13.93 127.66 C56.25 78.54, 97.03 31.09, 122.09 3.73 M14.46 133.58 C50.05 93.51, 83.67 52.15, 128.71 1.16 M15.39 131.62 C49.4 93.13, 84.36 53.26, 130.33 -0.24 M18.66 137.45 C44.91 101.58, 75.72 71.99, 133.08 2.34 M18.19 134.87 C51.09 98.49, 85.56 59.07, 134.98 1.02 M19.01 139.86 C55.42 95.1, 92.61 53.39, 139.32 0.94 M20.85 138.31 C64.79 85.72, 108.83 34.03, 137.95 2.22 M23.81 142.37 C61.69 99.56, 100.37 56.51, 144.84 1.16 M21.62 141.63 C52.26 109.53, 80.84 76.58, 144.11 2.82 M26.35 143.81 C49.53 115.06, 76.77 85.75, 147.1 3.88 M25.18 145.24 C67.62 98.08, 108.46 49.43, 147.21 3.94 M30.33 145.11 C56.59 113.06, 89.19 75.68, 151 4.69 M29.89 146.22 C72.95 97.12, 116.21 46.91, 153.19 5.54 M32.59 148.73 C65.56 114.23, 96.99 76.26, 157.57 7.57 M32.51 148.72 C66.47 108.59, 102.57 68.45, 156.82 7.08 M33.72 153.5 C69.15 115.69, 100.66 78.25, 160.04 6.77 M34.76 151.93 C65.29 118.9, 94.67 85.08, 161.68 6.53 M38.84 156.25 C80.65 105.11, 121.32 59.43, 167.83 8.65 M38.04 154.74 C66.91 121.18, 94.26 89.43, 166.14 7.23 M42.31 156.93 C81.14 111.51, 124.63 63.95, 171.36 9.34 M41.99 155.98 C81.59 112.86, 119.99 66.33, 170.04 8.64 M44.42 160.27 C78.99 123.55, 112.01 86.38, 172.64 9.58 M45.27 159.03 C90.98 105.96, 137.62 53.78, 173.29 10.24 M46.76 161.85 C76.67 128.1, 105.78 93.45, 176.04 14.12 M46.72 161.09 C80.42 124.73, 112.69 85.29, 178.51 11.96 M49.59 165.02 C92.07 117.15, 133.82 68.79, 182.31 15.86 M50.77 163.03 C78.77 131.2, 106.59 99.76, 181.04 15.4 M53.94 165.01 C99.39 114.05, 143.81 63.16, 184.66 17.66 M55.41 166.66 C108.17 105.87, 159.12 45.78, 184.93 16.75 M59.57 168.55 C106.95 109.83, 157.41 52.06, 188.09 19.06 M60.12 167.38 C93.01 127.99, 126.49 89.38, 188.2 18.47 M61.06 168.25 C102.99 124.68, 144.34 77.91, 192.8 18.82 M63.92 169.61 C104.71 121.57, 146.75 74.56, 192.21 21.01 M67.84 167.97 C107.34 122.49, 149.14 75.39, 197.53 21.58 M67.28 169.22 C109.66 119.84, 150.77 72.84, 196.94 22.45 M70.9 170.7 C104.73 130.39, 143.74 88.55, 198.96 24.5 M70.81 170.52 C103.05 135.34, 133.2 100.96, 200.3 24.21 M76.16 170.94 C100.38 143.14, 130.64 109.36, 202.42 24.61 M74.57 173.65 C122.59 116.99, 170.36 62.75, 202.81 25.53 M77.85 175.06 C116.7 131.85, 154.66 88.74, 207.91 26.45 M79.35 174 C108.42 143.64, 135.29 113.24, 205.52 28.06 M85.23 177.2 C125.56 130.14, 168.12 78.73, 210.16 28.41 M83.36 175.23 C126.79 128.44, 168.58 79.98, 210.04 29.38 M87.25 175.86 C128.02 131.79, 168.15 86.66, 212.7 30.95 M86.81 176.84 C133.75 125.37, 179.81 71.07, 212.53 32.19 M90.67 178.55 C134.74 128.35, 176.05 78.59, 214.49 34.84 M92 177.99 C119.31 142.94, 150.53 108.98, 216.28 35.67 M97.34 177.65 C144.86 123.95, 194.55 69.44, 219.33 38.62 M96.5 178.3 C128.67 143.95, 159.58 107.83, 219.06 38 M101.66 179.81 C144.5 129.65, 188.97 79.74, 222.64 42 M102.55 178.41 C140.75 134.17, 179.38 89.68, 219.79 42.74 M107.96 178.32 C139.75 141.97, 173.24 102.74, 223.37 43.13 M106.4 179.36 C140.72 138.23, 174.82 98.78, 224.48 45.32 M112.44 180.69 C142.43 147.77, 167.45 115.18, 226.17 47.34 M112.17 179.25 C149.72 133.68, 189.52 89.01, 226.24 48.67 M115.97 178.34 C147.24 146.31, 177.65 113.66, 229.99 51.7 M116.6 179.98 C152.93 137.55, 189.8 95.39, 229.9 50.96 M120.1 180.41 C155.27 144.93, 186.38 104.51, 230.24 53.64 M120.98 180.18 C162.83 131.64, 206 83.64, 232 53.26 M126.44 180.45 C158.22 144.05, 189.38 105.88, 234.69 56.37 M126.5 180.85 C156.36 148.55, 184.47 115.81, 234.79 57.97 M132.02 179.01 C172.58 131.94, 214.17 84.27, 235.63 63.23 M131.5 181.1 C164.91 143.1, 198.36 105.16, 236.16 62.28 M136.04 183.01 C158.79 156.04, 182.25 129.15, 235.2 66.03 M136.21 182.59 C162.79 152.59, 187.94 122.35, 237 65.6 M143.82 179.09 C167.91 152.57, 192 121.84, 236.73 71.74 M142.57 179.9 C174.18 145.36, 203.82 109.48, 238.48 71.23 M147.66 180.35 C174.15 151.11, 198.26 123.46, 238.85 74.57 M149.13 178.31 C174.9 150.38, 200.37 121.3, 238.04 75.57 M156.76 176.82 C186.72 141.86, 220.29 104.24, 240.13 81.11 M156.77 177.41 C186.37 143.61, 217.48 108.07, 240.05 80.29 M164.59 174.7 C183.33 150.36, 207.15 127.4, 239.88 83.97 M162.15 175.34 C178.46 158.12, 195.87 139.18, 242.45 85.05 M170.36 173.19 C188.57 152.87, 204.93 135.45, 242.08 91.11 M169.03 174.7 C192.91 149.39, 214.21 123.13, 242.7 89.89 M174.97 173.84 C189.2 155.06, 206.55 138.12, 242.89 97.54 M176.15 172.99 C195.6 151.48, 216.67 126.95, 241.2 97.98 M181.15 175.5 C204.1 149.74, 224.02 120.81, 238.52 105.6 M181.37 174.58 C191.19 160.21, 203.23 146.41, 241.05 104.97 M189.89 169.32 C208.5 146.86, 230.73 123.93, 238.06 111.65 M191.99 166.77 C205.11 150.84, 220.63 133.93, 238.92 112.74 M204.3 161.03 C211.36 151.15, 219.27 139.15, 237.49 121.69 M202.56 161.2 C211.3 150.28, 217.97 142.13, 236.91 122.09 M20.57 140.96 C20.57 140.96, 20.57 140.96, 20.57 140.96 M20.57 140.96 C20.57 140.96, 20.57 140.96, 20.57 140.96 M52.27 163.09 C42.57 153.86, 31.89 147.89, 13.03 131.4 M52.77 162.18 C38.77 151.19, 26.46 139.91, 13.17 129.16 M60.8 167.15 C47.71 152.23, 32.27 142.71, 8.09 119.2 M61.34 166.34 C49.03 154.54, 33.89 142.55, 6.92 118.54 M73.68 170.72 C55.05 154.39, 39.65 144.38, 2.16 109.14 M72.38 170.27 C46.29 146.47, 18.42 121.99, 2.82 108.88 M80.46 174.42 C65.37 156.76, 45.55 139.89, 1.62 102.82 M81.6 172.97 C60.14 153.73, 36.58 134.59, 3.27 104.87 M92.13 175.84 C63.83 151.82, 36.1 127.65, 0.53 100 M92.88 176.5 C75.63 159.72, 55.48 143.75, 2.56 99.03 M100.68 176.94 C79.58 159.34, 59.74 142.36, 0.49 94.86 M99.86 176.46 C73.53 158.17, 50.51 136, 2.62 93.03 M105.87 176.48 C81.55 158.17, 59.75 137.25, 3.35 89.53 M104.5 177.43 C67.43 144.26, 30.1 111.06, 1.73 88.26 M111.23 178.84 C73.1 146.19, 34.75 111.2, 0.93 82.63 M111.16 176.92 C77.63 148.32, 45.15 119.59, 2.13 83.41 M119.21 179.89 C82.1 148.81, 48.14 117.24, 4.58 77.87 M117.61 178.22 C73.22 137.39, 28.37 98.79, 3.54 78.21 M122.6 177.62 C79.83 137.63, 35.88 100.94, 5.63 72.08 M124.37 178.21 C90.88 150.22, 55.91 121.17, 5.54 74.41 M132.6 179.44 C98.44 149.24, 63.12 118.79, 5.17 68.47 M130.81 179.6 C87.14 141.87, 44.78 104.49, 7.26 70.24 M137.7 176.86 C97.76 147.55, 60.21 114.85, 8.47 65.94 M135.86 178.73 C104.58 153.58, 76 128.29, 7.84 66.64 M140.13 176 C106.72 149.34, 75.58 117.06, 9.91 62.97 M142.45 177.14 C112.07 150.18, 79.55 122.11, 9.14 62.31 M147.63 177.6 C119.04 154.39, 90.18 129.84, 11.77 60.33 M147.24 176.68 C109.12 142.4, 72.21 110.38, 10.58 59.46 M151.14 173.7 C98.11 126.44, 44.11 84.03, 14.62 54.32 M152.22 175.15 C118.14 145.76, 87.13 118.46, 13.47 54.09 M156.17 174.18 C111.6 132.53, 66.96 96.24, 16.01 50.75 M155.98 174.01 C106.35 130.45, 55.66 85.2, 15.57 51.06 M162.14 173.46 C105.92 121.47, 50 72.69, 17.76 47.56 M161.07 172.08 C129.14 143.74, 96.05 116.04, 16.36 47.75 M165.8 173.06 C114.41 126.72, 61.65 80.64, 16.64 44.78 M165.27 171.18 C121.69 133.35, 78.21 94.33, 17.65 43.11 M172.56 172.26 C134.28 139.46, 99.58 109.52, 20.24 39.11 M170.96 169.88 C126.82 134.08, 84.45 96.41, 21.4 41.26 M175.9 170.65 C128.51 128.48, 79.58 85.5, 24.5 37.98 M176.3 169.19 C124.77 124.71, 72.58 80.09, 23.31 38.59 M180.01 166.66 C144.5 136.01, 108.91 104.19, 27.86 35.46 M180.12 167.38 C146.71 140.19, 115.38 110.94, 28.17 35.08 M185.23 164.7 C132.04 120.03, 82.05 77.14, 30.72 32.16 M183.12 165.94 C124.19 113.14, 64.26 61.49, 30.85 32.37 M188.93 164.55 C131.93 114.56, 75.32 65.56, 33.32 31.05 M187.87 164.49 C136.39 120.39, 84.25 74.2, 34.26 29.99 M191.38 162.81 C155.64 132.47, 119.73 101.96, 36.36 27.54 M190.56 161.4 C132.68 109.91, 72.52 58.22, 35.56 26.92 M193.71 160.97 C141.09 113.16, 85.82 66.2, 39.39 24.25 M194.88 159.37 C138.46 110.73, 82.73 61.9, 38.73 24.8 M198.6 158.66 C145.63 113.08, 96.95 67.18, 42.1 21.62 M198.49 157.82 C149.32 113.97, 99.76 71.63, 43.31 23.06 M200.03 156.37 C147.2 106.4, 91.64 60.32, 46 18.64 M202.25 154.77 C149.59 110.52, 98.47 67.03, 46.05 18.79 M205.39 152.26 C167.63 116.19, 126.11 83.02, 49.77 17.8 M205.59 153.48 C169.68 121.64, 133.57 90.12, 48.68 18.03 M207.72 149.65 C159.46 106.27, 109.96 64.02, 52.6 14.46 M208.95 151.34 C172.36 121.43, 137.39 90.88, 54.03 15.36 M211.82 149.7 C160.17 106.18, 107.17 59.42, 59.67 15.03 M213.12 149.5 C180.99 121.01, 148.92 94.04, 59.07 14.82 M216.21 147.85 C182.12 118.57, 150.25 88.1, 62.82 14.1 M215.39 146.68 C157.13 94.06, 98.22 42.9, 62.11 13.32 M220.13 142.67 C183.06 116.16, 148.99 84.23, 65.89 11.28 M218.29 143.68 C158.26 92.31, 100.44 41.55, 66.85 11.33 M220.46 140.25 C190.96 114.28, 160.43 86.61, 70.42 11.21 M221.22 139.64 C176.5 100.97, 132.98 62.94, 71.6 10.11 M222.85 134.93 C187.58 104.47, 148.38 74.69, 76.18 7.83 M222.03 137.62 C171.57 90.33, 119.38 46.83, 74.36 8.29 M226.11 134.29 C186.89 100.32, 153.38 67.55, 79.6 6.23 M225.83 134.49 C169.42 87.86, 116.92 39.75, 78.62 7.33 M227.66 129.08 C194.85 98.78, 158.38 70.64, 82.37 6.22 M227.4 131.2 C183.34 92.64, 138.26 55.66, 83.28 5.95 M229.6 126.37 C182.02 86.58, 139.52 46.77, 86.24 0.93 M230.93 127.1 C173.81 76.23, 115.41 25.99, 87.48 1.87 M233.09 122.82 C181.48 79.13, 133.02 34.64, 92.42 1.97 M232.38 124.29 C183.85 82.12, 134.03 38.02, 92 1.98 M237.22 119.39 C183.77 76.04, 130.34 31.34, 95.64 -1.03 M236.29 121.4 C194.66 86.16, 152.87 49.87, 97.16 0.97 M235.15 116.61 C203.51 88.94, 170.68 60.55, 101.84 -1.37 M235.79 115.85 C185.83 69.99, 134.44 25.56, 102.5 1.46 M236.22 111.1 C211.02 88.09, 183.93 64.57, 108 0.83 M236.72 111.55 C193.77 73.4, 151.32 36.35, 108.58 -0.87 M236.33 106.32 C205.11 80.77, 175.53 54.15, 111.81 -0.79 M237.94 106.61 C188.7 64.94, 140.91 21.71, 112.49 -1.63 M237.81 103.16 C192.69 60.22, 146.87 20.41, 117.24 -2.28 M239.1 103.05 C198.55 67.99, 160.1 34.47, 119.49 -2.04 M239.3 97.21 C214.03 75.35, 187.28 52.16, 125.46 -2.6 M238.47 97.12 C194.9 61.74, 151.49 22.3, 123.73 -1.22 M242.11 92.05 C208.39 65.75, 178.5 38.28, 129.2 -2.47 M241.28 93.63 C214.31 71.81, 189.66 48.92, 130.65 -1.84 M241.14 89.91 C208.96 60.31, 173.36 27.91, 137.62 -0.37 M242.52 89.7 C221.55 70.85, 199.84 51.7, 137.76 -1.13 M243.95 85.6 C215.11 60.6, 184.74 37.73, 144.94 0.16 M243.96 85.75 C207.54 53.93, 169.96 22.65, 147.16 0.88 M243.39 79.19 C221.75 60.35, 202.07 44.48, 153.3 3.72 M240.76 79.23 C207.27 50.36, 175.67 20.85, 154.41 3.64 M238.53 70.5 C223.95 57.27, 208.22 44.54, 162.91 5.05 M240.28 72.16 C210.59 43.83, 178.43 17.22, 162.57 5.16 M238.75 63.85 C222.56 50.58, 201.36 34.14, 173.42 8.93 M238.14 64.99 C221.15 50.19, 202.57 35.28, 171.52 6.94 M232.82 56.69 C217.5 41.63, 196.3 25.44, 186.57 16.16 M233.23 56.25 C220.5 42.68, 206.79 31.35, 188.55 17.01 M215.94 34.36 C210.17 30.69, 207.81 29.38, 205.89 25.12 M215.07 34.37 C212.81 32.2, 209.82 29.4, 204.56 24.75" stroke="#82c91e" stroke-width="0.5" fill="none"></path><path d="M84.71 4.83 C97.18 0.35, 114.47 -0.84, 128.98 -0.2 C143.5 0.44, 158.39 3.82, 171.81 8.67 C185.23 13.52, 199.27 20.96, 209.48 28.89 C219.7 36.82, 227.8 46.37, 233.11 56.25 C238.41 66.13, 241.04 77.36, 241.32 88.19 C241.61 99.02, 239.61 110.84, 234.81 121.22 C230.01 131.6, 222.06 142.14, 212.52 150.48 C202.99 158.83, 190.51 166.27, 177.6 171.28 C164.69 176.29, 149.46 179.4, 135.06 180.54 C120.65 181.68, 105.21 180.89, 91.16 178.12 C77.11 175.36, 62.53 170.15, 50.75 163.95 C38.97 157.74, 28.58 149.97, 20.48 140.88 C12.38 131.79, 5.2 120.21, 2.16 109.42 C-0.89 98.64, -0.34 87.05, 2.22 76.2 C4.78 65.35, 10.34 53.74, 17.52 44.33 C24.71 34.93, 31.16 27.04, 45.34 19.77 C59.53 12.5, 90.16 3.61, 102.63 0.72 C115.1 -2.18, 119.97 0.89, 120.16 2.4 M116.51 1.2 C130.27 -1.02, 147.52 0.16, 161.11 3.69 C174.7 7.21, 186.83 14.85, 198.04 22.33 C209.26 29.8, 221.08 38.87, 228.42 48.52 C235.76 58.18, 240.56 69.41, 242.07 80.28 C243.58 91.16, 241.08 103.15, 237.47 113.78 C233.86 124.4, 228.76 135.39, 220.41 144.03 C212.05 152.67, 199.49 159.73, 187.32 165.61 C175.15 171.48, 161.56 176.8, 147.4 179.28 C133.24 181.77, 116.58 182.26, 102.38 180.53 C88.19 178.8, 74.68 174.3, 62.24 168.89 C49.8 163.48, 37.1 156.25, 27.76 148.07 C18.42 139.89, 10.81 130.06, 6.19 119.83 C1.56 109.61, -0.79 97.59, 0.02 86.71 C0.82 75.83, 5.09 64.67, 10.99 54.56 C16.9 44.46, 25.3 34.12, 35.44 26.06 C45.57 17.99, 58.29 10.72, 71.82 6.17 C85.36 1.63, 109.19 -0.24, 116.66 -1.2 C124.13 -2.16, 116.55 -1.31, 116.64 0.4" stroke="#1864ab" stroke-width="1" fill="none"></path></g><g transform="translate(398.00646050070895 51.13557331708304) rotate(0 77.84796142578125 50)"><text x="77.84796142578125" y="0" font-family="Virgil, Segoe UI Emoji" font-size="16px" fill="#1e1e1e" text-anchor="middle" style="white-space: pre;" direction="ltr" dominant-baseline="text-before-edge">Your backend made </text><text x="77.84796142578125" y="20" font-family="Virgil, Segoe UI Emoji" font-size="16px" fill="#1e1e1e" text-anchor="middle" style="white-space: pre;" direction="ltr" dominant-baseline="text-before-edge">with any language</text><text x="77.84796142578125" y="40" font-family="Virgil, Segoe UI Emoji" font-size="16px" fill="#1e1e1e" text-anchor="middle" style="white-space: pre;" direction="ltr" dominant-baseline="text-before-edge"></text><text x="77.84796142578125" y="60" font-family="Virgil, Segoe UI Emoji" font-size="16px" fill="#1e1e1e" text-anchor="middle" style="white-space: pre;" direction="ltr" dominant-baseline="text-before-edge">PHP, Java, NodeJS,</text><text x="77.84796142578125" y="80" font-family="Virgil, Segoe UI Emoji" font-size="16px" fill="#1e1e1e" text-anchor="middle" style="white-space: pre;" direction="ltr" dominant-baseline="text-before-edge">Ruby, etc</text></g><g stroke-opacity="0.5" fill-opacity="0.5" stroke-linecap="round" transform="translate(682.163361503738 228.09134363800464) rotate(0 116.66753434156044 82.59484182201771)"><path d="M7.86 8.16 C7.86 8.16, 7.86 8.16, 7.86 8.16 M7.86 8.16 C7.86 8.16, 7.86 8.16, 7.86 8.16 M3.66 19.09 C7.15 15.75, 11.75 12.33, 18.1 2.48 M3.66 19.09 C8.08 13.84, 14.18 6.6, 18.1 2.48 M2.75 26.24 C8.68 18.41, 18.95 7.01, 24.4 1.33 M2.75 26.24 C8.43 19.49, 13.66 13.76, 24.4 1.33 M2.48 32.64 C9.17 24.84, 18.02 14.29, 30.7 0.18 M2.48 32.64 C12.48 22.94, 21.37 10.38, 30.7 0.18 M2.88 38.28 C16.94 22.61, 25.95 11.02, 34.37 2.05 M2.88 38.28 C12.73 26.62, 24.48 13.24, 34.37 2.05 M2.62 44.68 C10.69 31.78, 20.81 20.48, 39.36 2.41 M2.62 44.68 C13.52 31.94, 23.8 19.95, 39.36 2.41 M2.36 51.07 C12.43 38.89, 24.65 26.68, 45 2.02 M2.36 51.07 C19.83 32.39, 37.5 11.58, 45 2.02 M2.75 56.72 C17.98 42.23, 32.84 25.75, 49.99 2.38 M2.75 56.72 C17.47 39.98, 31.82 23.08, 49.99 2.38 M2.49 63.11 C20.5 43.57, 40.05 21.09, 55.63 1.98 M2.49 63.11 C17.84 45.4, 33.86 27.55, 55.63 1.98 M2.23 69.51 C17.58 54.39, 33.39 36.98, 60.62 2.34 M2.23 69.51 C21.23 46.75, 41.48 26.57, 60.62 2.34 M2.62 75.16 C19.73 56.16, 37.43 38.13, 66.26 1.95 M2.62 75.16 C23.52 49.66, 45.89 24.97, 66.26 1.95 M2.36 81.55 C27.58 52.42, 54.16 23.29, 71.25 2.31 M2.36 81.55 C17.55 64.25, 35.54 45.24, 71.25 2.31 M2.1 87.95 C21.68 62.81, 41.59 40.87, 76.89 1.91 M2.1 87.95 C29.01 56.36, 54.97 26.71, 76.89 1.91 M2.49 93.59 C20.28 74.02, 37.78 56.81, 81.88 2.27 M2.49 93.59 C29.33 62.34, 56.09 30.39, 81.88 2.27 M2.23 99.99 C30.72 64.79, 61.94 34.46, 87.52 1.88 M2.23 99.99 C28.97 69.32, 54.22 40.98, 87.52 1.88 M1.97 106.39 C33.14 73.37, 58.02 41.98, 92.51 2.24 M1.97 106.39 C32.52 71.47, 61.73 34.67, 92.51 2.24 M2.37 112.03 C25.67 87.9, 47.77 61.65, 98.15 1.85 M2.37 112.03 C38.29 72.61, 71.99 33.35, 98.15 1.85 M2.1 118.43 C39.87 73.65, 75.66 30.99, 103.14 2.21 M2.1 118.43 C36.08 79.83, 69.6 42.99, 103.14 2.21 M2.5 124.07 C43.45 78.2, 84.58 30.26, 108.78 1.81 M2.5 124.07 C32.29 90.69, 61.68 55.8, 108.78 1.81 M2.24 130.47 C23.84 102.15, 47.25 77.36, 113.77 2.17 M2.24 130.47 C46.01 79.36, 91.29 29.9, 113.77 2.17 M2.63 136.11 C37.05 97.77, 67.76 60.22, 119.41 1.78 M2.63 136.11 C33.92 103.46, 63.59 67.59, 119.41 1.78 M3.68 141 C30.29 110.84, 57.51 79.99, 124.4 2.14 M3.68 141 C32.5 107.12, 61.72 74.85, 124.4 2.14 M2.77 148.16 C35.95 108.1, 70.28 68.64, 130.04 1.74 M2.77 148.16 C28.78 117.27, 56.11 85.38, 130.04 1.74 M5.13 151.53 C52.27 99.02, 98.38 44.06, 135.03 2.1 M5.13 151.53 C49.96 99.75, 93.95 48.92, 135.03 2.1 M7.49 154.91 C54.78 101.13, 101.28 45.58, 140.67 1.71 M7.49 154.91 C54.04 99.94, 101.77 45.33, 140.67 1.71 M9.85 158.29 C52.04 107.79, 95.06 61.8, 145.66 2.07 M9.85 158.29 C63.27 97.83, 115.05 38.07, 145.66 2.07 M12.87 160.92 C61.83 102.54, 113.91 46.05, 150.65 2.43 M12.87 160.92 C66.77 99.27, 120.85 37.39, 150.65 2.43 M16.55 162.79 C62.25 107.29, 109.45 54.76, 156.29 2.03 M16.55 162.79 C50.36 123.2, 84.51 83.02, 156.29 2.03 M20.22 164.66 C52.29 130.05, 83.13 92.92, 161.28 2.39 M20.22 164.66 C65.98 111.51, 111.97 58.2, 161.28 2.39 M24.55 165.77 C58.06 126.18, 92.21 87.99, 166.92 2 M24.55 165.77 C54.53 131.27, 82.32 96.59, 166.92 2 M29.54 166.13 C66.4 118.77, 105.64 75.43, 171.91 2.36 M29.54 166.13 C66.29 122.23, 103.04 79.58, 171.91 2.36 M33.87 167.25 C85.23 107.81, 136.94 46.3, 177.55 1.96 M33.87 167.25 C82.85 112.02, 131.74 55.84, 177.55 1.96 M39.51 166.85 C85.77 115.13, 131.31 62.13, 182.54 2.32 M39.51 166.85 C94.64 102.79, 150.59 38.71, 182.54 2.32 M44.5 167.21 C77.18 127.86, 109.46 90.87, 188.18 1.93 M44.5 167.21 C90.63 114.98, 136 64.02, 188.18 1.93 M50.14 166.82 C83.96 128.85, 117.1 89.78, 193.17 2.29 M50.14 166.82 C78.29 133.18, 107.77 100.34, 193.17 2.29 M55.13 167.18 C97.33 119.06, 137.22 70.37, 198.81 1.9 M55.13 167.18 C84.35 135.16, 112.73 101.54, 198.81 1.9 M60.77 166.78 C108.27 113.47, 157.02 58.83, 203.8 2.26 M60.77 166.78 C105.79 117.27, 148.61 66.45, 203.8 2.26 M65.76 167.14 C118.37 105.77, 172.12 44.8, 208.78 2.62 M65.76 167.14 C103.1 125.08, 139.15 82.1, 208.78 2.62 M71.4 166.75 C122.55 108.05, 177.52 47.77, 213.11 3.73 M71.4 166.75 C125.67 106.41, 178.1 47.18, 213.11 3.73 M76.39 167.11 C112.83 125.98, 147.52 86.32, 218.1 4.09 M76.39 167.11 C128.55 108.68, 178.01 51.38, 218.1 4.09 M82.04 166.71 C134.77 106.49, 187.56 46, 221.12 6.71 M82.04 166.71 C136.73 105.51, 191.81 42.08, 221.12 6.71 M87.02 167.07 C119.36 129.8, 150.16 93.94, 224.79 8.58 M87.02 167.07 C134.25 111.94, 180.58 57.06, 224.79 8.58 M92.67 166.68 C123.05 131.21, 151.88 99.28, 228.47 10.45 M92.67 166.68 C124.02 129.44, 157.35 90.81, 228.47 10.45 M97.65 167.04 C149.4 106.25, 201.44 45.77, 230.18 14.59 M97.65 167.04 C135.96 123.6, 172.73 81.47, 230.18 14.59 M103.3 166.64 C132.91 130.15, 161.65 96.61, 231.88 18.72 M103.3 166.64 C144.54 119.1, 183.17 75.06, 231.88 18.72 M108.28 167 C156.87 114.77, 203.39 61.27, 232.93 23.61 M108.28 167 C137.68 134.87, 166.2 103.38, 232.93 23.61 M113.27 167.36 C159.84 111.9, 207.64 60.01, 233.33 29.25 M113.27 167.36 C143.66 131.38, 175.65 94.98, 233.33 29.25 M118.91 166.97 C157.65 119.29, 198.63 74.38, 235.03 33.39 M118.91 166.97 C141.73 139.28, 167.23 110.88, 235.03 33.39 M123.9 167.33 C162.6 125.89, 201.63 81.31, 234.77 39.78 M123.9 167.33 C153.5 133.67, 184.02 97.24, 234.77 39.78 M129.54 166.94 C157.06 137.57, 180.12 104.7, 235.17 45.43 M129.54 166.94 C161.02 130.99, 192.25 93.91, 235.17 45.43 M134.53 167.3 C170.37 127.06, 203.41 88.08, 234.91 51.82 M134.53 167.3 C156.86 142.84, 177.88 115.9, 234.91 51.82 M140.17 166.9 C175.6 125.26, 211.47 84.74, 235.3 57.47 M140.17 166.9 C170.13 131.29, 201.65 96.35, 235.3 57.47 M145.16 167.26 C176.72 130.94, 209.31 90.65, 235.04 63.87 M145.16 167.26 C167.27 140.23, 191.12 115.08, 235.04 63.87 M150.8 166.87 C181.54 130.54, 210.27 99.48, 234.78 70.26 M150.8 166.87 C177.87 135.98, 203.69 105.54, 234.78 70.26 M155.79 167.23 C186.29 131.24, 214.96 96.37, 235.17 75.91 M155.79 167.23 C176.49 142.45, 195.43 119.28, 235.17 75.91 M161.43 166.83 C191.54 132.58, 217.23 101.64, 234.91 82.3 M161.43 166.83 C185.13 137.93, 210.43 110.33, 234.91 82.3 M166.42 167.19 C181.97 149.05, 202.41 129.25, 235.31 87.95 M166.42 167.19 C191.21 137.98, 216.71 109.68, 235.31 87.95 M172.06 166.8 C185.38 150.17, 201.09 136.23, 235.04 94.34 M172.06 166.8 C196.94 138.57, 220.72 109.88, 235.04 94.34 M177.05 167.16 C190.12 152.62, 203.99 132.77, 234.78 100.74 M177.05 167.16 C192.82 149.38, 206.26 132.28, 234.78 100.74 M182.69 166.76 C201.3 145.62, 221.41 123.84, 235.18 106.39 M182.69 166.76 C199.88 145.9, 218.08 126.54, 235.18 106.39 M187.68 167.12 C201.98 145.96, 222.12 129.21, 234.92 112.78 M187.68 167.12 C199.97 152.03, 213.95 137.33, 234.92 112.78 M193.32 166.73 C205.41 155.37, 214.68 143.93, 235.31 118.43 M193.32 166.73 C207.75 149.03, 224.13 131.37, 235.31 118.43 M198.31 167.09 C211.21 153.64, 223.91 139.75, 235.05 124.82 M198.31 167.09 C208.45 155.32, 217.66 143.35, 235.05 124.82 M203.3 167.45 C211.65 155.6, 220.14 144.75, 234.79 131.22 M203.3 167.45 C213.43 155.74, 224.26 142.68, 234.79 131.22 M209.6 166.3 C217.31 158.1, 227.5 147.99, 236.49 135.36 M209.6 166.3 C219.52 153.28, 230.3 141.73, 236.49 135.36 M216.55 164.39 C220.89 161.45, 225.77 156.63, 231.64 147.04 M216.55 164.39 C219.86 160.29, 223.03 156.69, 231.64 147.04 M7.88 157.08 C7.88 157.08, 7.88 157.08, 7.88 157.08 M7.88 157.08 C7.88 157.08, 7.88 157.08, 7.88 157.08 M19.56 161.94 C15.62 157.93, 11.62 153.78, 2.2 146.85 M19.56 161.94 C12.91 157.29, 8.81 151.79, 2.2 146.85 M26.71 162.85 C21.67 158.45, 16.61 154.99, 1.05 140.55 M26.71 162.85 C19.94 156.99, 11.24 149.6, 1.05 140.55 M33.86 163.77 C22.26 153.07, 7.37 144.17, 0.66 134.9 M33.86 163.77 C20.11 152.86, 8.48 142.3, 0.66 134.9 M39.51 163.38 C27 151.4, 12.98 140.33, 1.77 130.57 M39.51 163.38 C29.51 156, 21.48 147.28, 1.77 130.57 M45.9 163.64 C36.93 158.09, 28.47 148.1, 2.13 125.59 M45.9 163.64 C34.41 154.15, 25.69 145.75, 2.13 125.59 M51.55 163.24 C31.81 147.85, 14.7 132.71, 1.74 119.94 M51.55 163.24 C38.58 151.68, 24.44 138.51, 1.74 119.94 M57.94 163.51 C42.07 149.24, 24.03 130.55, 2.1 114.96 M57.94 163.51 C40.96 148.83, 26.21 135.76, 2.1 114.96 M64.34 163.77 C47.09 151.99, 31.98 135.52, 2.46 109.97 M64.34 163.77 C50.62 150.74, 36.82 140.33, 2.46 109.97 M69.99 163.37 C54.14 146.97, 37.5 135.04, 2.06 104.33 M69.99 163.37 C46.2 142.86, 22.44 122.44, 2.06 104.33 M76.38 163.63 C47.35 140.92, 18.77 117.17, 2.42 99.34 M76.38 163.63 C61.29 150.78, 44.76 137.67, 2.42 99.34 M82.03 163.24 C57.89 141.89, 36.81 124.29, 2.03 93.7 M82.03 163.24 C65.17 148.99, 47.48 133.57, 2.03 93.7 M88.42 163.5 C58.27 138.49, 28.22 110.8, 2.39 88.71 M88.42 163.5 C66.09 142.54, 41.85 121.87, 2.39 88.71 M94.82 163.76 C74.45 146.79, 51.71 125.12, 1.99 83.07 M94.82 163.76 C69.34 142.77, 44.24 119.07, 1.99 83.07 M100.46 163.37 C73.89 139.17, 49.26 119.09, 2.35 78.08 M100.46 163.37 C67.99 135.25, 37.09 107.55, 2.35 78.08 M106.86 163.63 C74.42 138.1, 43.26 109.51, 1.96 72.44 M106.86 163.63 C69.86 132.38, 34.45 100.9, 1.96 72.44 M112.51 163.23 C84.19 141.97, 58.85 118.65, 2.32 67.45 M112.51 163.23 C70.31 126.36, 27.85 90.51, 2.32 67.45 M118.9 163.5 C94.99 143.04, 68.03 119.47, 2.68 62.46 M118.9 163.5 C94.26 140.7, 69.24 121.39, 2.68 62.46 M125.3 163.76 C89.65 134.66, 53.64 102.55, 2.28 56.82 M125.3 163.76 C80.15 124.03, 35.76 84.18, 2.28 56.82 M130.94 163.36 C93.38 130.18, 57.57 101.13, 2.64 51.83 M130.94 163.36 C99.37 135.29, 66.76 108.07, 2.64 51.83 M137.34 163.62 C104.96 135.46, 71.41 106.53, 2.25 46.19 M137.34 163.62 C96.53 129.41, 57.26 94.96, 2.25 46.19 M142.98 163.23 C95.14 125.07, 51.23 82.53, 2.61 41.2 M142.98 163.23 C105.63 131.71, 68.44 99.45, 2.61 41.2 M149.38 163.49 C92.4 111.98, 31.89 61.86, 2.21 35.56 M149.38 163.49 C108.57 129.51, 68.13 94.39, 2.21 35.56 M155.78 163.75 C101.59 117.22, 49.64 71.44, 2.57 30.57 M155.78 163.75 C119.46 133.77, 84.57 101.93, 2.57 30.57 M161.42 163.36 C114.79 119.84, 65.8 76.68, 0.67 23.62 M161.42 163.36 C112.8 121.98, 65.38 79.3, 0.67 23.62 M167.82 163.62 C115.76 117.54, 66 74.42, 1.79 19.29 M167.82 163.62 C114.06 116.04, 59.92 69.69, 1.79 19.29 M173.46 163.22 C111.22 110.41, 48.2 58.18, 3.65 15.61 M173.46 163.22 C125.65 119.84, 76.95 77.47, 3.65 15.61 M179.86 163.49 C126.23 117.73, 73.45 72.64, 6.28 12.59 M179.86 163.49 C120.85 111.84, 62.84 61.99, 6.28 12.59 M186.26 163.75 C144 126.75, 104.23 91.6, 8.15 8.92 M186.26 163.75 C144.42 127.33, 103.58 91.35, 8.15 8.92 M191.9 163.35 C121.59 100.74, 51.43 37.42, 10.02 5.24 M191.9 163.35 C152.45 128.75, 112.5 93.27, 10.02 5.24 M198.3 163.61 C161.7 130.56, 121.38 95.47, 14.15 3.54 M198.3 163.61 C156.42 124.18, 113.13 86.85, 14.15 3.54 M203.19 162.56 C133.51 103.27, 63.25 41.55, 18.29 1.83 M203.19 162.56 C135.39 103.4, 68.65 44.47, 18.29 1.83 M208.83 162.17 C160.65 119.91, 108.2 73.38, 23.17 0.78 M208.83 162.17 C155.87 115.66, 102.14 69.81, 23.17 0.78 M215.98 163.09 C172.97 124.11, 127.02 85.86, 28.82 0.38 M215.98 163.09 C155.33 108.08, 93.91 55.49, 28.82 0.38 M219.36 160.72 C178.24 124.69, 133.7 89.82, 32.95 -1.32 M219.36 160.72 C167.29 115.16, 115.16 69.52, 32.95 -1.32 M222.74 158.36 C170.56 114, 121.3 69.11, 39.35 -1.06 M222.74 158.36 C173.72 114.81, 123.21 71.52, 39.35 -1.06 M226.12 156 C162.83 103.35, 101.41 49.01, 44.99 -1.46 M226.12 156 C188.26 124.31, 151.49 92.19, 44.99 -1.46 M227.99 152.32 C163.37 95.07, 98.33 37.7, 51.39 -1.19 M227.99 152.32 C163.41 94.98, 97.02 37.99, 51.39 -1.19 M230.62 149.3 C175.2 98.09, 114.6 46.25, 57.79 -0.93 M230.62 149.3 C172.44 99.11, 113.58 47.75, 57.79 -0.93 M232.48 145.63 C179.24 95.77, 122.22 48.33, 63.43 -1.33 M232.48 145.63 C169.05 92.76, 105.3 37.89, 63.43 -1.33 M233.6 141.3 C172.95 84.85, 108.82 30.43, 69.83 -1.07 M233.6 141.3 C189.94 104.37, 146.64 64.82, 69.83 -1.07 M233.96 136.31 C181.23 88.56, 126.41 43.46, 75.47 -1.46 M233.96 136.31 C197.05 106.31, 161.3 74.64, 75.47 -1.46 M234.32 131.32 C185.48 88.46, 140.49 46.78, 81.87 -1.2 M234.32 131.32 C192.73 95.66, 151.81 59.65, 81.87 -1.2 M234.68 126.34 C184.78 84.3, 136.97 41.76, 88.27 -0.94 M234.68 126.34 C189.2 87.73, 144.71 50.24, 88.27 -0.94 M235.04 121.35 C206.93 97.39, 176.56 70.15, 93.91 -1.33 M235.04 121.35 C187.38 81.41, 140.6 41.67, 93.91 -1.33 M234.65 115.71 C184.82 70.85, 133.34 27.51, 100.31 -1.07 M234.65 115.71 C188.26 75.41, 143.97 36.88, 100.31 -1.07 M235.01 110.72 C183.8 65.35, 131.84 22.53, 105.95 -1.47 M235.01 110.72 C196.88 75.24, 157.13 41.09, 105.95 -1.47 M234.61 105.08 C194.23 69.07, 157.44 34.95, 112.35 -1.2 M234.61 105.08 C201.68 74.85, 168.24 46.01, 112.35 -1.2 M234.97 100.09 C203.98 73.86, 172.79 45.81, 118.75 -0.94 M234.97 100.09 C191.87 63.17, 149.46 26.3, 118.75 -0.94 M234.58 94.45 C196.14 61.7, 156.63 29.23, 124.39 -1.34 M234.58 94.45 C205.21 69.06, 177.5 42.42, 124.39 -1.34 M234.94 89.46 C210.04 66.93, 181.69 44.25, 130.79 -1.08 M234.94 89.46 C193.89 52.92, 152.77 18.5, 130.79 -1.08 M234.54 83.82 C194.4 50.8, 158.3 13.7, 136.43 -1.47 M234.54 83.82 C210.45 64.67, 187.45 42.82, 136.43 -1.47 M234.9 78.83 C209.48 59.3, 188.38 37.96, 142.83 -1.21 M234.9 78.83 C204.32 52.24, 172.39 27.12, 142.83 -1.21 M234.51 73.19 C205.25 45.28, 173.66 17.89, 149.23 -0.95 M234.51 73.19 C206.22 49.38, 176.36 22.97, 149.23 -0.95 M234.87 68.2 C215.84 50.77, 201 37.66, 154.87 -1.34 M234.87 68.2 C213.69 50.72, 193.99 33.96, 154.87 -1.34 M234.47 62.56 C212.26 42.61, 193.99 26.81, 161.27 -1.08 M234.47 62.56 C214.24 43.56, 192.01 25.25, 161.27 -1.08 M234.83 57.57 C211.95 37.79, 191.19 19.48, 166.91 -1.48 M234.83 57.57 C214 38.11, 192.03 20.74, 166.91 -1.48 M234.44 51.93 C210.9 32.4, 186.28 10.26, 173.31 -1.21 M234.44 51.93 C220.76 39.67, 205.07 27.24, 173.31 -1.21 M234.8 46.94 C219.13 33.94, 207.4 21.77, 179.7 -0.95 M234.8 46.94 C215.47 29.53, 194.94 13.08, 179.7 -0.95 M234.4 41.3 C214.9 24.37, 197.1 7.4, 185.35 -1.35 M234.4 41.3 C220.04 27.79, 205.5 16.63, 185.35 -1.35 M234.76 36.31 C222.61 22.68, 210.05 14.81, 191.75 -1.09 M234.76 36.31 C219.41 23.58, 205.14 10.55, 191.75 -1.09 M234.37 30.67 C225.53 23.71, 217.02 15.58, 197.39 -1.48 M234.37 30.67 C220.54 18.07, 206.09 4.01, 197.39 -1.48 M233.22 24.37 C227.25 17.93, 217.85 13.73, 203.03 -1.87 M233.22 24.37 C224.46 16.07, 214.91 9.06, 203.03 -1.87 M231.32 17.41 C225.61 10.09, 215.2 5.88, 210.18 -0.96 M231.32 17.41 C225.31 11.95, 221.53 8.3, 210.18 -0.96" stroke="#a5d8ff" stroke-width="0.5" fill="none"></path><path d="M32 0 M32 0 C72.69 1, 108.25 0.42, 201.34 0 M32 0 C67.79 -0.58, 102.7 0.26, 201.34 0 M201.34 0 C224.29 -1.87, 235.31 10.26, 233.34 32 M201.34 0 C223.08 1.13, 234.36 12.69, 233.34 32 M233.34 32 C232.12 68.93, 233.97 109.55, 233.34 133.19 M233.34 32 C233.38 71.62, 233.09 111.47, 233.34 133.19 M233.34 133.19 C234.44 154.72, 222.95 164.12, 201.34 165.19 M233.34 133.19 C233.27 152.69, 221.89 163.08, 201.34 165.19 M201.34 165.19 C148.38 165.07, 98.71 164.38, 32 165.19 M201.34 165.19 C143.03 163.7, 82.38 165.26, 32 165.19 M32 165.19 C12.14 165.64, 0.43 155.35, 0 133.19 M32 165.19 C9.37 164.37, -2.29 152.91, 0 133.19 M0 133.19 C-0.64 113.23, -0.68 91.84, 0 32 M0 133.19 C-0.37 96.32, -0.79 58.98, 0 32 M0 32 C1.1 10.37, 11.47 -0.21, 32 0 M0 32 C-0.97 8.6, 8.6 0.05, 32 0" stroke="#1971c2" stroke-width="1" fill="none"></path></g><g transform="translate(692.3589338702008 290.68618546002244) rotate(0 106.47196197509766 20)"><text x="106.47196197509766" y="0" font-family="Virgil, Segoe UI Emoji" font-size="16px" fill="#1e1e1e" text-anchor="middle" style="white-space: pre;" direction="ltr" dominant-baseline="text-before-edge">Polotno SDK on the client </text><text x="106.47196197509766" y="20" font-family="Virgil, Segoe UI Emoji" font-size="16px" fill="#1e1e1e" text-anchor="middle" style="white-space: pre;" direction="ltr" dominant-baseline="text-before-edge">(browser)</text></g><g stroke-linecap="round"><g transform="translate(583.6600725618345 165.68491763151988) rotate(0 44.96565918316179 38.42619205772948)"><path d="M-0.93 -0.06 C3.17 7.78, 8.7 34.6, 24 47.61 C39.29 60.62, 79.68 73.11, 90.86 77.99 M0.79 -1.14 C4.73 6.34, 7.9 33.23, 22.75 46.07 C37.61 58.92, 78.5 70.66, 89.92 75.94" stroke="#1e1e1e" stroke-width="1" fill="none"></path></g><g transform="translate(583.6600725618345 165.68491763151988) rotate(0 44.96565918316179 38.42619205772948)"><path d="M59.82 74.59 C69.31 75.31, 75.89 75.77, 89.07 75.68 M60.59 75.68 C67.23 76.08, 74.86 75.17, 90.51 75.4" stroke="#1e1e1e" stroke-width="1" fill="none"></path></g><g transform="translate(583.6600725618345 165.68491763151988) rotate(0 44.96565918316179 38.42619205772948)"><path d="M67.1 55.41 C74.85 60.89, 79.61 66.16, 89.07 75.68 M67.87 56.5 C72.8 61.41, 78.7 65.07, 90.51 75.4" stroke="#1e1e1e" stroke-width="1" fill="none"></path></g></g><mask></mask><g transform="translate(548.8285099836435 212.41077104868722) rotate(0 29.37598419189453 20)"><text x="29.37598419189453" y="0" font-family="Virgil, Segoe UI Emoji" font-size="16px" fill="#1e1e1e" text-anchor="middle" style="white-space: pre;" direction="ltr" dominant-baseline="text-before-edge">JSON</text><text x="29.37598419189453" y="20" font-family="Virgil, Segoe UI Emoji" font-size="16px" fill="#1e1e1e" text-anchor="middle" style="white-space: pre;" direction="ltr" dominant-baseline="text-before-edge">to load</text></g><g stroke-linecap="round"><g transform="translate(725.1182062184774 207.20878590743067) rotate(0 -57.67284755493637 -32.43219244842774)"><path d="M-0.78 -0.59 C-8.99 -9.18, -29.34 -41, -48.56 -51.65 C-67.77 -62.31, -104.49 -62.12, -116.09 -64.5 M1.01 1.72 C-7.37 -6.68, -29.65 -38.9, -49.21 -50.28 C-68.78 -61.66, -104.81 -64.07, -116.36 -66.58" stroke="#1e1e1e" stroke-width="1" fill="none"></path></g><g transform="translate(725.1182062184774 207.20878590743067) rotate(0 -57.67284755493637 -32.43219244842774)"><path d="M-87.91 -71.47 C-98.07 -68.91, -107.33 -70.25, -117.9 -66.63 M-86.55 -71.76 C-98.15 -69.53, -107.86 -68.51, -115.78 -66.76" stroke="#1e1e1e" stroke-width="1" fill="none"></path></g><g transform="translate(725.1182062184774 207.20878590743067) rotate(0 -57.67284755493637 -32.43219244842774)"><path d="M-91.07 -51.19 C-100.06 -55.92, -108.18 -64.58, -117.9 -66.63 M-89.7 -51.48 C-100.2 -56.64, -108.76 -62.98, -115.78 -66.76" stroke="#1e1e1e" stroke-width="1" fill="none"></path></g></g><mask></mask><g transform="translate(683.6348148876915 108.0458167744529) rotate(0 31.191986083984375 20)"><text x="31.191986083984375" y="0" font-family="Virgil, Segoe UI Emoji" font-size="16px" fill="#1e1e1e" text-anchor="middle" style="white-space: pre;" direction="ltr" dominant-baseline="text-before-edge">JSON</text><text x="31.191986083984375" y="20" font-family="Virgil, Segoe UI Emoji" font-size="16px" fill="#1e1e1e" text-anchor="middle" style="white-space: pre;" direction="ltr" dominant-baseline="text-before-edge">to save</text></g><g stroke-opacity="0.5" fill-opacity="0.5" stroke-linecap="round" transform="translate(10 191.4328966316414) rotate(0 116.6675343415605 82.59484182201774)"><path d="M7.86 8.16 C7.86 8.16, 7.86 8.16, 7.86 8.16 M7.86 8.16 C7.86 8.16, 7.86 8.16, 7.86 8.16 M3.66 19.09 C9.63 12.47, 13.48 6.83, 18.1 2.48 M3.66 19.09 C8.05 15.84, 9.8 11.7, 18.1 2.48 M2.75 26.24 C10.23 20.15, 17.2 11.73, 24.4 1.33 M2.75 26.24 C9.48 18.34, 15.74 10.17, 24.4 1.33 M2.48 32.64 C13.6 20.57, 23.65 7.21, 30.7 0.18 M2.48 32.64 C12.02 21.49, 21.42 12.2, 30.7 0.18 M2.88 38.28 C11.92 24.87, 25.54 15.92, 34.37 2.05 M2.88 38.28 C14.06 25.15, 25.44 11.18, 34.37 2.05 M2.62 44.68 C14.95 30.56, 29.2 14.46, 39.36 2.41 M2.62 44.68 C14.75 31.52, 25.68 17.96, 39.36 2.41 M2.36 51.07 C15.75 35.76, 30.64 18.33, 45 2.02 M2.36 51.07 C18.31 32.38, 35.01 12.45, 45 2.02 M2.75 56.72 C18.12 42.82, 29.4 26.59, 49.99 2.38 M2.75 56.72 C14.61 42.81, 28.35 27.77, 49.99 2.38 M2.49 63.11 C15.69 48.31, 26.28 31.78, 55.63 1.98 M2.49 63.11 C18.4 45.06, 34.27 28.01, 55.63 1.98 M2.23 69.51 C15.92 52.96, 30.96 37.09, 60.62 2.34 M2.23 69.51 C19.67 48.43, 38.78 28.55, 60.62 2.34 M2.62 75.16 C20.07 54.24, 41.12 34.56, 66.26 1.95 M2.62 75.16 C21.48 53.83, 41.3 31.86, 66.26 1.95 M2.36 81.55 C27.86 52.19, 52.5 21.27, 71.25 2.31 M2.36 81.55 C22.32 57.5, 41.48 36, 71.25 2.31 M2.1 87.95 C26.53 60.56, 49.64 34.38, 76.89 1.91 M2.1 87.95 C24.61 60.91, 47.33 34.3, 76.89 1.91 M2.49 93.59 C26.45 67.76, 48.76 40.05, 81.88 2.27 M2.49 93.59 C25.19 66.02, 49.4 36.79, 81.88 2.27 M2.23 99.99 C22.34 79.02, 43.41 56.61, 87.52 1.88 M2.23 99.99 C30.98 67.84, 58.41 35.8, 87.52 1.88 M1.97 106.39 C21.52 82.45, 44.8 55.61, 92.51 2.24 M1.97 106.39 C21.49 81.95, 42.17 59.74, 92.51 2.24 M2.37 112.03 C39.53 70.61, 72.65 27.99, 98.15 1.85 M2.37 112.03 C26.46 85.11, 51.15 57.2, 98.15 1.85 M2.1 118.43 C39.78 77.44, 76.02 34.55, 103.14 2.21 M2.1 118.43 C35.89 80.92, 68.14 42.86, 103.14 2.21 M2.5 124.07 C41.9 78.54, 76.71 37.82, 108.78 1.81 M2.5 124.07 C33.53 90.91, 62.94 56.85, 108.78 1.81 M2.24 130.47 C42.18 83.97, 83.32 36.71, 113.77 2.17 M2.24 130.47 C34.63 95.11, 65.11 59.17, 113.77 2.17 M2.63 136.11 C32.04 100, 60.19 69.46, 119.41 1.78 M2.63 136.11 C37.74 96.19, 72.08 56.03, 119.41 1.78 M3.68 141 C39.07 99.06, 77.31 58.78, 124.4 2.14 M3.68 141 C47.68 92.07, 89.91 42.97, 124.4 2.14 M2.77 148.16 C50.75 93.82, 94.67 41.87, 130.04 1.74 M2.77 148.16 C43.5 101.38, 84.67 53.44, 130.04 1.74 M5.13 151.53 C57.32 93.45, 106.63 34.23, 135.03 2.1 M5.13 151.53 C30.65 119.21, 58.64 88.92, 135.03 2.1 M7.49 154.91 C41.9 117.09, 74.16 75.14, 140.67 1.71 M7.49 154.91 C37.34 121.43, 64.47 89.16, 140.67 1.71 M9.85 158.29 C39.99 124.34, 67.08 92.48, 145.66 2.07 M9.85 158.29 C52.57 109.88, 94.89 60.99, 145.66 2.07 M12.87 160.92 C62.45 101.38, 112.16 46.57, 150.65 2.43 M12.87 160.92 C64 103.92, 114.89 45.65, 150.65 2.43 M16.55 162.79 C56.01 119.38, 98.88 71.64, 156.29 2.03 M16.55 162.79 C61.72 111.5, 107.48 60.13, 156.29 2.03 M20.22 164.66 C67.63 108.36, 116.77 54.21, 161.28 2.39 M20.22 164.66 C56.95 120.03, 93.76 78.33, 161.28 2.39 M24.55 165.77 C63.32 120.6, 106.93 73.96, 166.92 2 M24.55 165.77 C66.34 119.58, 107.3 72.49, 166.92 2 M29.54 166.13 C77.06 112.95, 126.03 56.11, 171.91 2.36 M29.54 166.13 C70.63 118.14, 111.61 71.49, 171.91 2.36 M33.87 167.25 C68.16 130.65, 103.48 89.06, 177.55 1.96 M33.87 167.25 C69.61 124.33, 106.87 82.85, 177.55 1.96 M39.51 166.85 C83.96 113.71, 127.2 64.6, 182.54 2.32 M39.51 166.85 C82.19 117.21, 126.82 66.95, 182.54 2.32 M44.5 167.21 C91.64 112.77, 136.44 60.31, 188.18 1.93 M44.5 167.21 C86.77 120.1, 128.04 72.46, 188.18 1.93 M50.14 166.82 C95.26 112.96, 140.45 61.43, 193.17 2.29 M50.14 166.82 C93.22 117.26, 135.96 70.11, 193.17 2.29 M55.13 167.18 C94.01 118.06, 137.71 73.3, 198.81 1.9 M55.13 167.18 C88.37 128.82, 121.59 91.28, 198.81 1.9 M60.77 166.78 C91.78 128.76, 126.93 90.71, 203.8 2.26 M60.77 166.78 C107.24 113.91, 152.5 61.43, 203.8 2.26 M65.76 167.14 C93.19 131.88, 124.46 98.75, 208.78 2.62 M65.76 167.14 C110.79 116.49, 156.24 64.06, 208.78 2.62 M71.4 166.75 C127.15 104.74, 182.9 39.65, 213.11 3.73 M71.4 166.75 C120.45 111.19, 169.82 53.6, 213.11 3.73 M76.39 167.11 C119.99 114.43, 164.33 62.25, 218.1 4.09 M76.39 167.11 C131.32 105.19, 186.4 40.78, 218.1 4.09 M82.04 166.71 C134.28 103.78, 186.3 45.81, 221.12 6.71 M82.04 166.71 C116.36 126.76, 150.32 86.29, 221.12 6.71 M87.02 167.07 C117.53 131.89, 149.92 96.69, 224.79 8.58 M87.02 167.07 C127.02 122.85, 165.01 76.79, 224.79 8.58 M92.67 166.68 C129.26 126.1, 165.92 81.91, 228.47 10.45 M92.67 166.68 C144.43 106.64, 194.5 48.43, 228.47 10.45 M97.65 167.04 C134.77 123.24, 171.19 79.01, 230.18 14.59 M97.65 167.04 C128.1 130.89, 159.97 95.86, 230.18 14.59 M103.3 166.64 C145.63 117.85, 187.68 66.48, 231.88 18.72 M103.3 166.64 C154.35 109.52, 204.78 51.43, 231.88 18.72 M108.28 167 C157.66 112.08, 202.67 61.36, 232.93 23.61 M108.28 167 C141.86 128.24, 175.43 88.66, 232.93 23.61 M113.27 167.36 C152.57 120.24, 193.06 74.97, 233.33 29.25 M113.27 167.36 C140.37 134.32, 168.08 103.59, 233.33 29.25 M118.91 166.97 C161.2 118.91, 204.85 70.98, 235.03 33.39 M118.91 166.97 C144.35 136.43, 169.64 106.7, 235.03 33.39 M123.9 167.33 C154.03 128.54, 184.25 96.29, 234.77 39.78 M123.9 167.33 C166.08 121.1, 206.38 74.09, 234.77 39.78 M129.54 166.94 C157.84 138.09, 181.94 106.21, 235.17 45.43 M129.54 166.94 C162.74 130.44, 195.14 91.65, 235.17 45.43 M134.53 167.3 C156.11 139.67, 180.58 113.52, 234.91 51.82 M134.53 167.3 C169.12 128.28, 203.99 88.56, 234.91 51.82 M140.17 166.9 C162.47 143.92, 178.63 121.18, 235.3 57.47 M140.17 166.9 C173.51 129.91, 205.91 90.51, 235.3 57.47 M145.16 167.26 C168.99 137.59, 194.45 107.31, 235.04 63.87 M145.16 167.26 C178.93 126.79, 215.66 86.25, 235.04 63.87 M150.8 166.87 C177.34 132.78, 205.39 103.46, 234.78 70.26 M150.8 166.87 C180.51 130.92, 211.74 94.78, 234.78 70.26 M155.79 167.23 C173.73 147.87, 190.52 127.49, 235.17 75.91 M155.79 167.23 C176.94 144.36, 198.63 120.29, 235.17 75.91 M161.43 166.83 C182.54 143.76, 203.27 116.16, 234.91 82.3 M161.43 166.83 C189.68 134.73, 217.29 102.41, 234.91 82.3 M166.42 167.19 C182.83 145.76, 199.95 128.29, 235.31 87.95 M166.42 167.19 C192.33 136.52, 219.78 104.9, 235.31 87.95 M172.06 166.8 C191.39 141.65, 213.08 118.27, 235.04 94.34 M172.06 166.8 C195.18 139.06, 218.87 110.6, 235.04 94.34 M177.05 167.16 C190.86 151.66, 204.46 137.06, 234.78 100.74 M177.05 167.16 C193.78 145.55, 213.13 126.05, 234.78 100.74 M182.69 166.76 C201.46 143.82, 223.81 120.72, 235.18 106.39 M182.69 166.76 C192.1 155.44, 203.86 141.85, 235.18 106.39 M187.68 167.12 C201.5 151.32, 218.83 131.87, 234.92 112.78 M187.68 167.12 C199.13 153.68, 210.47 139.11, 234.92 112.78 M193.32 166.73 C209.03 148.68, 228.42 130.4, 235.31 118.43 M193.32 166.73 C202.67 155.91, 212.87 144.11, 235.31 118.43 M198.31 167.09 C205.76 157.86, 216.7 145.35, 235.05 124.82 M198.31 167.09 C211.7 152.58, 223.68 136.35, 235.05 124.82 M203.3 167.45 C212.98 157.91, 218.05 149.57, 234.79 131.22 M203.3 167.45 C212.71 157.46, 221.11 146.68, 234.79 131.22 M209.6 166.3 C216 157.26, 224.72 148.15, 236.49 135.36 M209.6 166.3 C215.19 159.82, 221.82 151.93, 236.49 135.36 M216.55 164.39 C223.99 159.63, 228.23 152.2, 231.64 147.04 M216.55 164.39 C220.8 157.82, 225.99 152.59, 231.64 147.04 M7.88 157.08 C7.88 157.08, 7.88 157.08, 7.88 157.08 M7.88 157.08 C7.88 157.08, 7.88 157.08, 7.88 157.08 M19.56 161.94 C11.87 154.93, 7.8 151.28, 2.2 146.85 M19.56 161.94 C15.26 158.77, 11.69 156.42, 2.2 146.85 M26.71 162.85 C19.7 155.98, 14.55 153.52, 1.05 140.55 M26.71 162.85 C18.31 156.02, 11.93 149.43, 1.05 140.55 M33.86 163.77 C22.13 156.38, 15.55 147.6, 0.66 134.9 M33.86 163.77 C24.56 155.89, 14.25 147.83, 0.66 134.9 M39.51 163.38 C27.1 152.63, 16.36 143.07, 1.77 130.57 M39.51 163.38 C30.72 156.71, 23.24 148.55, 1.77 130.57 M45.9 163.64 C32.18 150.56, 15.38 137.47, 2.13 125.59 M45.9 163.64 C31.3 150.27, 15.52 137.04, 2.13 125.59 M51.55 163.24 C39.55 150.89, 24.38 139.53, 1.74 119.94 M51.55 163.24 C41.25 155.35, 31.16 145.69, 1.74 119.94 M57.94 163.51 C39.73 149.93, 21.39 132.19, 2.1 114.96 M57.94 163.51 C36.46 143.81, 13.1 123.69, 2.1 114.96 M64.34 163.77 C46.69 148.75, 26.01 132.12, 2.46 109.97 M64.34 163.77 C42.97 146.88, 23.07 127.27, 2.46 109.97 M69.99 163.37 C53.56 151.91, 40.45 137.8, 2.06 104.33 M69.99 163.37 C57.03 150.74, 42.3 139.26, 2.06 104.33 M76.38 163.63 C54.7 143.36, 29.45 124.64, 2.42 99.34 M76.38 163.63 C59.27 147.83, 41.59 134.03, 2.42 99.34 M82.03 163.24 C53.13 137.74, 19.58 109.32, 2.03 93.7 M82.03 163.24 C53.03 139.44, 26.73 115.71, 2.03 93.7 M88.42 163.5 C59.72 139.57, 32.76 116.79, 2.39 88.71 M88.42 163.5 C70.5 147.73, 52.37 133.12, 2.39 88.71 M94.82 163.76 C64.85 135.76, 35.52 111.7, 1.99 83.07 M94.82 163.76 C73.54 146.69, 54.66 128.17, 1.99 83.07 M100.46 163.37 C61.64 130.78, 22.43 98.17, 2.35 78.08 M100.46 163.37 C76.54 142.99, 52.65 122.68, 2.35 78.08 M106.86 163.63 C77.16 136.41, 43.34 107.34, 1.96 72.44 M106.86 163.63 C66.34 130.77, 27.9 96.42, 1.96 72.44 M112.51 163.23 C87.65 145.24, 65.81 122.16, 2.32 67.45 M112.51 163.23 C85.04 140.5, 59.8 118.17, 2.32 67.45 M118.9 163.5 C80.02 132.88, 45.35 97.03, 2.68 62.46 M118.9 163.5 C71.94 122.97, 26.97 83.62, 2.68 62.46 M125.3 163.76 C83.81 127.96, 40.63 90.27, 2.28 56.82 M125.3 163.76 C99.83 142.57, 75.33 121.39, 2.28 56.82 M130.94 163.36 C86.11 125.71, 41.75 87.42, 2.64 51.83 M130.94 163.36 C99.66 135.62, 67.01 107.86, 2.64 51.83 M137.34 163.62 C109.21 138.42, 79.52 115.56, 2.25 46.19 M137.34 163.62 C109.45 139.24, 80.18 114.17, 2.25 46.19 M142.98 163.23 C102.88 126.4, 58.58 89.96, 2.61 41.2 M142.98 163.23 C102.73 127.89, 60.88 90.78, 2.61 41.2 M149.38 163.49 C108.35 128.41, 67.46 90.99, 2.21 35.56 M149.38 163.49 C111.82 129.62, 73.9 95.34, 2.21 35.56 M155.78 163.75 C119.13 131.54, 85.15 101.82, 2.57 30.57 M155.78 163.75 C111.54 125.14, 65.52 85.5, 2.57 30.57 M161.42 163.36 C117.07 124.58, 74.64 85.96, 0.67 23.62 M161.42 163.36 C123.31 130.72, 86.29 97.31, 0.67 23.62 M167.82 163.62 C101.39 107.21, 35.45 51.73, 1.79 19.29 M167.82 163.62 C133.81 131.82, 97.74 101.4, 1.79 19.29 M173.46 163.22 C114.6 108.75, 51.82 56.82, 3.65 15.61 M173.46 163.22 C121.51 117.53, 68.27 71.42, 3.65 15.61 M179.86 163.49 C121.85 111.46, 62.82 58.16, 6.28 12.59 M179.86 163.49 C110.34 102.96, 41.4 43.49, 6.28 12.59 M186.26 163.75 C118.46 105.47, 52.33 50.87, 8.15 8.92 M186.26 163.75 C121 106.27, 54.85 48.66, 8.15 8.92 M191.9 163.35 C156.04 130.84, 118.28 98.59, 10.02 5.24 M191.9 163.35 C154.86 130.78, 116.75 98.73, 10.02 5.24 M198.3 163.61 C127.48 103.39, 55.57 43.36, 14.15 3.54 M198.3 163.61 C126.47 100.68, 54.59 39.33, 14.15 3.54 M203.19 162.56 C154.15 119.79, 102.88 77.05, 18.29 1.83 M203.19 162.56 C130.96 100.67, 61.06 39.17, 18.29 1.83 M208.83 162.17 C149.94 110.44, 87.99 56.13, 23.17 0.78 M208.83 162.17 C164.94 124.82, 120.68 85.37, 23.17 0.78 M215.98 163.09 C145.77 105.56, 79.49 46.36, 28.82 0.38 M215.98 163.09 C164.09 117.84, 112.83 73.51, 28.82 0.38 M219.36 160.72 C146.73 97.04, 74.31 32.18, 32.95 -1.32 M219.36 160.72 C165.49 114.67, 110.65 66.98, 32.95 -1.32 M222.74 158.36 C172.37 112.61, 118.57 66.85, 39.35 -1.06 M222.74 158.36 C180.57 123.09, 139.4 87.5, 39.35 -1.06 M226.12 156 C183.98 120.03, 143.81 83.33, 44.99 -1.46 M226.12 156 C189.23 122.52, 152.62 90.29, 44.99 -1.46 M227.99 152.32 C163.05 97.11, 97.61 40.67, 51.39 -1.19 M227.99 152.32 C162.58 94.73, 97.7 38.42, 51.39 -1.19 M230.62 149.3 C175.72 101.58, 122.17 56.22, 57.79 -0.93 M230.62 149.3 C171.78 98.18, 110.77 45.71, 57.79 -0.93 M232.48 145.63 C179.8 99.31, 127.06 51.72, 63.43 -1.33 M232.48 145.63 C189.74 110.05, 147.29 71.88, 63.43 -1.33 M233.6 141.3 C171.57 84.69, 104.32 30.52, 69.83 -1.07 M233.6 141.3 C171.94 85.5, 110.8 32.67, 69.83 -1.07 M233.96 136.31 C177.37 88.04, 121.75 36.91, 75.47 -1.46 M233.96 136.31 C202.46 108.84, 171.16 80.65, 75.47 -1.46 M234.32 131.32 C190.91 93.27, 151.58 58.12, 81.87 -1.2 M234.32 131.32 C195.76 99.25, 157.62 64.15, 81.87 -1.2 M234.68 126.34 C189.26 85.43, 144.64 46.35, 88.27 -0.94 M234.68 126.34 C184.18 81.19, 134.65 36.25, 88.27 -0.94 M235.04 121.35 C207.27 97.05, 178.32 69.87, 93.91 -1.33 M235.04 121.35 C202.12 93.55, 168.85 63.81, 93.91 -1.33 M234.65 115.71 C191.68 79.36, 145.72 40.71, 100.31 -1.07 M234.65 115.71 C206.9 91.91, 176.2 65.98, 100.31 -1.07 M235.01 110.72 C196.53 74.94, 159.19 43.03, 105.95 -1.47 M235.01 110.72 C202.26 82.84, 169.43 55.29, 105.95 -1.47 M234.61 105.08 C197.6 72.77, 160.43 42.19, 112.35 -1.2 M234.61 105.08 C192.24 67.53, 150.85 32.36, 112.35 -1.2 M234.97 100.09 C202.35 68.81, 165.88 39.84, 118.75 -0.94 M234.97 100.09 C191.32 61.55, 147.77 24.57, 118.75 -0.94 M234.58 94.45 C199.48 62.71, 168.2 34.75, 124.39 -1.34 M234.58 94.45 C210.17 72.58, 186.71 51.02, 124.39 -1.34 M234.94 89.46 C210.48 67.75, 187.09 45.95, 130.79 -1.08 M234.94 89.46 C200.25 59.31, 164.41 28.97, 130.79 -1.08 M234.54 83.82 C199.04 52.95, 167.19 25.6, 136.43 -1.47 M234.54 83.82 C196.02 48.83, 159.31 16.69, 136.43 -1.47 M234.9 78.83 C202.55 49.78, 171.39 22.74, 142.83 -1.21 M234.9 78.83 C201.48 47.81, 166.86 18.96, 142.83 -1.21 M234.51 73.19 C201.51 44.5, 166.01 13.47, 149.23 -0.95 M234.51 73.19 C202.49 44.98, 172.1 19.01, 149.23 -0.95 M234.87 68.2 C204.1 41.69, 177.59 15.35, 154.87 -1.34 M234.87 68.2 C214.92 50.68, 196.76 34.82, 154.87 -1.34 M234.47 62.56 C206.02 37.32, 182.11 14.83, 161.27 -1.08 M234.47 62.56 C215.9 46.58, 198.69 31.94, 161.27 -1.08 M234.83 57.57 C217.32 40.63, 196.3 22.47, 166.91 -1.48 M234.83 57.57 C211.92 36.53, 188.25 16.66, 166.91 -1.48 M234.44 51.93 C214.65 33.1, 193.43 19.1, 173.31 -1.21 M234.44 51.93 C212.6 34.21, 192.02 14.53, 173.31 -1.21 M234.8 46.94 C220.43 33.4, 204.83 21.11, 179.7 -0.95 M234.8 46.94 C220.21 36.24, 208.44 24.15, 179.7 -0.95 M234.4 41.3 C220.64 28.52, 204.6 13.45, 185.35 -1.35 M234.4 41.3 C215.18 25.45, 198.47 8.25, 185.35 -1.35 M234.76 36.31 C222.11 24.48, 210.27 13.97, 191.75 -1.09 M234.76 36.31 C219.85 23.79, 205.44 10.85, 191.75 -1.09 M234.37 30.67 C221.64 20.12, 213.63 9.51, 197.39 -1.48 M234.37 30.67 C225.55 24.03, 217.2 15.03, 197.39 -1.48 M233.22 24.37 C221.66 16.18, 211.4 4.34, 203.03 -1.87 M233.22 24.37 C227.71 19.7, 220.78 13.01, 203.03 -1.87 M231.32 17.41 C227.05 12.67, 221.25 9.99, 210.18 -0.96 M231.32 17.41 C226.79 13.65, 221.75 9.68, 210.18 -0.96" stroke="#ffec99" stroke-width="0.5" fill="none"></path><path d="M32 0 M32 0 C91.51 2.12, 151.59 0.61, 201.34 0 M32 0 C67.55 -1.11, 103.51 -1.58, 201.34 0 M201.34 0 C223.85 -0.95, 235.17 12.2, 233.34 32 M201.34 0 C222.54 -1.31, 231.97 8.66, 233.34 32 M233.34 32 C232.95 59.28, 234.38 88.83, 233.34 133.19 M233.34 32 C233.03 58.47, 232.35 84.03, 233.34 133.19 M233.34 133.19 C233.23 155.89, 223.68 165.6, 201.34 165.19 M233.34 133.19 C234.97 152.27, 223.82 165.52, 201.34 165.19 M201.34 165.19 C137.46 167.94, 70.48 166.53, 32 165.19 M201.34 165.19 C159.04 165.61, 115.38 164.98, 32 165.19 M32 165.19 C12.66 165.37, -0.67 154, 0 133.19 M32 165.19 C10.88 165.03, -0.43 156.06, 0 133.19 M0 133.19 C2.1 106.87, -1.06 75.83, 0 32 M0 133.19 C0.26 97.71, -1.48 62.55, 0 32 M0 32 C1.1 11.09, 12.38 -1.92, 32 0 M0 32 C-0.06 11.23, 11.81 0.85, 32 0" stroke="#f08c00" stroke-width="1" fill="none"></path></g><g transform="translate(24.13960312818159 264.02773845365914) rotate(0 102.5279312133789 10)"><text x="102.5279312133789" y="0" font-family="Virgil, Segoe UI Emoji" font-size="16px" fill="#1e1e1e" text-anchor="middle" style="white-space: pre;" direction="ltr" dominant-baseline="text-before-edge">Polotno Cloud Render API</text></g><g stroke-linecap="round"><g transform="translate(372.105799452141 165.91872557525213) rotate(0 -54.44195748076001 31.584524488534925)"><path d="M0.96 0.92 C-5.72 6.47, -22.33 22.56, -40.74 32.87 C-59.16 43.18, -97.74 58.04, -109.54 62.81 M0.01 0.36 C-6.75 6.05, -23.19 23.7, -41.49 33.8 C-59.8 43.89, -98.1 56.17, -109.84 60.93" stroke="#1e1e1e" stroke-width="1" fill="none"></path></g><g transform="translate(372.105799452141 165.91872557525213) rotate(0 -54.44195748076001 31.584524488534925)"><path d="M-85.38 42.21 C-94.58 48.03, -96.84 49.42, -110.57 61.95 M-86.93 42.39 C-92.74 47.23, -100.05 53.15, -110.11 60.96" stroke="#1e1e1e" stroke-width="1" fill="none"></path></g><g transform="translate(372.105799452141 165.91872557525213) rotate(0 -54.44195748076001 31.584524488534925)"><path d="M-78.31 61.48 C-89.19 62.59, -93.2 59.22, -110.57 61.95 M-79.86 61.65 C-87.86 60.85, -97.22 61.19, -110.11 60.96" stroke="#1e1e1e" stroke-width="1" fill="none"></path></g></g><mask></mask><g stroke-linecap="round"><g transform="translate(208.49471291471838 167.62689679004424) rotate(0 64.9699460757551 -34.49780344104903)"><path d="M-0.52 -0.58 C7.98 -7.5, 30.4 -29.85, 51.83 -41.54 C73.26 -53.23, 115.22 -65.8, 128.07 -70.72 M1.41 1.73 C9.73 -4.98, 29.7 -28.12, 51.21 -39.98 C72.72 -51.85, 117.47 -64.41, 130.46 -69.46" stroke="#1e1e1e" stroke-width="1" fill="none"></path></g><g transform="translate(208.49471291471838 167.62689679004424) rotate(0 64.9699460757551 -34.49780344104903)"><path d="M106.07 -49.68 C115.79 -59.16, 124.23 -64.62, 129.65 -69.82 M106.49 -50.88 C114.67 -56.74, 123.18 -63.41, 130.88 -69.85" stroke="#1e1e1e" stroke-width="1" fill="none"></path></g><g transform="translate(208.49471291471838 167.62689679004424) rotate(0 64.9699460757551 -34.49780344104903)"><path d="M99.5 -69.12 C111.64 -71.37, 122.52 -69.64, 129.65 -69.82 M99.92 -70.32 C110.52 -69.44, 121.3 -69.38, 130.88 -69.85" stroke="#1e1e1e" stroke-width="1" fill="none"></path></g></g><mask></mask><g transform="translate(339.0964333627377 206.2101295417862) rotate(0 20.89598846435547 10)"><text x="20.89598846435547" y="0" font-family="Virgil, Segoe UI Emoji" font-size="16px" fill="#1e1e1e" text-anchor="middle" style="white-space: pre;" direction="ltr" dominant-baseline="text-before-edge">JSON</text></g><g transform="translate(187.40343417911686 91.17855407980582) rotate(0 46.75994873046875 10)"><text x="46.75994873046875" y="0" font-family="Virgil, Segoe UI Emoji" font-size="16px" fill="#1e1e1e" text-anchor="middle" style="white-space: pre;" direction="ltr" dominant-baseline="text-before-edge">jpg, png, pdf</text></g></svg>