<?xml version="1.0" encoding="UTF-8"?>
<svg width="1700px" height="1200px" viewBox="0 0 1700 1200" version="1.1" xmlns="http://www.w3.org/2000/svg" xmlns:xlink="http://www.w3.org/1999/xlink">
    <!-- Generator: Sketch 56.1 (81669) - https://sketch.com -->
    <title>Designers</title>
    <desc>Created with Sketch.</desc>
    <defs>
        <path d="M263.337974,107.570785 C265.81154,128.866176 267.127344,139.619246 267.285386,139.829995 C267.447928,140.046744 258.422169,142.160804 240.208111,146.172177 L238.440856,137.949373 C238.017348,138.115965 237.581449,138.285922 237.132815,138.459258 C228.732815,141.859258 229.232815,141.559258 228.632815,141.759258 C222.332815,143.459258 216.932815,143.359258 215.932815,143.259258 C207.532815,142.659258 197.732815,127.359258 193.332815,105.259258 C192.932815,103.459258 192.832815,101.659258 192.632815,99.8592579 L191.832815,81.9592579 C191.632815,77.9592579 192.432815,73.9592579 194.332815,70.4592579 C195.132815,68.9592579 195.932815,67.5592579 196.832815,66.4592579 C207.132815,52.6592579 226.132815,55.1592579 229.532815,55.5592579 C229.932815,55.5592579 230.332815,55.6592579 230.732815,55.6592579 C234.532815,56.5592579 237.932815,55.8592579 241.532815,55.7592579 C243.132815,55.7592579 244.432815,57.0592579 244.532815,58.6592579 L245.032815,84.2592579 C245.132815,86.6592579 251.963837,81.0625384 254.663837,80.8625384 C259.463837,80.4625384 264.832815,87.8592579 266.632815,92.7592579 C268.632815,98.0592579 267.032815,103.459258 263.932815,106.959258 C263.73741,107.172427 263.538849,107.376129 263.337974,107.570785 Z M200.306189,285.736084 C198.169797,285.052105 196.040551,284.363759 193.915285,283.67196 C177.655829,278.37931 161.649066,272.972727 144.27666,266.957878 C138.424238,264.990957 135.911004,264.00021 131.707285,262.413922 C118.013057,257.199752 66.468875,237.144056 63.9845497,235.236309 C55.2975008,231.69129 60.4209417,200.881705 60.2251135,189.662711 C74.6195796,195.695772 94.3966776,203.398856 119.556407,212.771963 C124.643947,215.280709 128.339214,218.59189 130.990673,221.359267 C135.245622,221.606133 169.328753,226.924632 200.727524,231.614065 C199.867935,231.483066 199.006248,231.351527 198.143135,231.219571 C198.206556,223.225543 199.468108,211.005286 205.583156,197.652355 C204.12343,204.589551 203.986476,211.940027 205.400535,219.373061 L208.001037,232.695817 C226.367534,235.414602 242.87688,237.751372 250.623721,238.495353 C251.039354,237.222904 254.220845,222.239875 260.168194,193.546266 L320.054525,209.272255 C318.83033,217.507831 315.778494,230.726785 310.899017,248.929117 C303.579801,276.232614 300.925054,296.573846 280.642675,302.872744 C275.915155,304.34707 269.751724,304.239142 256.018969,301.171316 C243.092504,298.282804 231.074918,295.068715 219.510507,291.660532 L228.306801,336.725241 L228.349414,336.725297 L228.326865,336.859992 L118.62335,337.246357 C112.831914,337.167675 119.508534,333.094709 138.65321,325.027459 C157.797886,316.960209 177.335013,310.04334 197.264591,304.276853 L197.5281,284.848904 C198.453076,285.145944 199.379015,285.441676 200.306189,285.736084 Z M332.581014,181.295377 C318.039332,187.893632 303.867363,188.879255 290.065108,184.252245 C276.262852,179.625235 269.102395,168.819746 268.583737,151.835776 C280.495344,147.981995 293.086018,148.754338 306.355758,154.152803 C319.625497,159.551268 328.36725,168.598793 332.581014,181.295377 Z" id="path-1"></path>
    </defs>
    <g id="Designers" stroke="none" stroke-width="1" fill="none" fill-rule="evenodd">
        <g id="Group" transform="translate(238.000000, 122.000000)">
            <g id="UI-/-Web-design-/-Web-design-1-/-1" transform="translate(261.000000, 0.000000)">
                <g id="Web-design" transform="translate(41.000000, 0.000000)">
                    <rect id="Background" fill="#F2F6FB" fill-rule="nonzero" x="0" y="0" width="572" height="841" rx="20"></rect>
                    <ellipse id="Burron" fill="#FF5645" fill-rule="nonzero" cx="35.5" cy="31.5261067" rx="9.5" ry="8.5"></ellipse>
                    <ellipse id="Burron" fill="#FFCB3D" fill-rule="nonzero" cx="67" cy="31.5261067" rx="9" ry="8.5"></ellipse>
                    <circle id="Burron" fill="#3ABF7C" fill-rule="nonzero" cx="97.5" cy="31.5261067" r="8.5"></circle>
                    <path d="M242,23.0261067 L331,23.0261067 C332.656854,23.0261067 334,24.3692524 334,26.0261067 L334,37.0261067 C334,38.6829609 332.656854,40.0261067 331,40.0261067 L242,40.0261067 C240.343146,40.0261067 239,38.6829609 239,37.0261067 L239,26.0261067 C239,24.3692524 240.343146,23.0261067 242,23.0261067 Z M496,23.0261067 L544,23.0261067 C545.656854,23.0261067 547,24.3692524 547,26.0261067 L547,37.0261067 C547,38.6829609 545.656854,40.0261067 544,40.0261067 L496,40.0261067 C494.343146,40.0261067 493,38.6829609 493,37.0261067 L493,26.0261067 C493,24.3692524 494.343146,23.0261067 496,23.0261067 Z M430,23.0261067 L477,23.0261067 C478.656854,23.0261067 480,24.3692524 480,26.0261067 L480,37.0261067 C480,38.6829609 478.656854,40.0261067 477,40.0261067 L430,40.0261067 C428.343146,40.0261067 427,38.6829609 427,37.0261067 L427,26.0261067 C427,24.3692524 428.343146,23.0261067 430,23.0261067 Z M177,289.328036 L397,289.328036 C398.104569,289.328036 399,290.223467 399,291.328036 L399,308.351873 C399,309.456442 398.104569,310.351873 397,310.351873 L177,310.351873 C175.895431,310.351873 175,309.456442 175,308.351873 L175,291.328036 C175,290.223467 175.895431,289.328036 177,289.328036 Z M137,255.289444 L435,255.289444 C436.104569,255.289444 437,256.184874 437,257.289444 L437,274.31328 C437,275.41785 436.104569,276.31328 435,276.31328 L137,276.31328 C135.895431,276.31328 135,275.41785 135,274.31328 L135,257.289444 C135,256.184874 135.895431,255.289444 137,255.289444 Z M35,365.993706 C35,363.788043 36.8000161,362 39.0017813,362 L534.998219,362 C537.208341,362 539,363.788278 539,365.993706 L539,690.383138 C539,692.588801 537.199984,694.376844 534.998219,694.376844 L39.0017813,694.376844 C36.7916585,694.376844 35,692.588566 35,690.383138 L35,365.993706 Z M38.1277704,720 L266.87223,720 C268.655267,720 269.30184,720.185651 269.953691,720.534265 C270.605543,720.88288 271.11712,721.394457 271.465735,722.046309 C271.814349,722.69816 272,723.344733 272,725.12777 L272,792.960765 C272,794.743803 271.814349,795.390375 271.465735,796.042227 C271.11712,796.694079 270.605543,797.205656 269.953691,797.55427 C269.30184,797.902885 268.655267,798.088536 266.87223,798.088536 L38.1277704,798.088536 C36.3447329,798.088536 35.6981604,797.902885 35.0463086,797.55427 C34.3944567,797.205656 33.8828796,796.694079 33.5342654,796.042227 C33.1856512,795.390375 33,794.743803 33,792.960765 L33,725.12777 C33,723.344733 33.1856512,722.69816 33.5342654,722.046309 C33.8828796,721.394457 34.3944567,720.88288 35.0463086,720.534265 C35.6981604,720.185651 36.3447329,720 38.1277704,720 Z M305.12777,720 L533.87223,720 C535.655267,720 536.30184,720.185651 536.953691,720.534265 C537.605543,720.88288 538.11712,721.394457 538.465735,722.046309 C538.814349,722.69816 539,723.344733 539,725.12777 L539,792.960765 C539,794.743803 538.814349,795.390375 538.465735,796.042227 C538.11712,796.694079 537.605543,797.205656 536.953691,797.55427 C536.30184,797.902885 535.655267,798.088536 533.87223,798.088536 L305.12777,798.088536 C303.344733,798.088536 302.69816,797.902885 302.046309,797.55427 C301.394457,797.205656 300.88288,796.694079 300.534265,796.042227 C300.185651,795.390375 300,794.743803 300,792.960765 L300,725.12777 C300,723.344733 300.185651,722.69816 300.534265,722.046309 C300.88288,721.394457 301.394457,720.88288 302.046309,720.534265 C302.69816,720.185651 303.344733,720 305.12777,720 Z" id="Combined-Shape" fill="#E1E5F0" fill-rule="nonzero"></path>
                    <ellipse id="Oval-2" fill="#F2F6FB" fill-rule="nonzero" cx="370.951386" cy="447.546287" rx="26.4370498" ry="26.5462873"></ellipse>
                    <path d="M286.5,230.15891 L286.5,226.15891 C292.062481,226.15891 297.526913,225.432699 302.795303,224.01388 L303.835474,227.876268 C298.22867,229.386225 292.414541,230.15891 286.5,230.15891 Z M319.974137,221.131777 L317.957826,217.677144 C322.709071,214.904061 327.077669,211.512475 330.946803,207.599012 L333.791295,210.411283 C329.675895,214.573832 325.028948,218.181516 319.974137,221.131777 Z M344.35492,196.469711 L340.877281,194.493344 C343.591238,189.717832 345.665732,184.600392 347.038229,179.257644 L350.912438,180.252888 C349.451445,185.940126 347.243268,191.387339 344.35492,196.469711 Z M352.994605,162.803276 L348.994923,162.85374 C348.924788,157.294993 348.128456,151.840133 346.640791,146.588374 L350.489362,145.49819 C352.072661,151.087554 352.920021,156.891961 352.994605,162.803276 Z M343.531821,129.440286 L340.103732,131.501403 C337.269052,126.78671 333.821131,122.462171 329.858007,118.644001 L332.633264,115.763385 C336.848593,119.824536 340.516118,124.424512 343.531821,129.440286 Z M318.560199,105.383827 L316.629055,108.886781 C311.820131,106.235668 306.676993,104.228092 301.315646,102.924936 L302.260399,99.0381064 C307.967432,100.425287 313.44212,102.56228 318.560199,105.383827 Z M284.787912,97.1805335 L284.889023,101.179255 C279.333537,101.31973 273.887917,102.186588 268.652647,103.743653 L267.512341,99.9096338 C273.084378,98.2524085 278.879372,97.3299351 284.787912,97.1805335 Z M251.548498,107.074194 L253.653698,110.47539 C248.975861,113.370778 244.695635,116.87412 240.928595,120.885996 L238.012589,118.147947 C242.019327,113.880794 246.572075,110.154395 251.548498,107.074194 Z M227.814208,132.355274 L231.34192,134.24081 C228.753937,139.082752 226.813547,144.251251 225.580002,149.630932 L221.681184,148.736944 C222.994258,143.010424 225.059774,137.508635 227.814208,132.355274 Z M220.048874,166.231501 L224.04598,166.079378 C224.257218,171.629775 225.194636,177.064257 226.820726,182.28114 L223.001935,183.471448 C221.271185,177.918792 220.273561,172.135275 220.048874,166.231501 Z M230.371529,199.337019 L233.745297,197.188137 C236.70065,201.828074 240.25848,206.063024 244.318046,209.77813 L241.617583,212.728977 C237.299726,208.777496 233.515437,204.272988 230.371529,199.337019 Z M255.953221,222.742985 L257.793106,219.191249 C262.666792,221.715937 267.859406,223.5892 273.256259,224.753399 L272.412789,228.663457 C266.668046,227.424212 261.1405,225.430121 255.953221,222.742985 Z M328.364768,634.843112 L293.667738,635 L293.765686,634.843112 L142.219531,634.843112 C132.832433,634.843112 129.2596,628.390068 134.237752,620.432446 L237.799656,454.887773 C242.778539,446.928982 251.020044,446.81656 256.212331,454.651371 L333.165696,571.734032 L360.389611,528.128045 C364.778412,521.098272 372.058474,520.987768 376.654904,527.888463 L439.681333,622.511051 C444.275606,629.408507 441.327248,634.39723 433.028246,634.140292 L386.938915,634.57826 L372.385745,634.644065 L372.506886,634.843112 C372.506886,634.843112 364.903209,634.843112 355.510041,634.843112 L328.364768,634.843112 Z" id="Object" fill="#3C41FF" fill-rule="nonzero"></path>
                    <path d="M138,457 C138,457 145.603677,457 154.996844,457 L368.287355,457 C377.674453,457 381.247286,463.453044 376.269134,471.410666 L272.70723,636.955339 C267.728347,644.91413 259.486841,645.026552 254.294555,637.191741 L164.739864,500.936471" id="Rectangle-2" fill="#444444" fill-rule="nonzero" opacity="0.176985679" transform="translate(255.047577, 546.035171) rotate(180.000000) translate(-255.047577, -546.035171) "></path>
                    <g id="Button" transform="translate(33.000000, 720.000000)"></g>
                    <g id="Buttons-" transform="translate(300.000000, 720.000000)">
                        <g id="Button"></g>
                    </g>
                </g>
            </g>
            <g id="Characters-standing-/-Man-standing-/-1" transform="translate(446.000000, 14.000000)">
                <g id="Man" transform="translate(255.000000, 36.000000)">
                    <g id="Legs" transform="translate(90.000000, 282.407103)" fill-rule="nonzero">
                        <path d="M403,628.592897 L300.5,628.592897 C298.1,628.592897 296,626.862128 296,624.785205 L296,623.40059 C296,621.323667 298,619.592897 300.5,619.592897 L403,619.592897 C405.4,619.592897 407.5,621.323667 407.5,623.40059 L407.5,624.785205 C407.5,626.862128 405.5,628.592897 403,628.592897 Z M167.5,619.592897 C169.985281,619.592897 172,621.607616 172,624.092897 C172,626.578179 169.985281,628.592897 167.5,628.592897 L4.5,628.592897 C2.01471863,628.592897 0,626.578179 0,624.092897 C0,621.607616 2.01471863,619.592897 4.5,619.592897 L167.5,619.592897 Z" id="Base" fill="#DE3190"></path>
                        <path d="M403.546202,619.622826 C403.366442,619.603082 403.184103,619.592897 403,619.592897 L300.843878,619.592897 L308.926963,568.579649 L380.526963,558.879649 L403.546202,619.622826 Z M168.09585,619.631998 C167.900895,619.606207 167.702002,619.592897 167.5,619.592897 L5.20823677,619.592897 C5.10070229,619.0453 5.04616354,618.355252 5.06176,617.461731 C5.17396145,616.763583 5.18792338,615.963705 5.40185484,615.167317 C6.68544363,610.388991 8.24106287,607.215657 12.7909895,604.394635 C17.3409161,601.573612 21.9855917,599.054289 26.8250012,596.838411 C44.6741413,588.448644 50.7732123,588.555103 62.5093196,580.858755 C67.3661814,577.643029 71.8318304,573.920398 76.0027609,569.892577 C78.7833811,567.207364 84.4604315,562.844928 93.0339121,556.805271 L170.130859,558.531821 L168.09585,619.631998 Z" id="Shoes" fill="#474961"></path>
                        <path d="M291.428658,10.0933435 C298.252971,25.2884596 316.419342,72.2829154 329.886595,166.713063 C330.992225,174.546167 332.04869,182.172081 333.057309,189.575012 L333.205832,189.413635 C353.404907,285.567447 367.396195,352.873958 375.179697,391.333166 C383.173838,430.833166 369.287157,429.49573 375.179697,462.682776 C378.577137,481.817308 392.482205,497.789101 391.323815,517.46671 C391.140839,520.574942 390.890075,526.796199 390.571525,536.13048 C390.002616,552.800859 377.083475,566.425607 360.466864,567.879372 L293.349152,573.751411 C275.193108,575.33986 259.187034,561.90917 257.598586,543.753126 C257.583952,543.58586 257.570595,543.418486 257.558516,543.251017 C256.514745,528.779767 256.052535,520.184998 256.171885,517.46671 C256.419169,511.834615 256.617348,506.705138 256.753273,502.029666 C253.738144,486.118209 250.594997,469.558505 248.066284,456.209476 C244.074498,449.271058 239.450033,439.727325 236.208994,424.508948 C234.076764,414.497012 230.067407,375.752464 224.180923,308.275302 C224.047616,307.367158 223.849507,304.579745 223.586595,299.913063 L212.969735,250.810655 C212.124498,256.436625 211.266049,262.127673 210.397077,267.86859 C207.352664,348.163046 204.960218,393.234291 203.219739,403.082325 C197.742181,434.075626 185.797346,442.062278 184.947594,451.847376 C184.115211,461.432457 184.841212,475.501976 186.513189,496.680154 C186.727333,499.392622 186.565357,507.998286 186.027261,522.497147 C186.021034,522.664936 186.013526,522.832674 186.004739,523.000348 C185.240273,537.587225 175.11457,549.463891 161.754289,553.113878 C153.097769,560.202076 140.095191,553.782489 105.151746,552.189892 C105.151746,552.189892 99.7744337,551.955459 92.6990027,551.155689 L84.0411192,550.701949 C78.9159345,550.433349 74.1003648,549.001005 69.8555768,546.661766 C65.7868968,545.288496 62.450694,543.588665 60.651746,541.489892 C59.151746,539.689892 58.251746,537.689892 58.251746,537.689892 C57.8336524,536.602849 57.5476316,535.539112 57.3547057,534.537661 C54.8101967,530.23766 53.2119493,525.305427 52.8467772,520.023035 C52.2026592,510.705557 51.7349297,504.496842 51.4435887,501.396888 C49.5991664,481.771694 62.9383558,465.324351 65.6659409,446.082906 C70.3966807,412.71043 56.5651347,414.53169 63.1758754,374.776761 C69.5526296,336.428954 80.126647,292.332375 94.8979277,242.487026 C106.078743,163.348666 119.990211,74.4991444 131.73174,45.013395 C131.929427,44.4862298 139.387336,23.5403476 149.344185,9 C149.608693,9.31627012 149.883816,9.6213365 150.169955,9.91417036 C151.261103,11.0529446 152.362721,11.8919016 153.471318,12.5309804 C155.681534,14.0090162 157.546647,14.5744521 157.546647,14.5744521 C157.546647,14.5744521 157.640775,14.5777391 157.731413,14.6809652 C157.731413,14.6809652 218.15408,33.2009678 279.81558,18.9442383 C279.81558,18.9442383 280.007326,18.8508733 280.007326,18.8508733 C280.007326,18.8508733 281.907338,18.4169184 284.215272,17.0966598 C285.271621,16.5331826 286.526696,15.6764622 287.691133,14.7165157 C289.154847,13.4286719 290.388769,11.8500484 291.428658,10.0933435 Z" fill="#A339FF" transform="translate(221.330714, 291.439487) rotate(-3.000000) translate(-221.330714, -291.439487) "></path>
                        <path d="M161.781752,20.572246 L187.57152,140.114386 L212.586716,255.808317 C211.756791,261.331532 210.914191,266.917143 210.061458,272.550775 C207.017045,352.845231 204.624599,397.916476 202.884121,407.76451 C197.406562,438.757812 185.461727,446.744464 184.611975,456.529561 C183.779592,466.114642 184.505593,480.184161 186.17757,501.362339 C186.391714,504.074807 186.229738,512.680471 185.691642,527.179332 C185.685415,527.347121 185.677908,527.51486 185.66912,527.682534 C184.904654,542.26941 174.778951,554.146077 161.41867,557.796064 C152.76215,564.884261 139.759572,558.464674 104.816127,556.872077 C104.816127,556.872077 99.4388149,556.637644 92.3633838,555.837875 L83.7055003,555.384134 C78.5803156,555.115535 73.7647459,553.68319 69.5199579,551.343952 C65.4512779,549.970681 62.1150751,548.27085 60.3161271,546.172077 C58.8161271,544.372077 57.9161271,542.372077 57.9161271,542.372077 C57.4980335,541.285034 57.2120127,540.221298 57.0190868,539.219846 C54.4745778,534.919845 52.8763305,529.987612 52.5111584,524.70522 C51.8670403,515.387742 51.3993108,509.179027 51.1079699,506.079074 C49.2635476,486.453879 62.6027369,470.006536 65.330322,450.765091 C70.0610618,417.392615 56.2295159,419.213875 62.8402566,379.458946 C69.2170107,341.111139 79.7910282,297.014561 94.5623089,247.169211 C105.743124,168.030851 119.654592,79.1813296 131.396121,49.6955803 C131.593808,49.1684151 139.051717,28.2225328 149.008567,13.6821852 C149.273074,13.9984554 149.548197,14.3035217 149.834336,14.5963556 C150.925484,15.7351298 152.027102,16.5740868 153.1357,17.2131656 C155.345915,18.6912014 157.211028,19.2566373 157.211028,19.2566373 C157.211028,19.2566373 157.305156,19.2599244 157.395794,19.3631505 C157.395794,19.3631505 158.938243,19.8359228 161.781752,20.572246 Z" id="Shadow-Legs" fill="#444444" opacity="0.176985679" transform="translate(131.760184, 287.372196) rotate(-3.000000) translate(-131.760184, -287.372196) "></path>
                    </g>
                    <g id="Body" transform="translate(0.140690, 0.725652)" fill-rule="nonzero">
                        <path d="M367.529645,162.957609 C367.644685,164.107079 367.757388,165.294418 367.867639,166.519169 L367.872875,166.819123 L368.146734,171.715089 C369.757088,226.195282 370.561357,250.684976 371.011413,260.278582 C371.011413,260.278582 370.934695,261.280074 371.055044,262.778202 C371.320177,267.174244 371.730237,285.269844 363.394453,293.416564 C362.281852,294.436137 361.073334,295.357369 360.047923,295.975359 C357.812249,297.414596 355.937552,297.947395 355.937552,297.947395 C355.937552,297.947395 355.750955,298.050667 355.750955,298.050667 C294.9201,315.514972 233.610978,300.182628 233.610978,300.182628 C232.574154,299.908991 231.574359,299.629369 229.671444,298.680109 C227.804433,297.74876 226.027157,296.376213 225.458004,295.841303 C216.937153,287.988817 217.067839,269.866729 217.179391,265.464111 C217.154958,264.064324 217.13576,262.964492 217.13576,262.964492 C217.242536,253.813721 217.204904,231.590336 216.955412,183.377944 C193.071645,181.16251 183.402516,174.273383 187.948025,162.710562 C198.273335,136.445143 205.112107,111.242472 246.047857,108.330402 C256.092034,103.322633 267.059228,101.646005 274.693118,101.13533 C279.115671,100.858104 282.413407,100.900557 283.733548,100.977529 C284.298575,100.967666 285.053689,101.054501 286.468002,101.129829 C287.882314,101.205158 289.484969,101.277198 291.275966,101.345952 C293.063472,101.214735 294.662637,101.086807 296.073459,100.962165 C297.484281,100.837524 298.141733,100.726033 298.800931,100.714527 C300.211753,100.589886 303.411827,100.434013 307.841362,100.556725 C308.897561,100.590419 310.018073,100.643367 311.191892,100.72186 C311.783346,100.58589 312.38385,100.452156 312.993414,100.320602 C355.067582,91.2402954 368.370467,114.229399 385.452153,137.34729 C392.289266,146.600454 386.315097,155.137227 367.529645,162.957609 Z" id="T-shirt" fill="#DE3190"></path>
                        <path d="M245.413249,108.326838 C239.567854,111.273191 234.046339,115.356107 229.691051,121.004086 C227.757088,123.538225 225.280786,127.382028 223.39918,132.915709 C223.130629,133.720518 222.860332,134.425343 222.59178,135.230153 C221.962252,136.9414 220.612513,140.565508 219.456353,144.486283 C218.214747,148.908626 217.231293,157.327071 216.587946,169.040083 L216.593182,169.340038 L216.490357,174.242579 C216.506898,177.33047 216.522659,180.321745 216.537656,183.219204 C193.243276,180.92412 183.843077,174.060709 188.337056,162.628969 C198.575698,136.584018 205.386085,111.584048 245.413249,108.326838 Z" id="Shadow-T-shirt" fill="#444444" opacity="0.176985679"></path>
                        <path d="M360.62313,407.588053 C359.789227,408.235227 359.295526,408.523731 359.295526,408.523731 C346.168705,406.32064 364.93855,357.699665 370.532959,343.937877 L323.4129,175.381266 C352.664207,169.196913 371.959578,162.455836 381.299013,155.158035 C406.703311,257.377706 420.43033,322.939263 422.480069,351.842707 C422.637088,352.759494 422.732649,353.741876 422.766752,354.78985 C423.314092,371.609539 417.725122,397.35081 405.999843,432.013664 C405.906884,432.217032 375.410871,447.190449 353.956011,434.531501 L360.62313,407.588053 Z M232.303393,12.9745259 C232.345974,12.9187377 232.387925,12.8622464 232.429193,12.8049114 C241.205466,2.96839633 257.363608,3.25897394 264.639448,4.82810208 C265.524064,5.02162989 268.664723,5.75392973 273.208165,6.53311723 C275.673564,6.99334277 277.662608,7.20239969 278.845582,7.42728604 C293.601241,9.58147328 299.657071,8.4080518 306.697871,13.1701029 C308.017032,14.012608 311.011351,16.1372385 313.430163,19.9107449 C320.252054,30.5822865 317.024498,43.1135627 316.130029,46.8404816 C313.148265,57.98988 305.852721,64.2616454 303.560545,66.936702 C301.855022,68.9594993 299.487506,71.2175004 297.184426,73.2573993 L299.41352,105.532152 C299.437949,106.231725 299.162562,106.941769 298.573397,107.262526 C296.03082,108.95229 292.395893,110.880321 287.833595,112.04025 C279.60496,114.228758 272.460426,113.077397 268.420983,112.017726 C267.614491,111.845768 266.986936,111.067195 266.959017,110.267682 L265.752132,89.1029882 C264.876287,89.3316427 263.941971,89.5688106 262.946444,89.8167116 C254.158517,92.1106897 254.687137,91.8645973 254.069518,92.0007846 C247.636784,92.9334904 242.287272,92.1701323 241.313656,91.8666994 C237.764735,91.1920404 234.299138,87.8112666 231.450858,82.3838081 C227.586851,75.1402283 224.617313,64.1697295 223.756876,51.3093388 C223.547219,49.477388 223.635918,47.6767958 223.724617,45.8762035 L225.197868,28.0324502 C225.516529,24.0439098 226.829713,20.1598978 229.195059,16.7886759 C230.157922,15.2810636 231.089427,14.0718079 232.19893,13.0823623 C232.233694,13.0462786 232.268516,13.0103333 232.303393,12.9745259 Z M188.033292,172.507905 C191.213464,178.250221 200.854653,181.868191 216.956858,183.361815 C217.131403,217.091438 217.202255,238.100821 217.192509,250.812788 C193.178125,280.3885 177.109936,275.77429 177.109936,275.77429 C165.918773,276.258702 157.360917,271.169565 154.131604,269.215463 C125.959816,252.225642 72.4797607,157.670996 63.256081,141.107386 C51.0796738,139.439529 39.7121833,136.24011 29.1536094,131.509127 C12.3141806,123.963881 5.52858083,116.805286 8.79681,110.033342 L95.0950637,115.605215 L95.3316997,115.441149 L170.174526,194.208672 C178.018268,185.875304 183.346602,179.069293 188.033292,172.507905 Z" id="Skin" fill="#F2A98A"></path>
                        <path d="M86.8677416,119.142553 C92.4357506,115.66621 95.5441816,105.848884 96.1930344,89.6905766 C129.867296,87.7509983 150.844178,86.5806976 163.539235,85.9251369 C194.33123,108.358737 190.564287,124.646394 190.564287,124.646394 C191.633736,135.796869 186.999457,144.60934 185.217042,147.936498 C169.724903,176.958856 78.0987701,235.314226 62.0405904,245.392138 C61.0122833,257.639147 58.412177,269.158503 54.2402712,279.950207 C47.586673,297.161446 40.7930192,304.312398 33.85931,301.403064 L34.9070453,214.93147 L34.7308199,214.703745 L109.473423,135.841115 C100.740966,128.444256 93.6654196,123.479424 86.8677416,119.142553 Z" id="Shadow-Skin" fill="#8C2A00" opacity="0.2" transform="translate(112.290954, 193.979607) rotate(93.000000) translate(-112.290954, -193.979607) "></path>
                        <polygon id="Shadow" fill="#482D1F" transform="translate(271.737740, 93.998998) rotate(-2.000000) translate(-271.737740, -93.998998) " points="264.294159 89.1909966 279.181321 85.0069999 266.494159 102.990997"></polygon>
                        <path d="M302.303775,45.9121288 C302.155715,43.4912332 301.399636,41.0697608 299.864352,38.9296682 C296.664352,34.4296682 290.664352,31.9296682 285.864352,33.5296682 C283.164352,34.4296682 281.364352,36.5296682 281.164352,36.7296682 C278.464352,40.1296682 277.864352,43.7296682 277.864352,43.7296682 L277.623339,46.1027234 C240.549972,36.2516025 231.83559,19.816725 229.864352,18.9296682 C230.364352,18.2296682 230.864352,17.6296682 231.164352,17.1296682 C238.964352,6.42966817 255.364352,5.02966817 262.864352,5.82966817 C263.864352,5.92966817 267.064352,6.32966817 271.764352,6.62966817 C274.364352,6.82966817 276.364352,6.82966817 277.564352,6.92966817 C292.764352,7.52966817 298.764352,5.72966817 306.364352,9.72966817 C307.764352,10.4296682 311.064352,12.2296682 313.864352,15.7296682 C322.564352,26.3296682 320.464352,39.2296682 319.464352,42.2296682 C318.764352,44.3296682 317.464352,45.7296682 317.464352,45.7296682 C312.11396,45.4936214 307.165975,45.6599829 302.303775,45.9121288 Z M223.015789,46.0450778 C222.006692,45.8976878 221.639066,44.6151702 222.301472,43.8794944 C223.15837,43.0334884 224.714308,42.1508472 226.711567,42.0461753 C230.805948,41.8315979 235.341225,44.2976194 230.810333,45.7367203 C228.150668,46.577068 224.934119,46.3450913 223.015789,46.0450778 Z M243.624192,45.6659978 C242.615095,45.5186078 242.24747,44.2360902 243.009738,43.4951808 C243.866636,42.6491748 245.422575,41.7665336 247.519697,41.6566281 C251.614078,41.4420507 256.154588,44.0079352 251.618462,45.3471731 C248.764305,46.297851 245.542523,45.9660113 243.624192,45.6659978 Z" id="Hair" fill="#482D1F" transform="translate(271.199296, 25.980530) rotate(6.000000) translate(-271.199296, -25.980530) "></path>
                        <path d="M228.428991,49.0040402 C228.4181,50.706944 228.265051,53.5188075 227.318758,54.569773 C225.699592,56.1566884 223.240927,51.2786799 224.376904,48.1148916 C224.808182,46.7905052 225.496755,46.5541441 226.300893,46.6121383 C227.509715,46.7490611 228.366188,47.8056848 228.428991,49.0040402 Z M246.293993,47.8675007 C246.482827,49.5599373 246.629368,52.3561 245.693541,53.6067914 C244.284568,55.3829656 241.237193,50.7360845 242.068347,47.488134 C242.399762,46.1689812 243.083102,45.8327572 243.882006,45.7908884 C245.080361,45.7280853 246.131327,46.6743789 246.293993,47.8675007 Z" id="Eyes" fill="#482D1F" transform="translate(235.260452, 50.333537) rotate(6.000000) translate(-235.260452, -50.333537) "></path>
                        <path d="M237.292419,68.98038 C237.992419,68.78038 239.692419,68.28038 239.992419,67.18038 C239.992419,66.98038 240.092419,66.68038 239.992419,66.48038 C239.592419,65.78038 238.392419,66.18038 236.592419,66.28038 C233.392419,66.48038 230.792419,66.18038 230.792419,66.18038 C230.792419,66.18038 231.492419,68.18038 231.992419,68.78038 C232.992419,70.28038 236.192419,69.28038 237.292419,68.98038 Z" id="Mouth" fill="#482D1F" transform="translate(235.414641, 67.830629) rotate(3.000000) translate(-235.414641, -67.830629) "></path>
                        <path d="M231.322805,48.7696957 L231.332489,48.6308663 L231.322805,48.6999433 L231.322805,48.7696957 Z M229.832489,59.3308663 C229.644192,60.4586133 230.518532,61.5661106 231.658406,61.7560897 C231.907941,61.7792255 231.907941,61.7792255 232.069761,61.7916955 C233.756897,61.9214055 234.811927,61.9696957 236.622805,61.9696957 C237.17509,61.9696957 237.622805,61.5219805 237.622805,60.9696957 C237.622805,60.417411 237.17509,59.9696957 236.622805,59.9696957 C234.8688,59.9696957 233.862938,59.9236559 232.223072,59.7975802 L231.899502,59.7726412 C231.896775,59.7682304 231.806006,59.6532552 231.809199,59.6340947 L233.313121,48.9085251 L233.322805,48.7696957 L233.322805,42.8696957 C233.322805,42.317411 232.87509,41.8696957 232.322805,41.8696957 C231.77052,41.8696957 231.322805,42.317411 231.322805,42.8696957 L231.322805,48.6999433 L229.832489,59.3308663 Z" id="Nose" fill="#482D1F" transform="translate(233.714843, 51.919696) rotate(3.000000) translate(-233.714843, -51.919696) "></path>
                        <path d="M299.176398,47.1199576 C299.634231,50.0500864 299.106752,53.2400781 297.776656,55.8052636 C296.160161,59.0380111 293.884642,60.8010262 290.945352,62.1576214 C290.4439,62.3890608 290.225012,62.9831868 290.456451,63.4846389 C290.68789,63.986091 291.282016,64.2049796 291.783469,63.9735401 C293.0759,63.3770331 294.101773,62.8012025 295.289371,61.881082 C297.038737,60.5257174 298.5028,58.8248693 299.558838,56.7127943 C301.07756,53.7840644 301.676227,50.163554 301.152422,46.8112039 C301.067162,46.2655399 300.555697,45.8923087 300.010033,45.9775687 C299.464369,46.0628287 299.091138,46.5742936 299.176398,47.1199576 Z" id="Shadow" fill="#482D1F" transform="translate(295.851287, 55.015629) rotate(6.000000) translate(-295.851287, -55.015629) "></path>
                        <path d="M376.393582,402.590813 C376.552068,401.777687 377.339715,401.246996 378.152841,401.405481 C378.965967,401.563967 379.496657,402.351614 379.338172,403.16474 C378.342741,408.27189 377.442709,412.215835 375.341552,420.977397 C373.250267,429.697799 372.356817,433.612899 371.372238,438.664372 C371.213753,439.477498 370.426106,440.008189 369.61298,439.849703 C368.799854,439.691218 368.269163,438.903571 368.427649,438.090445 C369.423079,432.983295 370.323112,429.03935 372.424268,420.277788 C374.515554,411.557386 375.409004,407.642286 376.393582,402.590813 Z M396.676108,398.190453 C396.884632,397.388699 397.703624,396.907792 398.505378,397.116316 C399.307132,397.32484 399.78804,398.143832 399.579515,398.945586 C398.151063,404.437831 397.140173,408.71967 394.963645,418.274448 C392.780452,427.858481 391.764695,432.160934 390.326113,437.692129 C390.117589,438.493882 389.298597,438.97479 388.496843,438.766266 C387.695089,438.557741 387.214182,437.738749 387.422706,436.936995 C388.851158,431.44475 389.862048,427.162911 392.038576,417.608133 C394.221769,408.0241 395.237526,403.721648 396.676108,398.190453 Z" id="Fingers" fill="#482D1F"></path>
                    </g>
                </g>
            </g>
            <g id="UI-/-Icons-/-User" transform="translate(696.000000, 54.000000)">
                <g id="Group-9">
                    <g id="Group-11" fill-rule="nonzero">
                        <ellipse id="Oval" fill="#474BFF" cx="64" cy="64.7599319" rx="64" ry="64.5"></ellipse>
                        <path d="M64.173516,63.2538577 C57.1123411,63.2538577 51.3881279,57.6005891 51.3881279,50.6269289 C51.3881279,43.6532686 57.1123411,38 64.173516,38 C71.2346909,38 76.9589041,43.6532686 76.9589041,50.6269289 C76.9589041,57.6005891 71.2346909,63.2538577 64.173516,63.2538577 Z M64.173516,69.5673221 C76.9719026,69.5673221 87.347032,79.8138645 87.347032,92.4536307 L41,92.4536307 C41,79.8138645 51.3751294,69.5673221 64.173516,69.5673221 Z" id="Color" fill="#F2F6FB"></path>
                    </g>
                </g>
            </g>
            <g id="Interior-/-Chair-/-Chair-1" transform="translate(206.500000, 703.000000) scale(-1, 1) translate(-206.500000, -703.000000) translate(41.000000, 445.000000)" fill="#D8DEED">
                <g id="Chair-">
                    <path d="M294.7,293.613218 L294.7,293.8 C294.7,296.2 292.6,298.2 290.2,298.2 L214.698496,298.2 L241.3,347 C260.3,381.8 279.2,416.5 298.1,451.3 L329.4,508.7 C330.5,510.7 329.6,513.3 327.5,514.5 L327.1,514.7 C325,515.9 322.3,515.2 321.3,513.3 L204.2,298.2 L126.2,298.2 L9.1,513.3 C8.1,515.2 5.4,515.8 3.3,514.7 L2.9,514.5 C0.8,513.3 -0.1,510.7 1,508.7 L32.3,451.3 C51.3,416.5 70.2,381.8 89.1,347 L115.701504,298.2 L15.6,298.2 C13.1,298.2 11.1,296.2 11.1,293.8 L11.1,293.3 C11.1,290.9 13.2,288.9 15.6,288.9 L83.6,288.9 C127.9,288.9 172.3,288.9 216.7,288.9 L285.870787,288.9 L294.3,220.7 C300.1,174.3 305.8,127.8 311.6,81.3 L321.1,4.5 C321.4,1.8 323.7,-0.2 326.2,0.1 L326.7,0.2 C329.1,0.5 330.8,3 330.5,5.5 L294.8,293.1 C294.77408,293.274961 294.740601,293.446142 294.7,293.613218 Z" id="Combined-Shape" fill-rule="nonzero"></path>
                </g>
            </g>
            <g id="Characters-sitting-/-Woman-sitting/-8" transform="translate(0.000000, 205.000000)">
                <g id="Woman" transform="translate(-19.000000, -31.000000)">
                    <g id="Legs" transform="translate(102.350995, 414.509229)" fill-rule="nonzero">
                        <path d="M211.379733,363.881917 C210.765852,363.573117 210.077843,363.398301 209.356535,363.398301 L155.282738,363.398301 L56.0474086,289.466004 L93.6490047,236.790771 L153.849005,280.490771 C157.149005,291.690771 160.549005,302.890771 163.949005,314.190771 C165.749005,320.090771 167.549005,325.890771 169.349005,331.690771 C174.949005,333.890771 179.749005,335.890771 183.149005,337.390771 C189.649005,340.190771 195.149005,342.790771 201.149005,346.690771 C201.149005,346.690771 206.349005,349.890771 209.249005,354.490771 C210.149005,355.990771 210.949005,357.690771 211.449005,359.490771 C211.649005,360.290771 211.649005,361.090771 211.749005,361.790771 C211.717741,362.447314 211.569185,363.182051 211.379733,363.881917 Z M398.680999,363.715433 C398.351908,363.638813 398.008953,363.598301 397.656535,363.598301 L236.656535,363.598301 C236.355126,363.598301 236.060637,363.627934 235.775824,363.684446 L234.21231,301.344239 L309.819993,301.12467 C319.060141,307.164327 325.070524,311.526762 327.851145,314.211976 C332.022075,318.239797 336.487724,321.962427 341.344586,325.178153 C353.080693,332.874502 359.179764,332.768042 377.028904,341.15781 C381.868314,343.373688 386.512989,345.893011 391.062916,348.714033 C395.612843,351.535056 397.168462,354.70839 398.452051,359.486716 C398.665982,360.283104 398.679944,361.082982 398.792145,361.78113 C398.805929,362.57077 398.764936,363.201499 398.680999,363.715433 Z" id="Shoes" fill="#474961"></path>
                        <path d="M151.640413,371.592049 C151.541404,371.529238 151.444185,371.462156 151.349005,371.390771 L50.9490047,296.590771 C48.9490047,295.090771 48.5490047,292.190771 50.0490047,290.190771 C51.5490047,288.190771 54.4490047,287.790771 56.4490047,289.290771 L155.775208,363.290771 L209.849005,363.290771 C212.349005,363.290771 214.449005,365.390771 214.449005,367.890771 C214.449005,370.390771 212.349005,372.490771 209.849005,372.490771 L154.349005,372.490771 C153.331974,372.490771 152.397691,372.159778 151.640413,371.592049 Z M237.149005,363.490771 L398.149005,363.490771 C400.634286,363.490771 402.649005,365.505489 402.649005,367.990771 C402.649005,370.476052 400.634286,372.490771 398.149005,372.490771 L237.149005,372.490771 C234.663723,372.490771 232.649005,370.476052 232.649005,367.990771 C232.649005,365.505489 234.663723,363.490771 237.149005,363.490771 Z" id="Base" fill="#FF5645"></path>
                        <path d="M343.666029,109.208508 C336.214689,148.375119 333.166163,205.780129 340.473632,241.914656 C340.473632,241.914656 348.06202,304.014656 342.745877,304.414656 C341.457115,304.514656 327.747107,305.114656 326.29725,305.214656 C290.211915,307.614656 227.545864,312.414656 218.202339,312.414656 C211.973323,312.414656 208.858815,308.414656 208.858815,300.414656 L206.82615,278.933645 L206.82615,278.759101 C199.934612,286.982813 192.780511,295.509275 185.363848,304.338484 C174.330062,307.613472 157.640522,302.922196 135.295229,290.264656 C112.949937,277.607116 95.6540843,265.129121 83.4076725,252.830672 C77.5076725,249.030672 63.1490047,228.014656 66.9490047,222.514656 L92.0490047,185.914656 L107.049005,164.014656 C111.249005,157.814656 114.419513,153.704207 118.919513,147.204207 C118.919513,147.104207 119.725177,145.914656 119.725177,145.814656 C118.125177,145.814656 119.949005,144.514656 108.549005,144.414656 C97.1490047,144.314656 35.7490047,143.014656 12.2490047,109.114656 C2.8744735,95.5913959 2.14900473,80.6146559 1.44900473,73.9146559 C-1.15099527,47.8479892 5.72556723,26.7233147 22.0786922,10.5406325 C26.4589006,7.32331475 29.6823381,5.41465589 31.7490047,4.81465589 C35.0490047,3.81465589 52.4490047,3.31465589 55.8490047,3.11465589 L125.649005,2.21465589 C158.864124,1.77325896 186.595962,1.39761757 208.844517,1.08773173 L208.858815,0.914655893 L208.844517,1.08773173 C253.802455,0.461541478 276.370617,0.103849532 276.549005,0.0146558925 C276.949005,-0.185344107 320.09002,1.61465589 331.69002,8.31465589 C353.908226,21.3323711 365.59253,62.3529234 343.666029,109.208508 Z" fill="#FFCB3D"></path>
                        <path d="M343.447229,109.600463 C336.026206,148.761792 333.00265,206.020109 340.296487,242.087228 C340.296487,242.087228 347.884875,304.187228 342.568732,304.587228 C341.27997,304.687228 327.569962,305.287228 326.120105,305.387228 C290.03477,307.787228 227.368719,312.587228 218.025194,312.587228 C211.796178,312.587228 208.68167,308.587228 208.68167,300.587228 L206.652306,279.141099 C292.802351,176.33658 337.893908,120.874689 341.926978,112.755427 C342.450739,111.701006 342.957403,110.649268 343.447229,109.600463 Z M208.641155,1.57764406 L208.68167,1.0872275 L208.641155,1.57764406 C208.641155,1.57764406 208.641155,1.57764406 208.641155,1.57764406 Z M246.409201,1.03682061 C246.390003,1.0371068 246.370796,1.03739309 246.35158,1.03767949 L244.928101,0.787227501 L245.089196,0.787227501 C245.530763,0.870703472 245.970764,0.953901176 246.409201,1.03682061 Z" id="Shadow-Leg" fill="#8C2A00" opacity="0.2"></path>
                        <path d="M165.080639,79.1116805 C160.146733,86.5747312 154.950701,93.8258794 142.334415,111.084359 C129.675701,128.400879 124.4634,135.674731 119.480639,143.211681 C118.871482,144.133094 119.124616,145.373866 120.046029,145.983022 C120.967443,146.592178 122.208214,146.339044 122.817371,145.417631 C127.751277,137.954581 132.947309,130.703432 145.563594,113.444952 C158.222309,96.1284324 163.43461,88.8545805 168.417371,81.3176312 C169.026527,80.3962181 168.773393,79.1554463 167.85198,78.5462898 C166.930567,77.9371333 165.689795,78.1902674 165.080639,79.1116805 Z" id="Shadow" fill="#482D1F"></path>
                    </g>
                    <g id="Body" transform="translate(280.324447, 281.931901) rotate(38.000000) translate(-280.324447, -281.931901) translate(84.824447, 76.931901)">
                        <g id="Brush" transform="translate(269.000000, 30.000000)" fill-rule="nonzero">
                            <path d="M20.7763573,44.7213694 C25.0841958,44.7213694 28.5763889,48.2135625 28.5763889,52.521401 C28.5763889,52.5872109 28.5755561,52.6530181 28.5738905,52.7188069 L26.9282074,117.723291 C26.8437283,121.060214 24.1143492,123.721369 20.7763573,123.721369 C17.4383654,123.721369 14.7089863,121.060214 14.6245072,117.723291 L12.9788241,52.7188069 C12.8697998,48.4123482 16.2724927,44.832892 20.5789514,44.7238678 C20.6447402,44.7222022 20.7105474,44.7213694 20.7763573,44.7213694 Z" id="Rectangle" fill="#474961"></path>
                            <path d="M20.4324482,58.1706611 C31.4781432,58.1706611 40.4324482,49.3946337 40.4324482,38.5688552 C40.4324482,33.3647938 31.6574292,29.3749808 24.7249623,18.7046442 C23.1054235,16.2118773 21.7788285,11.1746785 20.7451771,3.5930479 L20.7451459,3.59305216 C20.670542,3.045847 20.1664661,2.662728 19.619261,2.73733192 C19.3521157,2.77375351 19.1109977,2.91650867 18.9505937,3.13321975 C6.60516337,19.8123065 0.432448198,31.624185 0.432448198,38.5688552 C0.432448198,49.3946337 9.3867532,58.1706611 20.4324482,58.1706611 Z" id="Oval" fill="#F2F6FB"></path>
                            <path d="M20.5,42.8893805 C23.1012845,42.8893805 25.8454633,35.4847404 27.9545455,36.5900957 C35.0250378,40.2956917 41,48.1067686 41,39.3406874 C41,33.8697511 32.0056055,29.6753322 24.899827,18.4577989 C23.2350462,15.8296936 21.8722548,10.5113314 20.8114529,2.50271232 L20.8114221,2.50271639 C20.7389035,1.95523071 20.2362907,1.57019381 19.688805,1.64271242 C19.4161102,1.6788329 19.1703374,1.82569215 19.0093309,2.0487259 C6.33644363,19.603799 0,32.0344528 0,39.3406874 C0,45.8876235 4.19664652,46.006461 9.55614125,42.8893805 C11.4294888,41.7998422 11.0192722,38.9131692 13.0454545,36.5900957 C15.299368,34.0059222 17.9676143,42.8893805 20.5,42.8893805 Z" id="Paint" fill="#474BFF"></path>
                        </g>
                        <path d="M195.706435,201.743768 C220.565251,210.372729 236.308912,235.887757 231.662699,262.867238 L210.79029,380.736395 L95.3043284,382.804567 C88.6932926,381.617941 84.0315088,378.851274 81.3189768,374.504567 C77.250179,367.984507 78.3587697,359.720742 78.9130643,356.538327 L99.7556833,239.992265 C104.906782,210.417859 132.795437,190.50768 162.340189,195.18865 L164.360872,185.682084 C164.590525,184.601652 165.652558,183.911959 166.73299,184.141612 L196.077418,190.378962 C197.15785,190.608615 197.847543,191.670649 197.61789,192.751081 L195.706435,201.743768 Z" id="Shirt" fill="#FF5645" fill-rule="nonzero" transform="translate(155.410099, 283.451032) rotate(-38.000000) translate(-155.410099, -283.451032) "></path>
                        <mask id="mask-2" fill="white">
                            <use xlink:href="#path-1"></use>
                        </mask>
                        <use id="Skin" fill="#DB9E75" fill-rule="nonzero" transform="translate(195.741096, 196.187706) scale(-1, 1) rotate(39.000000) translate(-195.741096, -196.187706) " xlink:href="#path-1"></use>
                        <polygon id="Shadow" fill="#482D1F" fill-rule="nonzero" transform="translate(123.038741, 182.108940) scale(-1, 1) rotate(39.000000) translate(-123.038741, -182.108940) " points="119.783459 188.188129 127.9878 176.029786 118.089683 180.569068"></polygon>
                        <path d="M136.263801,128.009186 C136.379606,126.798158 137.31439,125.830594 138.511466,125.746886 C139.309518,125.691081 140.035715,126.041277 140.432643,127.416939 C141.354159,130.560315 138.58259,135.365355 137.160195,133.660423 C136.078923,132.533102 136.182875,129.718996 136.263801,128.009186 Z M118.465307,128.652313 C118.581112,127.441285 119.515896,126.47372 120.712972,126.390013 C121.511024,126.334207 122.237221,126.684404 122.634149,128.060066 C123.555665,131.203442 120.784096,136.008481 119.361701,134.30355 C118.280429,133.176229 118.284624,130.369099 118.465307,128.652313 Z" id="Eyes" fill="#482D1F" fill-rule="nonzero" transform="translate(129.495607, 130.200414) rotate(-38.000000) translate(-129.495607, -130.200414) "></path>
                        <path d="M139.6714,146.443575 C140.3714,146.243575 142.0714,145.643575 142.3714,144.543575 C142.3714,144.343575 142.4714,144.043575 142.3714,143.843575 C141.9714,143.243575 140.6714,143.543575 138.8714,143.743575 C135.6714,144.043575 133.0714,143.743575 133.0714,143.743575 C133.0714,143.743575 133.8714,145.743575 134.3714,146.243575 C135.3714,147.843575 138.5714,146.743575 139.6714,146.443575 Z" id="Mouth" fill="#482D1F" fill-rule="nonzero" transform="translate(137.743622, 145.290341) scale(-1, 1) rotate(42.000000) translate(-137.743622, -145.290341) "></path>
                        <path d="M32.8620044,152.351421 C31.8620044,152.151421 31.4620044,150.951421 32.1620044,150.251421 C33.0620044,149.451421 34.5620044,148.451421 36.5620044,148.351421 C40.6620044,148.151421 45.1620044,150.551421 40.7620044,151.951421 C37.9620044,152.951421 34.7620044,152.651421 32.8620044,152.351421 Z M52.2620044,152.351421 C51.2620044,152.151421 50.8620044,150.951421 51.6620044,150.251421 C52.5620044,149.451421 54.0620044,148.451421 56.1620044,148.351421 C60.2620044,148.151421 64.7620044,150.651421 60.3620044,151.951421 C57.4620044,152.951421 54.2620044,152.651421 52.2620044,152.351421 Z M106.027293,177.814492 C102.16416,175.601122 99.385455,171.894895 97.6911787,166.695813 C99.4751367,166.053064 102.199684,164.744185 104.29471,162.023865 C107.107423,158.371653 108.42785,152.995179 106.163677,148.006841 C104.109698,143.207761 98.9176737,139.674648 94.1451864,140.325313 C91.4593538,140.666346 89.4407357,142.274195 89.1516141,142.489622 C85.9869765,145.158905 84.7563702,148.427789 84.7563702,148.427789 L82.9823723,154.053704 C79.3834975,151.883087 71.8419885,143.224126 60.3578454,128.076819 C54.5461217,127.78627 50.062456,127.616907 46.9068483,127.56873 C42.1734367,127.496464 37.1576574,128.322315 35.2032729,127.692782 C35.3637358,128.020542 35.5239913,128.350134 35.6840614,128.681337 C35.304142,128.114231 35.1086436,127.797878 35.1086436,127.797878 C34.9930798,127.503523 36.5123831,125.921841 36.501916,125.722115 C45.4925542,111.932684 63.8145771,111.873702 67.2308519,112.095212 C67.6303037,112.074277 68.0349891,112.153206 68.4292073,112.032409 C74.0529343,112.338505 78.7517267,112.192389 81.9525748,112.124777 C97.1474445,111.628859 102.934687,109.322818 110.823011,112.714623 C112.257727,113.340394 115.642176,114.865355 118.721378,118.208784 C120.497823,120.077328 121.873804,122.097552 122.936965,124.16341 C131.613401,123.271904 138.090243,127.16297 142.367491,135.83661 C148.078823,147.418365 141.354339,158.740601 132.347068,163.806814 C129.104402,173.867237 118.82706,181.667383 109.953332,179.456913 C108.356456,179.059126 107.047776,178.511653 106.027293,177.814492 Z" id="Hair" fill="#482D1F" fill-rule="nonzero" transform="translate(88.144457, 145.366362) scale(-1, 1) rotate(42.000000) translate(-88.144457, -145.366362) "></path>
                        <path d="M127.519298,129.425063 L127.524954,129.279733 L127.516828,129.352192 L127.519298,129.425063 Z M126.324954,139.979733 L126.318724,140.091184 C126.318724,141.182537 127.065574,142.196119 128.154325,142.377578 C128.354105,142.39686 128.46567,142.404779 128.577419,142.412049 C129.635056,142.480852 130.39429,142.491184 133.118724,142.491184 C133.671009,142.491184 134.118724,142.043469 134.118724,141.491184 C134.118724,140.938899 133.671009,140.491184 133.118724,140.491184 C130.442463,140.491184 129.704488,140.481142 128.707252,140.416268 C128.603361,140.409509 128.499649,140.402147 128.39542,140.394129 C128.417906,140.394239 128.334194,140.278182 128.320572,140.130607 L129.512494,129.502635 L129.51815,129.357305 L129.31815,123.457305 C129.299439,122.905337 128.836813,122.473047 128.284845,122.491758 C127.732877,122.510469 127.300587,122.973095 127.319298,123.525063 L127.516828,129.352192 L126.324954,139.979733 Z" id="Nose" fill="#482D1F" fill-rule="nonzero" transform="translate(130.218724, 132.491178) scale(-1, 1) rotate(42.000000) translate(-130.218724, -132.491178) "></path>
                        <path d="M143.437953,234.499321 L142.455458,226.497536 C142.354498,225.675284 141.606087,225.090561 140.783835,225.191521 C139.961582,225.292481 139.376859,226.040892 139.477819,226.863144 L140.460315,234.86493 C140.561275,235.687182 141.309686,236.271905 142.131938,236.170945 C142.95419,236.069985 143.538913,235.321574 143.437953,234.499321 Z" id="Shadow" fill="#482D1F" fill-rule="nonzero" transform="translate(141.457886, 230.681233) scale(-1, 1) rotate(45.000000) translate(-141.457886, -230.681233) "></path>
                        <path d="M224.449421,166.855016 C226.167224,170.355744 227.859489,174.907777 229.526215,180.511115 C231.19294,186.114453 232.152398,192.708588 232.404588,200.293519 L222.601676,201.894727 C223.492276,197.046444 224.108191,193.57361 224.449421,191.476225 C225.092657,187.522555 225.791139,184.02949 225.791139,181.289169 C225.791139,176.376113 225.3439,171.564728 224.449421,166.855016 Z M212.129305,261.090565 L233.988436,253.900542 L234.596059,273.318096 C270.291676,284.016059 295.297672,292.913279 309.614046,300.009754 C312.497849,301.439224 314.288546,302.461475 314.986137,303.076506 C315.280513,303.349791 315.511473,303.586413 315.679016,303.786371 C316.089548,304.276327 315.679016,304.779622 314.377956,304.871698 C313.510583,304.933082 276.745355,305.422464 204.082273,306.339844 L212.129305,261.090565 Z" id="Shadow-Arms" fill="#8C2A00" fill-rule="nonzero" opacity="0.2" transform="translate(259.957085, 236.597430) rotate(-38.000000) translate(-259.957085, -236.597430) "></path>
                    </g>
                </g>
            </g>
        </g>
    </g>
</svg>