<?xml version="1.0" ?><!DOCTYPE svg  PUBLIC '-//W3C//DTD SVG 20010904//EN'  'http://www.w3.org/TR/2001/REC-SVG-20010904/DTD/svg10.dtd'><svg height="256.000000pt" preserveAspectRatio="xMidYMid meet" version="1.0" viewBox="0 0 256.000000 256.000000" width="256.000000pt" xmlns="http://www.w3.org/2000/svg"><g fill="#000000" stroke="none" transform="translate(0.000000,256.000000) scale(0.100000,-0.100000)"><path d="M1183 2451 c-155 -86 -506 -410 -737 -681 -105 -123 -192 -247 -202 -286 -7 -27 -5 -30 165 -217 64 -70 118 -132 119 -138 2 -5 -5 -9 -15 -9 -27 0 -312 -98 -356 -123 -42 -23 -77 -72 -77 -106 0 -32 51 -78 95 -87 42 -8 153 13 405 77 l154 39 95 -94 94 -94 -31 -119 c-61 -232 -93 -395 -86 -437 8 -47 52 -96 86 -96 26 0 63 23 90 55 21 25 71 156 113 292 l31 103 150 -140 c82 -77 159 -143 172 -146 12 -4 37 -1 55 6 43 17 156 99 240 174 102 92 560 567 628 653 64 80 109 160 109 192 0 12 -96 117 -249 273 l-249 254 147 151 c165 169 206 222 197 251 -4 11 -31 43 -61 71 -86 81 -84 82 -291 -124 l-175 -174 -187 181 c-245 237 -346 328 -363 328 -8 0 -38 -13 -66 -29z m308 -344 c267 -252 765 -771 791 -823 14 -29 -14 -80 -102 -191 -255 -317 -673 -688 -740 -657 -58 27 -1010 969 -1010 999 0 25 28 74 88 155 64 86 497 528 588 601 75 60 142 99 170 99 13 0 91 -66 215 -183z"/></g></svg>