<?xml version="1.0" encoding="UTF-8"?>
<svg width="1700px" height="1200px" viewBox="0 0 1700 1200" version="1.1" xmlns="http://www.w3.org/2000/svg" xmlns:xlink="http://www.w3.org/1999/xlink">
    <!-- Generator: Sketch 56.1 (81669) - https://sketch.com -->
    <title>New app</title>
    <desc>Created with Sketch.</desc>
    <g id="New-app" stroke="none" stroke-width="1" fill="none" fill-rule="evenodd">
        <g id="Group" transform="translate(157.000000, 107.000000)">
            <g id="Characters-in-moshion-/-Man-in-moshion-/-3" transform="translate(624.000000, 0.000000)">
                <g id="Man" transform="translate(276.000000, 54.000000)">
                    <path d="M474.988615,893 L372.488615,893 C370.088615,893 367.988615,891.269231 367.988615,889.192308 L367.988615,887.807692 C367.988615,885.730769 369.988615,884 372.488615,884 L474.988615,884 C477.388615,884 479.488615,885.730769 479.488615,887.807692 L479.488615,889.192308 C479.488615,891.269231 477.488615,893 474.988615,893 Z M221.488615,884 C223.973896,884 225.988615,886.014719 225.988615,888.5 C225.988615,890.985281 223.973896,893 221.488615,893 L58.4886151,893 C56.0033337,893 53.9886151,890.985281 53.9886151,888.5 C53.9886151,886.014719 56.0033337,884 58.4886151,884 L221.488615,884 Z" id="Base" fill="#DE3190" fill-rule="nonzero"></path>
                    <path d="M221.985409,884.025875 C221.825951,884.008773 221.664,884 221.5,884 L59.1968519,884 C59.0893174,883.452403 59.0347786,882.762354 59.0503751,881.868834 C59.1625765,881.170686 59.1765385,880.370808 59.3904699,879.57442 C60.6740587,874.796094 62.229678,871.62276 66.7796046,868.801737 C71.3295312,865.980715 75.9742068,863.461392 80.8136163,861.245514 C98.6627564,852.855746 104.761827,852.962206 116.497935,845.265857 C121.354797,842.050131 125.820446,838.327501 129.991376,834.29968 C132.771996,831.614466 138.449047,827.252031 147.022527,821.212374 L221.985409,822.938923 L221.985409,884.025875 Z M475.366933,884.013491 C475.245575,884.004559 475.123182,884 475,884 L372.841082,884 L381.895842,827.384766 L449.098019,819.695757 L475.366933,884.013491 Z" id="Shoes" fill="#474961" fill-rule="nonzero"></path>
                    <path d="M252.511834,269.612877 C255.93234,265.754637 259.756275,262.189078 263.961083,258.982754 C276.183003,254.390166 299.505554,249.534405 316.14696,254.835649 C335.608318,261.035209 347.620761,277.988022 347.620761,277.988022 C347.620761,277.988022 350.473097,275.016902 380.240259,358.15555 C400.085033,413.581315 419.341114,488.688389 438.0085,583.476771 C439.795533,594.089417 450.109759,653.954165 468.951177,763.071015 C468.966609,763.160385 468.980824,763.249961 468.993819,763.339718 C469.785152,768.805579 465.995699,773.878037 460.529838,774.669371 L356.298337,789.759745 C351.281355,790.486091 346.51453,787.343503 345.204951,782.44629 C332.205079,733.832993 325.175982,707.25981 324.117658,702.726741 C321.840757,693.674071 319.601194,683.423098 317.283472,671.680786 L299.04391,583.508801 C298.865602,582.654117 298.519982,579.880753 298.007049,575.188709 C289.498266,543.985339 282.222719,517.304489 276.180409,495.146158 C271.323185,513.793908 266.067104,533.78926 260.412165,555.132212 C257.666353,674.80571 255.61446,742.860728 254.256486,759.297263 C254.046582,761.837881 253.379856,771.196234 252.256307,787.372321 C251.87914,792.802501 247.228043,796.933652 241.791294,796.66745 L134.338098,791.406178 C129.223157,791.155738 125.124022,787.081606 124.842286,781.968293 C120.091106,695.737418 123.236206,614.622036 134.277589,538.622149 C151.414585,420.665011 177.311856,372.463527 192.758361,327.09007 C192.930298,326.549349 205.184649,307.144001 229.521416,268.874027 C237.979987,268.92376 245.64346,269.170043 252.511834,269.612877 Z" id="Legs" fill="#FFCB3D" fill-rule="nonzero"></path>
                    <path d="M237.590401,295.280692 C231.921226,310.675302 230.952967,327.771177 235.453077,344.304 C241.757214,367.464587 248.061351,390.625175 254.365488,413.785762 C254.365488,413.785762 261.682045,440.617007 276.315159,494.279496 C271.422861,513.175345 266.121863,533.459583 260.412165,555.132212 C257.594321,674.429964 255.506412,742.297107 254.148437,758.733643 C253.224404,769.917882 252.532593,779.420376 252.073003,787.241125 C251.75089,792.72247 247.069395,796.918828 241.58559,796.641743 L134.035603,791.207464 C128.918828,790.948927 124.825108,786.865073 124.554223,781.748937 C119.995957,695.658292 123.237079,614.616029 134.277589,538.622149 C151.414585,420.665011 177.004603,372.250534 192.451109,326.877077 C192.589737,326.441108 214.663285,309.721259 237.590401,295.280692 Z" id="Shadow-Legs" fill="#8C2A00" fill-rule="nonzero" opacity="0.2"></path>
                    <path d="M228.84459,106.299277 C231.005549,105.503916 233.151525,104.83018 235.237572,104.259488 L234.823111,96.759603 C234.762778,95.6678519 235.590387,94.730014 236.681163,94.6540759 L283.594917,91.3880142 C284.696426,91.3125626 285.651632,92.142909 285.730216,93.2441986 L286.027699,97.4796395 C311.618361,94.3527887 326.55759,93.6387216 330.845387,95.3374383 C370.617551,111.094163 377.193891,179.503404 376.983837,200.314293 C376.927507,205.895107 368.009056,210.904371 350.228482,215.342085 C352.166294,234.258432 353.307847,244.945251 353.965058,250.496502 C353.965058,250.496502 353.955755,251.479503 354.17826,252.933406 C354.742603,257.205884 219.625496,299.029967 219.625496,299.029967 C219.523104,298.940667 219.429277,298.948839 219.429277,298.948839 C219.429277,298.948839 217.509907,298.624927 215.138139,297.456449 C213.960821,296.969683 212.766372,296.287972 211.546226,295.313841 C202.510371,288.243373 201.053834,270.592611 200.864604,266.287459 C200.744687,264.922839 200.650466,263.850637 200.650466,263.850637 C200.278248,257.428099 199.371105,244.424411 197.577142,220.165921 C191.16968,222.927949 184.184702,225.736594 176.622209,228.591854 L176.902077,128.793829 C176.922088,121.657887 181.155702,115.207547 187.694655,112.350244 C202.249954,105.990068 215.966598,103.973079 228.84459,106.299277 Z" id="T-shirt" fill="#DE3190" fill-rule="nonzero"></path>
                    <path d="M221.724067,823.383908 L203.921085,822.975356 L147.022527,821.212374 L149.939359,791.910925 L222.477287,795.436099 L221.724067,823.383908 Z M372.536471,787.197506 L443.28034,776.979201 L449.098019,819.695757 L381.895842,827.384766 L372.536471,787.197506 Z M282.136508,54.6441882 L282.136508,91.6094186 L243.404053,94.253116 L243.945921,86.1933839 C238.412625,87.6038126 238.732138,87.4384179 238.199662,87.5548891 C231.766929,88.4801137 226.417416,87.7228784 225.4438,87.4218794 C221.89488,86.7526317 218.429282,83.3989747 215.581003,78.0150493 C211.716995,70.8295695 208.747457,59.947064 207.887021,47.1898251 C207.677363,45.3725682 207.766062,43.5864183 207.854761,41.8002684 L209.328012,24.099638 C209.646674,20.1430892 210.959857,16.2902305 213.325203,12.9460488 C214.288066,11.450529 215.219571,10.2509726 216.329074,9.2694632 C228.292593,-3.04843343 246.979452,0.894767424 250.308563,1.74058607 C250.695919,1.88071658 251.093727,1.9221926 251.481083,2.06232312 C255.056286,3.43252125 258.505754,4.09139991 261.976128,4.55296958 C263.567363,4.71887367 264.713901,6.23483365 264.546656,7.81330555 L261.771275,33.058487 C262.729062,32.5598811 277.810261,26.5510058 282.013835,29.5826279 C285.48226,32.1202882 286.956009,47.9682485 282.136508,54.6441882 Z M201.452627,277.89609 L202.477005,276.994413 C202.939588,276.994413 203.205333,277.018657 203.291361,277.066229 L286.203396,239.646233 L287.909866,224.564201 C324.615523,220.591422 350.002914,215.903363 364.072037,210.500024 C364.317345,249.287187 361.456762,271.599633 355.490284,277.437365 C341.962497,290.673247 271.521974,323.381574 201.0048,332.211208 C185.241838,339.197709 159.169582,344.285393 122.788031,347.474259 C112.40887,340.836279 106.833786,329.2418 106.062779,312.69082 L131.326817,304.001853 C130.303444,303.650769 129.778878,303.389065 129.778878,303.389065 C124.312415,290.901671 193.564785,279.850852 202.400574,277.468261 L201.452627,277.89609 Z M180.762077,226.187052 C146.71371,241.86034 91.8951567,253.77802 77.2423524,236.703353 C58.0556912,214.345459 55.5297135,153.468518 69.664419,54.0725293 C38.8117592,47.2387584 17.4404808,39.8103844 5.55058403,31.7874072 C2.33237511,29.6158479 0.442357674,25.9635506 0.533304837,22.0919437 C0.681005168,15.804363 5.91638432,10.8265723 12.226851,10.9737577 C42.4413587,11.6783819 61.5872148,11.6203756 69.664419,10.7997389 C69.8667049,10.7791869 70.0691296,10.7600151 70.271679,10.7422251 C94.7772745,8.58988167 116.394155,26.6387249 118.554359,51.0554425 L127.820033,155.786347 L176.877787,132.189058 L176.827212,227.68636 C178.156953,227.185192 179.468575,226.685423 180.762077,226.187052 Z" id="Skin" fill="#DB9E75" fill-rule="nonzero"></path>
                    <path d="M228.086913,106.110553 C219.10586,109.517784 209.947058,115.053981 203.825244,124.048287 C202.069013,126.656733 199.861173,130.581363 198.361909,136.113995 C198.148952,136.918296 197.92743,137.625124 197.714473,138.429425 C197.203298,140.143672 196.104251,143.775284 195.218555,147.68297 C194.28186,152.086193 193.875441,160.371986 194.033166,171.849866 L194.058863,172.142284 L194.29092,176.9348 C195.600004,194.289431 196.664491,208.516914 197.523705,220.139502 C191.159465,222.887356 184.218178,225.680577 176.699844,228.519165 L176.90987,128.756629 C176.924854,121.638365 181.133309,115.197559 187.646298,112.325123 C201.923256,106.028527 215.403461,103.957004 228.08691,106.110554 Z" id="Shadow-T-shirt" fill="#444444" fill-rule="nonzero" opacity="0.176985679"></path>
                    <polygon id="Shadow" fill="#482D1F" fill-rule="nonzero" transform="translate(251.203621, 88.581878) rotate(6.000000) translate(-251.203621, -88.581878) " points="243.775055 87.196397 258.632187 81.7869336 244.075268 95.3768216"></polygon>
                    <path d="M273.657202,58.7661835 L273.751253,58.756796 C275.106848,58.2980021 279.074183,56.9112139 281.722056,52.7835643 C284.36993,48.6559148 285.285004,42.8453332 282.483913,37.9472853 C279.771821,33.1586578 274.066011,30.0589131 269.12506,31.1436067 C266.345775,31.7537468 264.336126,33.6457108 264.116316,33.8229244 C261.07571,36.9084044 260.102695,40.4104532 260.102695,40.4104532 L259.597986,42.8158678 C259.048809,41.9993562 258.54304,41.191515 258.092745,40.4003454 C251.815603,32.235447 245.548914,23.9715349 239.282225,15.7076229 C235.189156,16.3805025 228.709235,16.8036202 221.517018,14.4493034 C218.993978,13.5846464 216.852918,11.9591009 214.957949,10.8598436 C215.52838,10.2187822 216.088358,9.67673441 216.559337,9.02526627 C225.33561,-0.767868406 241.493753,-0.47857229 248.769592,1.08363577 C249.654209,1.2763101 252.794867,2.00538039 257.33831,2.78113156 C259.803709,3.23932744 261.792752,3.44746239 262.975726,3.67135696 C277.731385,5.81604392 283.787215,4.6477974 290.828016,9.38884713 C292.147176,10.2276367 295.141495,12.3428973 297.560307,16.0997619 C304.382198,26.7242405 301.154642,39.200252 300.260173,42.9107347 C297.278409,54.0109626 290.288955,59.6095591 287.996779,62.2728183 C283.401973,67.6983502 277.434767,62.2728183 277.434767,62.2728183 C277.434767,62.2728183 275.90363,60.9235997 273.657202,58.7661835 Z" id="Hair" fill="#482D1F" fill-rule="nonzero"></path>
                    <path d="M143.052383,315.108479 C143.821119,314.799713 144.694607,315.172592 145.003373,315.941328 C145.312139,316.710064 144.93926,317.583552 144.170524,317.892318 C139.345228,319.83042 135.547405,321.217456 127.055024,324.213874 C118.602429,327.196254 114.832301,328.573176 110.059469,330.490205 C109.290733,330.798971 108.417245,330.426092 108.108479,329.657356 C107.799713,328.88862 108.172592,328.015132 108.941328,327.706366 C113.766624,325.768264 117.564447,324.381228 126.056828,321.38481 C134.509423,318.40243 138.279551,317.025508 143.052383,315.108479 Z M156.551483,328.273859 C157.337806,328.013115 158.186621,328.439182 158.447365,329.225506 C158.708108,330.011829 158.282041,330.860644 157.495718,331.121387 C152.111485,332.906788 147.969833,334.384506 138.771058,337.748136 C129.544202,341.122035 125.38267,342.606845 119.960369,344.404869 C119.174046,344.665613 118.32523,344.239546 118.064487,343.453222 C117.803744,342.666899 118.229811,341.818084 119.016134,341.557341 C124.400367,339.77194 128.542018,338.294222 137.740793,334.930592 C146.96765,331.556693 151.129182,330.071883 156.551483,328.273859 Z" id="Fingers" fill="#482D1F" fill-rule="nonzero" transform="translate(133.262003, 329.740756) rotate(8.000000) translate(-133.262003, -329.740756) "></path>
                    <path d="M213.845694,42.6125199 C213.845934,44.3311744 213.933239,47.2782512 213.000766,48.529884 C211.552817,50.3986891 208.574599,45.4276918 209.47781,42.0479304 C210.01636,40.7271446 210.711434,40.2425953 211.516645,40.2828547 C212.733144,40.2942206 213.758629,41.3840976 213.845694,42.6125199 Z M235.348752,43.7435433 C235.447473,45.479486 235.534778,48.4265628 234.503824,49.6609074 C233.055875,51.5297125 230.077657,46.5587152 230.980868,43.1789538 C231.519418,41.858168 232.214491,41.3736187 233.019702,41.4138781 C234.236201,41.425244 235.261687,42.515121 235.348752,43.7435433 Z" id="Eyes" fill="#482D1F" fill-rule="nonzero"></path>
                    <path d="M225.561485,44.8689467 L225.669014,54.8262505 C225.668989,54.8598343 225.518749,55.0094512 225.470774,55.0094151 C224.923757,55.0090024 224.364431,54.972811 223.491867,54.8880674 C223.322441,54.8716126 223.145257,54.8538268 222.890059,54.8277995 C222.568551,54.7949201 222.392471,54.7769368 222.223889,54.7599099 C221.646573,54.7016008 221.168379,54.6558555 220.657383,54.6112228 C220.107193,54.5631666 219.622219,54.9702265 219.574163,55.5204165 C219.526107,56.0706066 219.933167,56.5555809 220.483357,56.6036371 C220.984203,56.6473833 221.453866,56.6923124 222.02291,56.7497862 C222.19019,56.7666815 222.364927,56.7845277 222.687134,56.8174782 C222.945266,56.8438048 223.125231,56.8618697 223.298536,56.8787012 C224.229501,56.9691168 224.845011,57.0089435 225.469266,57.009415 C226.621132,57.0102828 227.669827,55.9659374 227.668956,54.8146952 L227.561369,44.84735 C227.555405,44.2950974 227.102881,43.8522429 226.550629,43.8581471 C225.998376,43.8641704 225.555522,44.3166941 225.561485,44.8689467 Z" id="Nose" fill="#482D1F" fill-rule="nonzero" transform="translate(223.619633, 50.433781) scale(-1, 1) rotate(-10.000000) translate(-223.619633, -50.433781) "></path>
                    <path d="M253.328048,43.9449646 C253.41043,45.0844997 253.354518,46.2525144 253.146168,47.4289245 C251.783623,55.1221521 244.418562,60.2564799 236.697393,58.9010463 C230.203361,57.7610126 225.521986,52.3926438 225.006898,46.137888 L221.73473,45.9047214 C220.351068,53.5724506 212.999962,58.6836639 205.294163,57.3309285 C197.571258,55.9751649 192.41194,48.6393899 193.77477,40.94441 C195.137315,33.2511824 202.502376,28.1168545 210.223545,29.4722882 C216.950827,30.6532692 221.732902,36.3717837 221.953309,42.91269 L225.081968,43.1356305 C225.109295,42.9289303 225.14128,42.7218594 225.178,42.5145278 C226.540545,34.8213002 233.905606,29.6869723 241.626775,31.042406 C247.120734,32.0068759 251.317342,35.997642 252.791479,40.9911598 L259.496374,40.0333176 C260.316475,39.9161604 261.076273,40.4860088 261.19343,41.3061099 C261.310587,42.1262109 260.740739,42.8860088 259.920638,43.0031661 L253.328048,43.9449646 Z M218.948934,43.8990444 C219.203288,38.3879456 215.312854,33.4115996 209.704829,32.4271053 C203.611081,31.3573616 197.802219,35.4068327 196.728799,41.4675924 C195.65571,47.5266043 199.720871,53.3066534 205.812879,54.3761114 C211.906628,55.4458551 217.71549,51.396384 218.788909,45.3356243 C218.838556,45.0553006 218.877205,44.775574 218.905163,44.4968835 C218.89277,44.399804 218.889745,44.3000732 218.896968,44.1987062 C218.904336,44.0953106 218.922017,43.995112 218.948934,43.8990444 Z M250.192139,46.9057421 C251.265229,40.8467302 247.200067,35.066681 241.108059,33.9972231 C235.01431,32.9274794 229.205448,36.9769505 228.132029,43.0377102 C227.058939,49.0967221 231.124101,54.8767712 237.216109,55.9462292 C243.309857,57.0159729 249.118719,52.9665018 250.192139,46.9057421 Z" id="Glasses" fill="#482D1F" fill-rule="nonzero"></path>
                    <path d="M222.338415,62.6064604 C221.638281,62.3072156 219.937904,61.5093553 219.837163,60.513557 C219.837012,60.3144124 219.736799,60.0156202 219.936697,59.9161987 C220.436254,59.4187144 221.636471,59.9174808 223.436609,60.4166998 C226.636787,61.2156914 229.236592,61.4167968 229.236592,61.4167968 C229.236592,61.4167968 228.237932,63.0091992 227.638313,63.4070358 C226.439302,64.5014259 223.338659,63.105076 222.338415,62.6064604 Z" id="Mouth" fill="#482D1F" fill-rule="nonzero" transform="translate(224.524252, 61.762956) scale(-1, 1) rotate(-10.000000) translate(-224.524252, -61.762956) "></path>
                    <path d="M290.034732,224.432368 C289.823821,215.626675 289.660085,207.923748 289.543523,201.323783 C289.426941,194.722717 289.263162,183.880742 289.052205,168.798851 C289.040618,167.970505 288.359719,167.308391 287.531372,167.319827 C286.703026,167.331563 286.040912,168.012463 286.052498,168.840809 C286.263503,183.926115 286.427328,194.7711 286.54399,201.376758 C286.660673,207.983516 286.82454,215.692598 287.035592,224.504203 C287.055428,225.332392 287.742889,225.987692 288.571079,225.968294 C289.399268,225.948019 290.054568,225.260558 290.034732,224.432368 Z" id="Shadow" fill="#482D1F" fill-rule="nonzero"></path>
                </g>
            </g>
            <g id="Characters-in-moshion-/-Woman-in-moshion/-Woman-with-UI-/-1" transform="translate(0.000000, 78.232543)">
                <g id="Woman">
                    <path d="M547.715329,888.969077 L547.725801,889.568985 C547.660475,891.870476 545.688023,893.70518 543.26229,893.747521 L375.092599,893.482446 C372.665121,893.424803 370.733561,891.558229 370.693421,889.258579 L370.682949,888.658671 C370.748275,886.35718 372.720727,884.522476 375.14646,884.480135 L543.210685,884.747051 C545.741884,884.702868 547.673444,886.569442 547.715329,888.969077 Z M100.245352,892.748858 L100,892.8 L1.62159099,815.910788 C-0.178409006,814.510788 -0.578409006,811.810788 0.921590994,810.110788 L1.22159099,809.610788 C2.12159099,808.510788 3.52159099,807.910788 4.92159099,808.010788 C5.72159099,808.010788 6.42159099,808.310788 7.12159099,808.810788 L105.04173,884.505939 L158.627785,884.625016 C160.927435,884.584875 162.76032,886.453172 162.900446,888.751076 L162.910917,889.350985 C162.851073,891.65238 160.982777,893.485265 158.683127,893.525406 L100.071109,893.348299 C100.129187,893.148932 100.187257,892.949097 100.245352,892.748858 Z" id="Base" fill="#FF5645" fill-rule="nonzero"></path>
                    <path d="M546.411,885.955415 C545.605406,885.186062 544.483906,884.724827 543.210685,884.747051 L375.14646,884.480135 C374.879314,884.484798 374.617666,884.5112 374.363457,884.55757 L381.110044,822.354353 L457.917022,822.134783 C467.157169,828.174441 473.167553,832.536876 475.948173,835.22209 C480.119103,839.24991 484.584752,842.972541 489.441614,846.188267 C501.177721,853.884616 507.276792,853.778156 525.125933,862.167924 C529.965342,864.383802 534.610018,866.903125 539.159944,869.724147 C543.709871,872.54517 545.26549,875.718504 546.549079,880.49683 C546.76301,881.293217 546.776972,882.093095 546.889174,882.791244 C546.916688,884.367532 546.72593,885.310584 546.411,885.955415 Z M7.11449404,808.805726 L42.0346911,760.948772 L102.234691,806.648772 L104.034691,812.648772 C111.034691,837.182105 114.834691,850.115439 115.434691,851.448772 C116.15632,853.009051 116.904577,854.451411 117.69133,855.855974 C123.128309,858.068698 129.302469,860.232661 138.734691,864.948772 C143.534691,867.248772 148.134691,869.848772 152.634691,872.748772 C157.134691,875.648772 158.634691,878.848772 159.834691,883.648772 C159.935462,884.051856 159.985459,884.454939 160.023056,884.845232 C159.5871,884.69464 159.11805,884.616458 158.627785,884.625016 L105.04173,884.505939 L7.12159099,808.810788 C7.11922534,808.809099 7.11685969,808.807411 7.11449404,808.805726 Z" id="Shoes" fill="#474961" fill-rule="nonzero"></path>
                    <path d="M301.768215,325.479236 C302.06681,325.519554 302.36599,325.567945 302.665521,325.624567 C305.559446,326.171627 308.261604,327.461136 310.507214,329.366736 C397.062947,402.816991 448.255366,463.568897 464.084472,511.622453 C473.061011,538.873179 480.985097,608.989247 487.856728,721.970656 C489.13081,742.918766 473.18186,760.933413 452.233749,762.207496 C451.792619,762.234326 451.351055,762.253458 450.909257,762.264884 L387.880911,763.894943 C367.223005,764.429204 349.924874,748.357313 348.94152,727.715909 L340.539062,551.341436 C326.723748,536.736183 314.685769,523.870662 304.425127,512.744872 C301.963218,526.167423 298.164457,540.338035 292.0247,559.296969 C281.793529,590.889765 240.111468,653.329689 166.978516,746.616741 L164.168021,750.36126 C152.256153,766.231858 130.138234,770.264888 113.391468,759.619969 L66.3596225,729.724633 C48.6480497,718.466444 43.4165486,694.981812 54.6747377,677.270239 C55.142909,676.533704 55.6363151,675.813516 56.154078,675.110957 L160.895451,532.986015 C163.392097,476.64016 168.334842,427.345873 175.723687,385.103155 C186.806953,321.739078 269.771999,323.1076 301.171999,324.150442 C301.373779,324.584561 301.572517,325.027492 301.768215,325.479236 Z" id="Legs" fill="#3ABF7C" fill-rule="nonzero"></path>
                    <path d="M301.704873,325.465407 C302.024906,325.507385 302.34563,325.558628 302.666757,325.619333 C305.560682,326.166393 308.26284,327.455902 310.50845,329.361502 C397.064182,402.811757 448.256602,463.563662 464.085708,511.617219 C473.062247,538.867945 480.986332,608.984013 487.857964,721.965421 C489.132046,742.913532 473.183095,760.928179 452.234985,762.202262 C451.793855,762.229092 451.35229,762.248224 450.910493,762.25965 L387.882147,763.889708 C367.224241,764.42397 349.92611,748.352078 348.942756,727.710675 L340.540298,551.336202 C326.733475,536.739927 314.701805,523.881245 304.445286,512.760156 C308.979437,487.970764 308.96068,465.695235 310.720401,420.458683 C312.490452,374.956581 309.485276,343.292155 301.704873,325.465407 Z" id="Shadow-Legs" fill="#444444" fill-rule="nonzero" opacity="0.176985679"></path>
                    <g id="Browser" transform="translate(357.990990, 0.000000)" fill-rule="nonzero">
                        <path d="M17.3230149,68.4299878 L643.323015,68.4299878 L643.323015,471.429988 C643.323015,482.475683 634.36871,491.429988 623.323015,491.429988 L37.3230149,491.429988 C26.2773199,491.429988 17.3230149,482.475683 17.3230149,471.429988 L17.3230149,68.4299878 Z" id="Background" fill="#F2F6FB" transform="translate(330.323015, 279.929988) rotate(-4.000000) translate(-330.323015, -279.929988) "></path>
                        <path d="M36.5013206,112.975278 L55.264957,112.975278 C56.3695265,112.975278 57.264957,113.870708 57.264957,114.975278 L57.264957,122.369217 C57.264957,123.473787 56.3695265,124.369217 55.264957,124.369217 L36.5013206,124.369217 C35.3967511,124.369217 34.5013206,123.473787 34.5013206,122.369217 L34.5013206,114.975278 C34.5013206,113.870708 35.3967511,112.975278 36.5013206,112.975278 Z M520.228593,112.975278 L601.59223,112.975278 C602.696799,112.975278 603.59223,113.870708 603.59223,114.975278 L603.59223,122.369217 C603.59223,123.473787 602.696799,124.369217 601.59223,124.369217 L520.228593,124.369217 C519.124024,124.369217 518.228593,123.473787 518.228593,122.369217 L518.228593,114.975278 C518.228593,113.870708 519.124024,112.975278 520.228593,112.975278 Z M366.574048,112.975278 L447.937684,112.975278 C449.042254,112.975278 449.937684,113.870708 449.937684,114.975278 L449.937684,122.369217 C449.937684,123.473787 449.042254,124.369217 447.937684,124.369217 L366.574048,124.369217 C365.469478,124.369217 364.574048,123.473787 364.574048,122.369217 L364.574048,114.975278 C364.574048,113.870708 365.469478,112.975278 366.574048,112.975278 Z M463.319502,112.975278 L504.846775,112.975278 C505.951345,112.975278 506.846775,113.870708 506.846775,114.975278 L506.846775,122.369217 C506.846775,123.473787 505.951345,124.369217 504.846775,124.369217 L463.319502,124.369217 C462.214933,124.369217 461.319502,123.473787 461.319502,122.369217 L461.319502,114.975278 C461.319502,113.870708 462.214933,112.975278 463.319502,112.975278 Z" id="Combined-Shape" fill="#D8DEED" transform="translate(319.046775, 118.672248) rotate(-4.000000) translate(-319.046775, -118.672248) "></path>
                        <g id="iPhone" transform="translate(165.276833, 311.747807) rotate(-4.000000) translate(-165.276833, -311.747807) translate(90.276833, 169.747807)">
                            <rect id="Body" fill="#D8DEED" x="0" y="0" width="149.35623" height="283.879989" rx="6.59999975"></rect>
                            <ellipse id="Button" fill="#F2F6FB" cx="75.6355265" cy="264.13999" rx="10.531529" ry="10.3399996"></ellipse>
                            <rect id="Mic" fill="#F2F6FB" x="65.1039975" y="16.9199994" width="21.063058" height="5.63999979" rx="2.81999989"></rect>
                            <rect id="Screen" fill="#F2F6FB" x="11.4889407" y="31.9599988" width="126.378348" height="218.079992"></rect>
                            <path d="M77.6184106,161.782599 L48.0852421,161.782599 C47.3581353,161.782599 47.0912562,161.288567 47.4883834,160.680324 L67.6794873,129.755455 C68.0769581,129.146685 68.7324214,129.134367 69.1496463,129.73716 L83.7016884,150.957489 L89.8291377,141.517627 C90.2247152,140.908205 90.8927101,140.880182 91.3348663,141.473444 L105.675858,160.715428 C106.111871,161.300448 105.881643,161.780174 105.14964,161.787039 L92.3755171,161.906837 L77.6184106,161.782599 Z M90.482319,134.38289 C87.8849303,134.38289 85.7793308,132.357078 85.7793308,129.858112 C85.7793308,127.359146 87.8849303,125.333333 90.482319,125.333333 C93.0797076,125.333333 95.1853071,127.359146 95.1853071,129.858112 C95.1853071,132.357078 93.0797076,134.38289 90.482319,134.38289 Z" id="Mountains" fill="#D8DEED"></path>
                        </g>
                        <path d="M298.190269,228.309056 L555.972087,228.309056 C557.076656,228.309056 557.972087,229.204487 557.972087,230.309056 L557.972087,249.096935 C557.972087,250.201504 557.076656,251.096935 555.972087,251.096935 L298.190269,251.096935 C297.085699,251.096935 296.190269,250.201504 296.190269,249.096935 L296.190269,230.309056 C296.190269,229.204487 297.085699,228.309056 298.190269,228.309056 Z M298.190269,265.339359 L456.381178,265.339359 C457.485747,265.339359 458.381178,266.23479 458.381178,267.339359 L458.381178,286.127238 C458.381178,287.231807 457.485747,288.127238 456.381178,288.127238 L298.190269,288.127238 C297.085699,288.127238 296.190269,287.231807 296.190269,286.127238 L296.190269,267.339359 C296.190269,266.23479 297.085699,265.339359 298.190269,265.339359 Z M298.190269,302.369662 L516.135723,302.369662 C517.240293,302.369662 518.135723,303.265093 518.135723,304.369662 L518.135723,323.157541 C518.135723,324.262111 517.240293,325.157541 516.135723,325.157541 L298.190269,325.157541 C297.085699,325.157541 296.190269,324.262111 296.190269,323.157541 L296.190269,304.369662 C296.190269,303.265093 297.085699,302.369662 298.190269,302.369662 Z" id="Text" fill="#E1E5F0" transform="translate(427.081178, 276.733299) rotate(-4.000000) translate(-427.081178, -276.733299) "></path>
                        <rect id="Title" fill="#D8DEED" transform="translate(399.206786, 204.441011) rotate(-4.000000) translate(-399.206786, -204.441011) " x="291.079513" y="193.047072" width="216.254545" height="22.7878788" rx="2"></rect>
                        <path d="M322.816733,366.092437 L427.228869,366.092437 C433.556648,366.092437 436.041063,366.788629 438.485508,368.095933 C440.929952,369.403236 442.848366,371.32165 444.155669,373.766095 C445.462973,376.210539 446.159165,378.694955 446.159165,385.022733 L446.159165,392.7379 C446.159165,399.065678 445.462973,401.550093 444.155669,403.994538 C442.848366,406.438982 440.929952,408.357396 438.485508,409.6647 C436.041063,410.972003 433.556648,411.668195 427.228869,411.668195 L322.816733,411.668195 C316.488955,411.668195 314.004539,410.972003 311.560095,409.6647 C309.11565,408.357396 307.197236,406.438982 305.889933,403.994538 C304.58263,401.550093 303.886437,399.065678 303.886437,392.7379 L303.886437,385.022733 C303.886437,378.694955 304.58263,376.210539 305.889933,373.766095 C307.197236,371.32165 309.11565,369.403236 311.560095,368.095933 C314.004539,366.788629 316.488955,366.092437 322.816733,366.092437 Z" id="Button" fill="#474BFF" transform="translate(375.022801, 388.880316) rotate(-4.000000) translate(-375.022801, -388.880316) "></path>
                        <path d="M1,42.000849 C1,30.9546851 9.95452676,22 21.0093704,22 L606.99063,22 C618.0415,22 627,30.9588512 627,42.000849 L627,71 L1,71 L1,42.000849 Z" id="Top-bar" fill="#E1E5F0" transform="translate(314.000000, 46.500000) rotate(-4.000000) translate(-314.000000, -46.500000) "></path>
                        <circle id="Burron" fill="#FF5645" transform="translate(34.253040, 67.064255) rotate(-4.000000) translate(-34.253040, -67.064255) " cx="34.2530404" cy="67.0642549" r="10.5"></circle>
                        <circle id="Burron" fill="#FFCB3D" transform="translate(69.167782, 64.622778) rotate(-4.000000) translate(-69.167782, -64.622778) " cx="69.1677821" cy="64.6227784" r="10.5"></circle>
                        <circle id="Burron" fill="#3ABF7C" transform="translate(105.080088, 62.111545) rotate(-4.000000) translate(-105.080088, -62.111545) " cx="105.080088" cy="62.1115453" r="10.5"></circle>
                    </g>
                    <path d="M173.91465,245.284243 L162.854004,247.32869 C162.440178,247.405182 162.019454,247.437923 161.598777,247.426374 C158.286313,247.335434 155.674752,244.576431 155.765698,241.263967 C156.65046,209.036578 159.899134,188.009886 165.511719,178.183891 C167.154584,175.307715 169.271329,172.989594 171.719442,171.194423 C181.72876,161.694708 198.76008,156.34014 219.071939,152.883515 L224.685343,151.89372 C233.36718,150.42094 241.730608,150.531488 249.495446,151.928319 C259.184539,152.298617 271.111231,154.547012 281.957831,161.697397 C283.67815,162.815655 287.35048,165.214404 291.399127,169.171481 C291.399127,169.171481 299.345846,176.807557 309.71721,202.801495 C310.919408,205.883393 312.666266,211.002707 314.957786,218.159438 C315.799857,220.789339 314.350533,223.603928 311.720632,224.445998 C311.540955,224.503529 311.358166,224.550845 311.173141,224.587718 L298.597753,227.09381 L301.910968,267.946737 C302.003501,269.04739 302.078668,270.049563 302.269681,271.132851 C303.074171,276.271217 303.102231,282.764999 299.787893,288.731167 C295.03654,297.489287 287.492516,309.989194 248.030746,316.541198 C211.326439,322.606988 200.65152,313.319571 193.422947,306.876921 C188.250574,302.305646 186.07925,295.174352 185.112529,290.267679 C184.921516,289.18439 184.649387,288.216947 184.359893,287.151023 L173.91465,245.284243 Z" id="T-shirt" fill="#FF5645" fill-rule="nonzero"></path>
                    <path d="M309.324994,146.662482 C290.748934,153.444012 277.263047,167.536773 272.393263,183.578415 C270.793263,188.778415 270.493263,194.378415 271.093263,199.778415 L273.860874,229.257663 L261.093008,229.030735 C260.903819,229.027372 260.714974,229.013273 260.527383,228.988505 C257.78972,228.627046 255.863425,226.114712 256.22488,223.377049 C257.214233,215.883757 258.033623,210.513542 258.68305,207.266405 C264.38305,179.866405 270.88305,170.966405 270.88305,170.966405 C274.18305,166.366405 277.38305,163.366405 278.88305,161.966405 C288.472353,152.900156 299.815769,148.660736 309.324989,146.662483 Z" id="Shadow-T-shirt" fill="#444444" fill-rule="nonzero" opacity="0.176985679" transform="translate(282.706314, 187.959554) scale(-1, 1) rotate(10.000000) translate(-282.706314, -187.959554) "></path>
                    <path d="M384.761218,763.964053 C385.876296,764.033342 387.003727,764.054282 388.141346,764.02486 L451.169692,762.394802 C451.61149,762.383376 452.053054,762.364243 452.494184,762.337413 C456.229341,762.110238 459.805561,761.350834 463.153549,760.137471 L456.797544,822.648772 L381.110044,822.648772 L384.761218,763.964053 Z M126.102038,764.850282 L102.234691,806.648772 L42.0346911,760.948772 L63.5133084,727.657389 C64.501662,728.432708 65.5375502,729.166465 66.6200575,729.85455 L113.651903,759.749886 C117.574038,762.242953 121.790786,763.930923 126.102038,764.850282 Z M348.397303,300.380627 L362.929161,301.993494 C369.121049,298.732244 425.518203,269.471481 429.195466,283.662567 C429.195466,283.662567 428.951088,284.179535 428.379057,285.066669 L454.638899,276.076644 C469.119589,296.346562 456.861054,328.031548 456.666561,328.141878 C423.157535,342.843606 398.001328,350.654807 381.19794,351.575483 C379.257713,351.68179 377.523505,351.558196 375.995315,351.204703 C375.969446,351.388743 375.943355,351.573753 375.917042,351.759731 C322.902864,358.119082 267.324757,355.764924 209.182721,344.697259 C195.193875,342.034403 179.718648,309.475588 162.75704,247.020813 C162.921117,247.004303 163.084552,246.981026 163.246924,246.951013 L228.511473,234.887531 C229.095008,234.779669 229.643099,234.590751 230.146267,234.334553 L246.225635,289.040762 L295.644415,294.525671 C297.263808,292.345779 298.440944,290.243681 299.483597,288.321769 C302.797935,282.355601 302.769875,275.861818 301.965385,270.723453 C301.774372,269.640165 301.699205,268.637992 301.606672,267.537339 L298.212884,225.690923 L310.820286,223.467898 C311.086868,223.420892 311.349193,223.352315 311.604674,223.262843 C311.948621,223.14239 312.271087,222.98815 312.569654,222.805149 L326.054447,250.669302 C337.248011,244.473004 369.856029,203.961116 369.856029,203.961116 C369.856029,203.961116 371.589025,226.958667 375.055019,272.953768 L348.397303,300.380627 Z M241.746263,140.907798 L242.891614,150.41434 C263.184431,151.243576 272.407787,159.132623 275.515625,162.57244 C275.515625,162.57244 254.10516,166.481956 211.284229,174.300988 C199.736397,165.042429 182.548671,162.943157 171.870959,170.996274 C177.799613,165.253706 188.0398,160.311263 202.591519,156.168945 C206.398283,155.085305 210.022612,154.175116 213.472209,153.420485 L209.743126,117.960967 C209.526118,117.838327 209.30909,117.708272 209.092533,117.570366 C205.192296,114.991965 202.249192,110.190076 202.809303,104.553031 C203.279756,99.3541197 207.173114,92.2005674 211.913086,91.3446063 C214.572849,90.8389801 221.997912,93.0962736 221.473339,90.7521697 C221.123623,89.1894338 219.076022,80.9037302 215.330534,65.895059 C215.013016,64.3236958 215.932255,62.7315274 217.477736,62.317417 C220.980951,61.482261 224.446272,61.2784243 227.883853,59.4255787 C228.270224,59.3220511 228.630712,59.1219309 229.017083,59.0184033 C232.197703,57.7520482 249.903246,50.4196718 263.423985,61.083612 C264.578019,61.9131933 265.713106,63.0584342 266.874075,64.3002677 C269.615201,67.1892519 271.423218,70.8459 272.265309,74.7613671 L276.125429,92.2584946 C276.398118,94.0489249 276.7674,95.8134733 276.846904,97.6556674 C278.316731,120.141432 272.81059,137.456524 264.852104,140.210159 C263.91206,140.565571 258.721943,142.059786 252.196617,142.048272 C251.565298,142.010379 252.125907,142.170747 243.132145,141.060679 C242.657303,141.009726 242.195452,140.958741 241.746263,140.907798 Z" id="Skin" fill="#F2A98A" fill-rule="nonzero"></path>
                    <path d="M328.554246,302.593318 L296.718805,279.947885 C292.12811,233.957458 289.832763,210.962245 289.832763,210.962245 C289.832763,210.962245 328.980207,245.196343 341.079692,249.354763 L349.417912,220.50992 C349.813559,220.690523 350.239494,220.822092 350.689348,220.895764 C350.956485,220.939513 351.226733,220.961495 351.497428,220.961495 L364.299319,220.961495 L368.223644,262.761495 C368.323644,263.861495 368.423644,264.861495 368.423644,265.961495 C368.523644,271.161495 369.623644,277.561495 373.923644,282.861495 C375.204072,284.472357 376.629512,286.2197 378.437789,287.974926 L328.554246,302.593318 Z" id="Shadow-Skin" fill="#8C2A00" fill-rule="nonzero" opacity="0.2" transform="translate(334.204521, 257.298141) scale(-1, 1) rotate(10.000000) translate(-334.204521, -257.298141) "></path>
                    <path d="M424.775317,301.212648 C429.721756,299.791552 433.54409,298.560278 442.04904,295.716917 C450.594134,292.860136 454.444628,291.619791 459.445586,290.183031 C460.241805,289.95428 461.072707,290.414303 461.301458,291.210522 C461.53021,292.006741 461.070186,292.837643 460.273967,293.066394 C455.327528,294.487491 451.505195,295.718765 443.000245,298.562125 C434.455151,301.418907 430.604657,302.659252 425.603699,304.096012 C424.80748,304.324763 423.976577,303.864739 423.747826,303.068521 C423.519075,302.272302 423.979098,301.441399 424.775317,301.212648 Z M422.159441,321.801509 C427.544207,319.886326 431.741758,318.499451 441.099043,315.489263 C450.427766,312.488263 454.605206,311.108033 459.952054,309.206336 C460.732583,308.928727 461.590372,309.336425 461.86798,310.116954 C462.145589,310.897483 461.737891,311.755272 460.957362,312.03288 C455.572596,313.948064 451.375045,315.334939 442.01776,318.345127 C432.689037,321.346127 428.511597,322.726357 423.164749,324.628054 C422.38422,324.905662 421.526431,324.497965 421.248823,323.717436 C420.971214,322.936907 421.378912,322.079118 422.159441,321.801509 Z" id="Fingers" fill="#482D1F" fill-rule="nonzero"></path>
                    <path d="M180.431521,91.7692613 C180.351522,87.9065881 180.973834,83.6898376 182.958647,79.5384057 C184.853965,75.4070901 187.601528,72.9109134 188.772651,71.8724186 C195.226767,66.2089938 201.443368,66.6138131 216.047795,62.3899859 C219.112875,61.4651724 223.626845,60.1521303 228.880738,58.1231881 C229.29299,58.1162531 229.653479,57.9161329 230.039849,57.8126053 C233.220469,56.5462502 250.663975,50.9405284 263.475748,61.2767972 C263.527512,61.4699823 265.461222,62.5047606 265.442275,62.8204203 C265.442275,62.8204203 252.116475,91.5469311 224.266969,97.4046858 C223.521487,96.601315 221.546403,94.698871 218.584355,93.4932954 C218.242813,93.377756 215.82614,92.4723872 213.166377,92.9780135 C208.426405,93.8339746 204.580288,98.7985879 204.109835,103.997499 C203.497961,109.441359 206.415183,114.146655 210.218827,116.750938 C214.022471,119.355221 218.119112,119.189279 219.452461,119.142592 L221.016834,118.691008 C222.368025,121.278356 223.308929,124.065889 222.217732,126.192508 C220.109824,130.300579 216.18595,132.672333 210.44611,133.307769 C205.137239,140.02699 196.455779,144.715916 186.383425,145.420244 C169.028833,146.633795 154.116919,135.558708 153.076732,120.683344 C152.080662,106.438868 164.165819,93.8749525 180.431521,91.7692613 Z M277.410624,86.9719791 C275.65301,87.753513 272.639693,88.8715117 269.676282,88.6302792 C265.063862,88.4167868 268.789362,84.9338791 272.801422,84.0659062 C274.759156,83.6448607 276.466863,84.222558 277.543252,84.7623615 C278.400573,85.2573362 278.324786,86.5199748 277.410624,86.9719791 Z M258.671663,91.9930685 C256.817457,92.8004844 253.80414,93.9184831 250.744136,93.7031325 C246.157597,93.5862327 249.857216,90.0067324 253.869276,89.1387595 C255.923602,88.6918321 257.63131,89.2695293 258.707698,89.8093329 C259.661612,90.2784257 259.585825,91.5410643 258.671663,91.9930685 Z" id="Hair" fill="#482D1F" fill-rule="nonzero"></path>
                    <path d="M272.159087,96.3507508 C272.041689,95.139876 272.774678,94.0117237 273.933789,93.7011408 C274.706529,93.4940856 275.486205,93.6992826 276.138329,94.973933 C277.642698,97.8837223 275.838896,103.12932 274.117318,101.727118 C272.840809,100.826826 272.405894,98.0445885 272.159087,96.3507508 Z M254.810316,100.378174 C254.692918,99.1672995 255.425907,98.0391472 256.585018,97.7285643 C257.357758,97.5215091 258.137434,97.7267061 258.789558,99.0013565 C260.293927,101.911146 258.490125,107.156744 256.768547,105.754542 C255.492038,104.85425 254.96053,102.097894 254.810316,100.378174 Z" id="Eyes" fill="#482D1F" fill-rule="nonzero"></path>
                    <path d="M268.359479,118.136131 C269.059479,117.936131 270.759479,117.336131 271.059479,116.236131 C271.059479,116.036131 271.159479,115.736131 271.059479,115.536131 C270.659479,114.936131 269.359479,115.236131 267.559479,115.436131 C264.359479,115.736131 261.759479,115.436131 261.759479,115.436131 C261.759479,115.436131 262.559479,117.436131 263.059479,117.936131 C264.059479,119.536131 267.259479,118.436131 268.359479,118.136131 Z" id="Mouth" fill="#482D1F" fill-rule="nonzero" transform="translate(266.431701, 116.982897) scale(-1, 1) rotate(15.000000) translate(-266.431701, -116.982897) "></path>
                    <path d="M262.835769,99.0235401 L261.643895,109.651081 L261.637665,109.762532 C261.637665,110.853886 262.384515,111.867468 263.473266,112.048926 C263.673046,112.068208 263.784611,112.076128 263.896359,112.083398 C264.953997,112.152201 265.713231,112.162532 268.437665,112.162532 C268.98995,112.162532 269.437665,111.714817 269.437665,111.162532 C269.437665,110.610248 268.98995,110.162532 268.437665,110.162532 C265.761404,110.162532 265.023429,110.15249 264.026193,110.087616 C263.922302,110.080858 263.81859,110.073495 263.714361,110.065478 C263.736847,110.065587 263.653135,109.949531 263.639513,109.801956 L264.831435,99.1739831 L264.837091,99.0286535 L264.637091,93.1286535 C264.61838,92.5766857 264.155754,92.1443956 263.603786,92.1631064 C263.051818,92.1818171 262.619528,92.6444434 262.638239,93.1964111 L262.835769,99.0235401 Z" id="Nose" fill="#482D1F" fill-rule="nonzero" transform="translate(265.537665, 102.162527) scale(-1, 1) rotate(15.000000) translate(-265.537665, -102.162527) "></path>
                    <path d="M231.452656,233.934322 C229.021404,224.574753 226.425401,214.845307 223.664645,204.745952 C223.446201,203.946844 222.621312,203.476123 221.822204,203.694567 C221.023096,203.913011 220.552374,204.7379 220.770818,205.537008 C223.528291,215.624348 226.121026,225.341547 228.549019,234.688574 C228.7573,235.490391 229.576147,235.971547 230.377964,235.763266 C231.179781,235.554985 231.660937,234.736139 231.452656,233.934322 Z" id="Shadow" fill="#482D1F" fill-rule="nonzero"></path>
                </g>
            </g>
        </g>
    </g>
</svg>