<?xml version="1.0" encoding="UTF-8"?>
<svg width="1700px" height="1200px" viewBox="0 0 1700 1200" version="1.1" xmlns="http://www.w3.org/2000/svg" xmlns:xlink="http://www.w3.org/1999/xlink">
    <!-- Generator: Sketch 56.1 (81669) - https://sketch.com -->
    <title>Web design</title>
    <desc>Created with Sketch.</desc>
    <defs>
        <path d="M116.30435,5.06580462 C119.434847,6.05315887 122.593126,7.40445379 125.718589,9.20696943 C137.618589,16.1069694 143.318589,25.0069694 153.818589,43.1069694 C162.618589,58.1069694 170.418589,71.6069694 164.818589,80.6069694 C161.096949,86.581181 152.77123,88.1431502 147.168781,88.5807902 L146.918589,111.806969 L146.918589,112.806969 L146.418589,162.606969 C145.607992,178.698901 144.607992,191.78739 143.418589,201.872434 C141.634484,217 27.4163414,223.235876 27.4163414,205.884033 C24.7163414,199.284033 23.8185888,177.906969 23.9185888,170.306969 L24.735402,96.712095 C23.4449811,96.8341191 22.139924,96.9794358 20.8185888,97.1506581 C15.2185888,97.1506581 6.51858877,96.0896992 2.31858877,89.7239462 C-3.78141123,80.5997001 3.21858877,65.8523723 11.0185888,49.3014143 C20.4185888,29.461484 24.4633257,18.1417574 37.0185888,11.6373755 C42.4777405,8.80920632 47.0186646,7.41253525 50.641361,7.44736226 C58.0782063,3.07117477 66.6856015,0.641516765 75.8185888,0.806969432 L97.8185888,1.20696943 C104.367407,1.27738683 110.602179,2.64255232 116.30435,5.06580462 Z" id="path-1"></path>
    </defs>
    <g id="Web-design" stroke="none" stroke-width="1" fill="none" fill-rule="evenodd">
        <g id="back-web-design" transform="translate(810.000000, 76.000000)">
            <g id="Group" transform="translate(0.000000, 40.000000)">
                <rect id="Rectangle" stroke="#E1E5F0" stroke-width="5" x="8.6" y="8.3" width="181.2" height="181.2"></rect>
                <rect id="Rectangle" fill="#E1E5F0" fill-rule="nonzero" x="0.8" y="0.5" width="15.5" height="15.5"></rect>
                <rect id="Rectangle" fill="#D8DEED" fill-rule="nonzero" x="0.8" y="181.8" width="15.5" height="15.5"></rect>
                <rect id="Rectangle" fill="#CCF2FF" fill-rule="nonzero" x="182.1" y="0.5" width="15.5" height="15.5"></rect>
                <rect id="Rectangle" fill="#CCF2FF" fill-rule="nonzero" x="182.1" y="181.8" width="15.5" height="15.5"></rect>
            </g>
            <g id="UI-/-Icons-/-Font" transform="translate(121.000000, 0.000000)">
                <g id="Group">
                    <path d="M99.5,111.5 L12.6,111.5 C6,111.5 0.6,106.1 0.6,99.5 L0.6,12.6 C0.6,6 6,0.6 12.6,0.6 L99.5,0.6 C106.1,0.6 111.5,6 111.5,12.6 L111.5,99.5 C111.5,106.1 106.1,111.5 99.5,111.5 Z" id="Path" fill="#E1E5F0" fill-rule="nonzero"></path>
                    <path d="M85.1,54.6717152 L85.1,53.2 C85.1,50.990861 86.890861,49.2 89.1,49.2 C91.309139,49.2 93.1,50.990861 93.1,53.2 L93.1,80.4 C93.1,82.609139 91.309139,84.4 89.1,84.4 C87.4363445,84.4 86.009906,83.3843535 85.4069031,81.9392792 C82.9397481,83.4971156 80.0214695,84.4 76.9,84.4 C68.090861,84.4 60.9,77.209139 60.9,68.4 C60.9,59.590861 68.090861,52.4 76.9,52.4 C79.8929968,52.4 82.6991841,53.2300924 85.1,54.6717152 Z M34.3621009,53.5 L44.9087087,53.5 L39.3446088,34.2422116 L34.3621009,53.5 Z M32.2922857,61.5 L27.2724879,80.9019168 C26.7191446,83.0406328 24.5367992,84.3258313 22.3980832,83.7724879 C20.2593672,83.2191446 18.9741687,81.0367992 19.5275121,78.8980832 L32.1331791,30.1764298 C34.0655589,22.8763283 44.260261,22.7861097 46.4428101,29.9896799 L60.5428101,78.7896799 C61.1560229,80.9120053 59.9326455,83.1295972 57.8103201,83.7428101 C55.6879947,84.3560229 53.4704028,83.1326455 52.8571899,81.0103201 L47.2201267,61.5 L32.2922857,61.5 Z M76.9,76.4 C81.290861,76.4 84.9,72.790861 84.9,68.4 C84.9,64.009139 81.290861,60.4 76.9,60.4 C72.509139,60.4 68.9,64.009139 68.9,68.4 C68.9,72.790861 72.509139,76.4 76.9,76.4 Z" id="Combined-Shape" fill="#F2F6FB" fill-rule="nonzero"></path>
                </g>
            </g>
            <path d="M175.33418,381.305296 L109.66582,339 C108.789072,339.610592 108.789072,339.610592 108,340.308411 L132.54892,414.190031 C132.54892,414.190031 142.193139,412.88162 149.645489,408.694704 L160.780178,423 L177,410.52648 L165.865311,396.133956 C169.021601,391.161994 172.177891,386.190031 175.33418,381.305296 Z" id="Path" fill="#E1E5F0" fill-rule="nonzero"></path>
            <g id="UI-/-Icons-/-Picture" transform="translate(122.000000, 144.000000)">
                <g id="Simple-Page-/-Image">
                    <g fill-rule="nonzero">
                        <path d="M0,9.99681959 C0,4.47572858 4.47942336,0 9.99720911,0 L101.794663,0 C101.794663,0 139,36.800354 139,36.800354 L139,153.000637 C139,158.523133 134.532652,163 129.003463,163 L9.99653721,163 C4.47560216,163 0,158.513059 0,153.00318 L0,9.99681959 Z" id="Page" fill="#F2F6FB"></path>
                        <g id="Icons-/-Mountains" transform="translate(26.668750, 57.223404)" fill="#E1E5F0">
                            <path d="M44.0897074,52.9119046 L1.09598447,52.9119046 C0.323971865,52.9119046 0.0375529775,52.3881928 0.460869055,51.7350344 L30.1045277,5.99615484 C30.5257757,5.34618738 31.2248432,5.33938279 31.6551099,5.96550814 L52.9158678,37.2007268 L62.02076,23.0699293 C62.4398465,22.4195068 63.1492129,22.3918595 63.609595,23.0141526 L84.8899196,51.7785211 C85.3483224,52.398139 85.0910342,52.9063801 84.3195969,52.9136683 L64.9113135,53.0970311 L44.0897074,52.9119046 Z M62.6886929,13.1368704 C58.9459014,13.1368704 55.9117694,10.1960818 55.9117694,6.5684352 C55.9117694,2.94078861 58.9459014,0 62.6886929,0 C66.4314844,0 69.4656164,2.94078861 69.4656164,6.5684352 C69.4656164,10.1960818 66.4314844,13.1368704 62.6886929,13.1368704 Z" id="Mountains"></path>
                        </g>
                        <path d="M101.794663,-8.52651283e-14 L139,36.800354 L103.8706,43.0689177 C98.435462,44.0387752 94.7952256,40.4043311 95.7359308,34.9741001 L101.794663,-8.52651283e-14 Z" id="Angle" fill="#E1E5F0"></path>
                    </g>
                </g>
            </g>
        </g>
        <g id="Chair-2" transform="translate(965.000000, 578.000000)" fill="#D8DEED" fill-rule="nonzero">
            <path d="M297.6,273.6 L297.6,201.7 C297.6,158.1 297.6,114.6 297.6,71.1 L297.6,4.4 C297.6,2 256.1,0 206.2,0 L195.8,0 C146,0 104.4,2 104.4,4.4 L104.4,273.8 C104.4,276.2 145.9,278.2 195.8,278.2 L206.2,278.2 C256,278.3 297.6,276.2 297.6,273.6 Z" id="Path"></path>
            <path d="M2.5,518.8 L2.9,519 C5,520.1 7.7,519.5 8.7,517.6 L125.8,302.5 C126.9,300.5 126,298 123.9,296.9 L123.5,296.7 C121.4,295.6 118.7,296.2 117.7,298.1 L88.7,351.3 C69.8,386.1 50.9,420.8 31.9,455.6 L0.6,513 C-0.5,515 0.4,517.6 2.5,518.8 Z" id="Path"></path>
            <path d="M293.2,293.2 L219.9,293.2 C175.5,293.2 131.1,293.2 86.8,293.2 L18.8,293.2 C16.4,293.2 14.3,295.2 14.3,297.6 L14.3,298.1 C14.3,300.5 16.3,302.5 18.8,302.5 L293.4,302.5 C295.8,302.5 297.9,300.5 297.9,298.1 L297.9,297.6 C297.9,295.2 295.8,293.2 293.2,293.2 Z" id="Path"></path>
            <path d="M329,513 L297.7,455.6 C278.8,420.8 259.9,386.1 240.9,351.3 L211.9,298.1 C210.9,296.2 208.2,295.5 206.1,296.7 L205.7,296.9 C203.6,298 202.7,300.6 203.8,302.5 L320.9,517.6 C321.9,519.5 324.6,520.2 326.7,519 L327.1,518.8 C329.2,517.6 330.1,515 329,513 Z" id="Path"></path>
        </g>
        <g id="Characters-sitting-/-Man-sitting-/-2" transform="translate(810.000000, 341.000000)">
            <g id="Man" transform="translate(85.000000, 72.000000)">
                <g id="Legs" transform="translate(0.000000, 306.000000)" fill-rule="nonzero">
                    <path d="M291.075,369 L190.4,369 C189.706811,369 189.052063,369.133065 188.467732,369.369677 L197.367676,316.7502 L268.2,308 L291.075,369 Z M164.822517,369.226193 C164.376084,369.079349 163.897961,369 163.4,369 L4.5,369 C3.98989422,369 3.50060506,369.083267 3.04487497,369.237057 C2.74516715,368.744268 2.52365432,368.193541 2.4,367.6 C2.4,367.6 2.4,367.5 2.4,367.5 C2.4,367 2.3,366.5 2.4,366 C2.5,365.4 2.5,364.9 2.7,364.3 C4,359.8 7.5,356 9.8,353.9 C10.1,353.6 10.3,353.5 10.6,353.3 C15,350.6 19.5,348.1 24.2,346 C33.4,341.8 53.8,333.2 59.9,330.1 C67.8,326.1 78.7,319.3 90.1,307.1 C90.7,306.8 91.5,306.4 91.5,306.4 L161.5,304.7 C161.5,304.7 161.8,305.7 161.8,305.8 L165.3,367.1 C165.3,367.864281 165.128637,368.583858 164.822517,369.226193 Z" id="Shoes" fill="#474961"></path>
                    <path d="M4.5,369 L163.5,369 C165.985281,369 168,371.014719 168,373.5 C168,375.985281 165.985281,378 163.5,378 L4.5,378 C2.01471863,378 3.04359188e-16,375.985281 0,373.5 C-3.04359188e-16,371.014719 2.01471863,369 4.5,369 Z M190.5,369 L290.5,369 C292.985281,369 295,371.014719 295,373.5 C295,375.985281 292.985281,378 290.5,378 L190.5,378 C188.014719,378 186,375.985281 186,373.5 C186,371.014719 188.014719,369 190.5,369 Z" id="Base" fill="#DE3190"></path>
                    <path d="M285.001802,141.071582 C285.000601,142.555056 285,144.05585 285,145.572315 C285,196.535247 283.2,269.485842 282.6,293.709539 C282.5,296.877254 282.9,305.541884 276.9,311.0388 C274.5,313.181665 271.9,314.113346 270.3,314.672354 C252.6,320.541942 227.8,320.63511 200.6,318.399077 C198.8,318.212741 195.9,317.187892 192,316.069875 C186.1,314.299682 181.8,309.08227 181.2,302.84001 C178.4,275.448599 170.7,200.634642 170.1,194.019709 C169.3,185.634584 168.6,176.131441 168,165.323945 L166.035139,133.987985 C155.637536,131.785711 145.730439,129.372162 136.353147,126.841001 C149.195198,178.383015 161.723469,232.261255 172.8,285.795597 C173.3,288.140778 174.2,293.612867 171.6,298.791808 C166.8,308.270248 154.3,307.879384 124.4,311.592587 C89.2,316.087518 74.5,320.680164 66.5,311.201724 C63.8,308.172532 62.9,304.947908 62.6,303.48217 C55.3,265.079833 19.1,153.390592 5,73.2635773 C5,73.0681456 4.9,72.9704297 4.9,72.774998 C3.79097878,66.3932695 3.98173339,60.1124358 5.27467792,54.2206434 C8.06242798,26.7614335 30.9630267,5.06463958 59.2600508,4.47402647 L144.808317,2.68858 C182.208317,2.02128805 303.28769,-1.87884454 306.863786,1.54628547 C310.439881,4.97141549 311.908317,33.6699921 312.308317,45.8719021 C312.308317,50.352291 312.308317,54.9280072 312.408317,59.3130686 C312.408317,80.7617386 308.708317,100.399187 302.508317,115.556248 C298.208317,126.042264 292.808317,134.33575 286.708317,139.674085 C286.144935,140.166388 285.576043,140.632426 285.001802,141.071582 Z" fill="#A339FF"></path>
                    <path d="M284.827736,141.203754 C284.842381,123.597705 284.941748,108.44042 285.125837,98.4927387 C285.325837,89.9212767 286.825837,42.7782357 267.425837,32.9955888 C265.725837,32.1570762 264.025837,31.4117317 260.625837,30.2005468 C257.925837,29.2688662 243.925837,24.3309587 225.925837,25.0763032 C214.225837,25.5421436 196.625837,26.2874881 182.125837,38.0266643 C162.025837,54.4242438 162.525837,80.0454618 162.725837,84.2380247 L165.842755,133.947201 C155.421637,131.736049 145.494063,129.313001 136.09967,126.772518 C129.605647,100.716013 123.032,75.2582114 116.525837,50.7455798 C110.525837,28.1732135 89.4258368,13.5158328 67.1258368,16.3495931 C58.8258368,17.4244677 50.5258368,18.4993422 42.2258368,19.5742168 C23.7309729,22.0222734 9.68824767,35.8239334 5.37853991,53.2779047 C8.58856824,26.2664012 31.2876494,5.05786409 59.2600508,4.47402647 L144.808317,2.68858 C182.208317,2.02128805 303.28769,-1.87884454 306.863786,1.54628547 C310.439881,4.97141549 311.908317,33.6699921 312.308317,45.8719021 C312.308317,50.352291 312.308317,54.9280072 312.408317,59.3130686 C312.408317,80.7617386 308.708317,100.399187 302.508317,115.556248 C298.208317,126.042264 292.808317,134.33575 286.708317,139.674085 C286.088064,140.216084 285.461131,140.726248 284.827736,141.203754 Z" id="Shadow-Legs" fill="#444444" opacity="0.176985679"></path>
                </g>
                <g id="Body" transform="translate(78.000000, 0.000000)" fill-rule="nonzero">
                    <path d="M56.340014,241.679367 L13.32544,237.419905 C8.92544002,237.019905 8.91904724,227.94977 8.78991911,224.252024 C9.21032463,220.468375 10.9651061,214.759012 14.1285951,213.274927 C12.3579042,210.19804 12.0545631,204.740358 13.4029646,199.492066 C14.4782403,195.306842 18.2460799,192.819151 22.1476343,191.53577 C25.374226,181.098481 30.3669546,163.840223 32.2176825,155.592582 C37.7447864,130.484393 45.3154086,120.914353 47.9195352,118.121769 C50.9059683,114.81553 53.8273619,112.512171 55.7772843,111.043225 C68.9444951,101.277747 83.1869247,99.3795373 90.4754978,98.9248928 C90.671886,98.8179738 90.8717642,98.8109939 91.0716423,98.804014 L118.67026,97.4508705 C122.37923,97.0256446 125.893615,96.7583361 129.065646,96.5188248 C138.705815,95.8446604 148.655974,95.1337904 158.475192,96.3646999 L189.381497,96.8 C189.581497,96.8 189.781497,96.8 189.981497,96.9 C197.281497,97.1 211.581497,98.5 225.081497,107.8 C227.081497,109.2 230.081497,111.4 233.181497,114.6 C235.881497,117.3 243.781497,126.6 250.181497,151.5 C252.318936,159.678028 257.910928,176.751529 261.49981,187.069854 C265.443777,188.21629 269.29614,190.57097 270.516823,194.716117 C272.047566,199.914155 271.93488,205.379098 270.27265,208.515907 C273.486005,209.888683 275.438972,215.533327 275.991169,219.3 C275.991169,223 276.301323,232.064832 271.917963,232.618146 L233.070455,237.839611 C235.822712,259.410752 235.900124,277.420318 233.853647,289.31371 C233.853647,289.620708 233.745618,290.030039 233.637589,290.337037 C233.097445,293.509352 232.341243,296.170004 231.368983,298.318991 C231.260954,298.523657 231.152925,298.728322 231.044896,298.932988 C225.535424,306.710276 181.999791,303.947292 171.737049,304.25429 C154.884545,304.765954 135.43935,304.868287 111.456941,304.356623 C104.002949,304.151957 89.8511678,305.482283 72.5665492,300.979642 C72.4585203,300.979642 72.3504914,300.87731 72.3504914,300.87731 C72.3504914,300.87731 70.1899141,300.263313 67.7052502,298.830655 C66.5169326,298.114326 65.1125574,297.295664 63.9242398,296.170004 C53.1213532,286.448393 55.4979883,263.218861 55.4979883,263.218861 C55.781044,255.607404 56.0617845,248.435318 56.340014,241.679367 Z" id="T-shirt" fill="#DE3190"></path>
                    <path d="M153.196356,68.1433738 L154.281497,100 C154.281497,100.7 153.981497,101.4 153.381497,101.7 C150.781497,103.3 147.081497,105.1 142.481497,106.1 C134.181497,108 127.081497,106.6 123.081497,105.4 C122.281497,105.2 121.681497,104.4 121.681497,103.6 L121.288987,85.8062225 C115.612101,87.9221068 115.933935,87.711928 115.406837,87.8876273 C109.106837,89.4876273 103.706837,89.2876273 102.706837,89.0876273 C99.1068371,88.7876273 95.3068371,85.7876273 91.9068371,80.6876273 C87.3068371,73.8876273 83.2068371,63.2876273 81.0068371,50.5876273 C80.6068371,48.7876273 80.5068371,46.9876273 80.4068371,45.1876273 L80.0068371,27.2876273 C79.9068371,23.2876273 80.9068371,19.3876273 82.8068371,15.6876273 C83.6068371,14.0876273 84.4068371,12.7876273 85.4068371,11.6876273 C85.6191896,11.415175 85.8349132,11.1489836 86.0538151,10.8889154 C93.9143007,0.735323415 109.547159,-0.597202716 116.806837,0.187627298 C117.706837,0.287627298 120.906837,0.687627298 125.506837,0.987627298 C128.006837,1.1876273 130.006837,1.1876273 131.206837,1.2876273 C146.106837,1.8876273 152.006837,0.0876272983 159.506837,4.0876273 C160.906837,4.7876273 164.106837,6.5876273 166.906837,10.0876273 C174.806837,19.9876273 172.906837,32.7876273 172.406837,36.5876273 C170.606837,47.9876273 164.006837,54.9876273 162.006837,57.8876273 C159.745243,61.2234779 156.013143,65.2626142 153.196356,68.1433738 Z M15.0283564,282.987596 L22.1597912,238.348078 L56.2814969,241 L55.9072945,271.532302 C68.9490648,270.069829 81.8528698,269.904258 88.3713812,272.724023 C88.5588553,272.80411 88.7428076,272.886923 88.9232381,272.972461 C119.813326,267.127144 172.712382,257.454813 205.15089,253.4 L201.884091,241.863199 L269.060993,232.834001 C272.097941,265.894564 268.646122,305.898742 235.276096,310 C196.763167,314.733333 133.003818,314.733333 43.9980469,310 L0.0323865084,310 C-0.589774571,297.152697 7.87269843,289.766512 15.0283564,282.987596 Z" id="Skin" fill="#DB9E75"></path>
                    <path d="M170.484212,43.8475677 C165.796161,43.853799 161.326248,44.0773309 156.881445,44.3258761 C157.549175,40.7610443 157.016642,36.8550505 154.681497,33.6 C151.481497,29.1 145.481497,26.6 140.681497,28.2 C137.981497,29.1 136.181497,31.2 135.981497,31.4 C133.281497,34.8 132.681497,38.4 132.681497,38.4 L132.177677,43.360689 C124.143621,35.0401101 113.907068,24.5197203 106.268725,16.4880086 C101.763749,17.7221162 94.3305383,18.9562238 85.8837082,17.1611582 C84.7283455,16.9053976 83.6380163,16.5200699 82.6065432,16.0851716 C82.6721517,15.9524043 82.7389194,15.819888 82.8068371,15.6876273 C83.6068371,14.0876273 84.4068371,12.7876273 85.4068371,11.6876273 C85.6191896,11.415175 85.8349132,11.1489836 86.0538151,10.8889154 C93.9143007,0.735323415 109.547159,-0.597202716 116.806837,0.187627298 C117.706837,0.287627298 120.906837,0.687627298 125.506837,0.987627298 C128.006837,1.1876273 130.006837,1.1876273 131.206837,1.2876273 C146.106837,1.8876273 152.006837,0.0876272983 159.506837,4.0876273 C160.906837,4.7876273 164.106837,6.5876273 166.906837,10.0876273 C174.806837,19.9876273 172.906837,32.7876273 172.406837,36.5876273 C171.987171,39.2455154 171.306585,41.6642282 170.484212,43.8475677 Z M83.9814969,39.8 C82.9814969,39.6 82.6814969,38.3 83.3814969,37.6 C84.2814969,36.8 85.8814969,36 87.8814969,36 C91.9814969,36 96.3814969,38.7 91.7814969,39.9 C89.0814969,40.7 85.8814969,40.3 83.9814969,39.8 Z M104.581497,40.5 C103.581497,40.3 103.281497,39 104.081497,38.3 C104.981497,37.5 106.581497,36.7 108.681497,36.7 C112.781497,36.7 117.181497,39.5 112.581497,40.6 C109.681497,41.5 106.581497,40.9 104.581497,40.5 Z" id="Hair" fill="#482D1F"></path>
                    <path d="M14.9482909,283.229419 L22.1597912,238.348078 L56.2814969,241 L55.9044812,271.698617 C38.1359464,273.691389 20.1121518,278.091269 17.6323865,280.628263 C16.7735525,281.491855 15.8714463,282.355447 14.9482909,283.229419 Z" id="Shadow-Arms" fill="#8C2A00" opacity="0.2"></path>
                    <path d="M91.7814969,46.9 C91.6814969,48.6 91.3814969,51.4 90.3814969,52.4 C88.6814969,53.9 86.4814969,48.9 87.7814969,45.8 C88.2814969,44.5 88.9814969,44.3 89.7814969,44.4 C90.9814969,44.6 91.7814969,45.7 91.7814969,46.9 Z M109.681497,46.6 C109.781497,48.3 109.781497,51.1 108.781497,52.3 C107.281497,54 104.481497,49.2 105.481497,46 C105.881497,44.7 106.581497,44.4 107.381497,44.4 C108.581497,44.4 109.581497,45.4 109.681497,46.6 Z" id="Eyes" fill="#482D1F"></path>
                    <path d="M101.481497,67.2 C102.181497,67 103.881497,66.5 104.181497,65.4 C104.181497,65.2 104.281497,64.9 104.181497,64.7 C103.781497,64 102.581497,64.4 100.781497,64.5 C97.5814969,64.7 94.9814969,64.4 94.9814969,64.4 C94.9814969,64.4 95.6814969,66.4 96.1814969,67 C97.2814969,68.5 100.481497,67.5 101.481497,67.2 Z" id="Mouth" fill="#482D1F"></path>
                    <path d="M93.1911806,57.6611706 C93.0028835,58.7889176 93.8772235,59.8964149 95.0170979,60.0863939 C95.2666326,60.1095298 95.2666326,60.1095298 95.4284525,60.1219998 C97.1155892,60.2517097 98.1706187,60.3 99.9814969,60.3 C100.533782,60.3 100.981497,59.8522847 100.981497,59.3 C100.981497,58.7477153 100.533782,58.3 99.9814969,58.3 C98.2274914,58.3 97.2216294,58.2539602 95.5817635,58.1278845 L95.2581934,58.1029455 C95.2554672,58.0985346 95.1646974,57.9835595 95.1678908,57.964399 L96.6718132,47.2388294 L96.6814969,47.1 L96.6814969,41.2 C96.6814969,40.6477153 96.2337816,40.2 95.6814969,40.2 C95.1292121,40.2 94.6814969,40.6477153 94.6814969,41.2 L94.6814969,47.0302476 L93.1911806,57.6611706 Z" id="Nose" fill="#482D1F"></path>
                    <path d="M156.893485,39.0543769 C157.351317,41.9845057 156.823839,45.1744973 155.493742,47.7396828 C153.877248,50.9724304 151.601728,52.7354454 148.662439,54.0920406 C148.160987,54.3234801 147.942098,54.9176061 148.173537,55.4190582 C148.404977,55.9205103 148.999103,56.1393988 149.500555,55.9079594 C150.792987,55.3114524 151.81886,54.7356217 153.006457,53.8155012 C154.755823,52.4601367 156.219887,50.7592885 157.275924,48.6472136 C158.794647,45.7184837 159.393314,42.0979733 158.869509,38.7456231 C158.784249,38.1999591 158.272784,37.826728 157.72712,37.911988 C157.181456,37.997248 156.808225,38.5087129 156.893485,39.0543769 Z" id="Shadow" fill="#482D1F"></path>
                    <path d="M92.2561566,47.1123727 C92.1561566,48.8123727 91.8561566,51.6123727 90.8561566,52.6123727 C89.1561566,54.1123727 86.9561566,49.1123727 88.2561566,46.0123727 C88.7561566,44.7123727 89.4561566,44.5123727 90.2561566,44.6123727 C91.4561566,44.8123727 92.2561566,45.9123727 92.2561566,47.1123727 Z M110.156157,46.8123727 C110.256157,48.5123727 110.256157,51.3123727 109.256157,52.5123727 C107.756157,54.2123727 104.956157,49.4123727 105.956157,46.2123727 C106.356157,44.9123727 107.056157,44.6123727 107.856157,44.6123727 C109.056157,44.6123727 110.056157,45.6123727 110.156157,46.8123727 Z" id="Eyes" fill="#482D1F"></path>
                    <path d="M101.956157,67.4123727 C102.656157,67.2123727 104.356157,66.7123727 104.656157,65.6123727 C104.656157,65.4123727 104.756157,65.1123727 104.656157,64.9123727 C104.256157,64.2123727 103.056157,64.6123727 101.256157,64.7123727 C98.0561566,64.9123727 95.4561566,64.6123727 95.4561566,64.6123727 C95.4561566,64.6123727 96.1561566,66.6123727 96.6561566,67.2123727 C97.7561566,68.7123727 100.956157,67.7123727 101.956157,67.4123727 Z" id="Mouth" fill="#482D1F"></path>
                    <path d="M157.368145,39.2667496 C157.825977,42.1968784 157.298498,45.38687 155.968402,47.9520555 C154.351907,51.1848031 152.076388,52.9478181 149.137098,54.3044133 C148.635646,54.5358528 148.416758,55.1299788 148.648197,55.6314309 C148.879637,56.132883 149.473763,56.3517715 149.975215,56.1203321 C151.267647,55.5238251 152.29352,54.9479944 153.481117,54.027874 C155.230483,52.6725094 156.694546,50.9716612 157.750584,48.8595863 C159.269306,45.9308564 159.867973,42.310346 159.344169,38.9579958 C159.258909,38.4123318 158.747444,38.0391007 158.20178,38.1243607 C157.656116,38.2096207 157.282885,38.7210856 157.368145,39.2667496 Z" id="Shadow" fill="#482D1F"></path>
                    <path d="M203.333669,242.158871 C203.577297,242.950664 203.132922,243.79004 202.341129,244.033669 C201.549336,244.277297 200.70996,243.832922 200.466331,243.041129 C197.616405,233.778869 188.5174,205.707469 186.593651,200.52171 C186.305518,199.745005 186.701584,198.881783 187.47829,198.593651 C188.254995,198.305518 189.118217,198.701584 189.406349,199.47829 C191.355997,204.733861 200.467466,232.843711 203.333669,242.158871 Z M66.7727985,158.161305 C64.2727705,181.274615 62.2727565,199.713439 57.7727302,241.161936 C57.6832977,241.985506 56.9431709,242.580652 56.1195946,242.491237 C55.2960072,242.401821 54.7008438,241.661685 54.7902599,240.838098 C59.2902383,199.390042 61.2902239,180.95148 63.7901952,157.838695 C63.8792816,157.015072 64.6191789,156.419612 65.442802,156.508698 C66.2664252,156.597785 66.8618849,157.337682 66.7727985,158.161305 Z" id="Shadow" fill="#482D1F"></path>
                    <polygon id="Shadow" fill="#482D1F" points="121.313965 86.1590576 129.505127 82.5087891 121.507385 95.6930165"></polygon>
                </g>
            </g>
        </g>
        <g id="Chair" transform="translate(366.000000, 581.000000)" fill="#D8DEED" fill-rule="nonzero">
            <path d="M327.1,514.6 L326.7,514.8 C324.6,515.9 321.9,515.3 320.9,513.4 L203.8,298.3 C202.7,296.3 203.6,293.8 205.7,292.7 L206.1,292.5 C208.2,291.4 210.9,292 211.9,293.9 L240.9,347.1 C259.8,381.9 278.7,416.6 297.7,451.4 L329,508.8 C330.1,510.8 329.2,513.4 327.1,514.6 Z" id="Path"></path>
            <path d="M40,289 L113.3,289 C157.7,289 202.1,289 246.4,289 L314.4,289 C316.8,289 318.9,291 318.9,293.4 L318.9,293.9 C318.9,296.3 316.9,298.3 314.4,298.3 L39.8,298.3 C37.4,298.3 35.3,296.3 35.3,293.9 L35.3,293.4 C35.3,291 37.4,289 40,289 Z" id="Path"></path>
            <path d="M0.6,508.8 L31.9,451.4 C50.8,416.6 69.7,381.9 88.7,347.1 L117.7,293.9 C118.7,292 121.4,291.3 123.5,292.5 L123.9,292.7 C126,293.8 126.9,296.4 125.8,298.3 L8.7,513.4 C7.7,515.3 5,516 2.9,514.8 L2.5,514.6 C0.4,513.4 -0.5,510.8 0.6,508.8 Z" id="Path"></path>
            <path d="M9.9,4.6 L19.4,81.4 C25.2,127.9 30.9,174.4 36.7,220.8 L45.5,292 C45.8,294.5 44.1,297 41.7,297.3 L41.2,297.4 C38.8,297.7 36.6,295.9 36.2,293.2 L0.5,5.6 C0.2,3.1 1.9,0.6 4.3,0.3 L4.8,0.2 C7.3,-0.1 9.6,1.9 9.9,4.6 Z" id="Path"></path>
        </g>
        <g id="Characters-sitting-/-Woman-sitting/-4" transform="translate(349.000000, 341.000000)">
            <g id="Woman" transform="translate(58.000000, 82.000000)">
                <g id="Legs" transform="translate(4.000000, 300.000000)" fill-rule="nonzero">
                    <path d="M133.726203,364.90753 L187.8,364.90753 C190.3,364.90753 192.4,366.961878 192.4,369.40753 C192.4,371.853183 190.3,373.90753 187.8,373.90753 L132.3,373.90753 C129.8,373.90753 127.8,371.951009 127.7,369.40753 C127.7,366.961878 129.8,364.90753 132.3,364.90753 L133.726203,364.90753 L134.8,365.70753 C136.8,367.20753 137.2,370.10753 135.7,372.10753 C134.2,374.10753 131.3,374.50753 129.3,373.00753 L28.9,298.20753 C26.9,296.70753 26.5,293.80753 28,291.80753 C29.5,289.80753 32.4,289.40753 34.4,290.90753 L133.726203,364.90753 Z M397.9,373.803226 L239.1,373.803226 C236.6,373.803226 234.6,371.803226 234.6,369.303226 C234.6,366.803226 236.6,364.803226 239.1,364.803226 L398,364.803226 C400.5,364.803226 402.5,366.803226 402.5,369.303226 C402.4,371.803226 400.4,373.803226 397.9,373.803226 Z" id="Base" fill="#FFCB3D"></path>
                    <path d="M34.4181867,290.989972 L71.1,239 L131.3,282.7 C134.6,293.9 138,305.1 141.4,316.4 C143.2,322.3 145,328.1 146.8,333.9 C152.4,336.1 157.2,338.1 160.6,339.6 C167.1,342.4 172.6,345 178.6,348.9 C178.6,348.9 183.8,352.1 186.7,356.7 C187.6,358.2 188.4,359.9 188.9,361.7 C189.1,362.5 189.1,363.3 189.2,364 C189.183138,364.354106 189.132156,364.730959 189.05904,365.112819 C188.630017,364.979603 188.17579,364.90753 187.70753,364.90753 L133.633734,364.90753 L34.4181867,290.989972 Z M399.151592,364.974813 C398.757017,364.863005 398.339746,364.803226 397.90753,364.803226 L239.00753,364.803226 C238.380249,364.803226 237.784446,364.92914 237.243817,365.157273 C236.958827,364.53338 236.8,363.83902 236.8,363.103226 L241.183391,304.903226 C241.050057,302.903226 263.655594,301.936559 309,302.003226 C310.1,302.003226 311.1,302.303226 312,303.003226 C323.4,315.203226 334.3,322.003226 342.2,326.003226 C348.3,329.103226 368.7,337.703226 377.9,341.903226 C382.6,344.003226 387.1,346.503226 391.5,349.203226 C391.8,349.403226 392,349.503226 392.3,349.803226 C394.6,351.903226 398.1,355.703226 399.4,360.203226 C399.6,360.803226 399.6,361.303226 399.7,361.903226 C399.8,362.403226 399.7,362.903226 399.7,363.403226 C399.7,363.403226 399.7,363.503226 399.7,363.503226 C399.59001,364.031177 399.402595,364.525254 399.151592,364.974813 L399.151592,364.974813 Z" id="Shoes" fill="#474961"></path>
                    <path d="M118.48772,137.075538 L78.228275,143.27472 C44.2347116,148.745817 5.95542668,122.734109 0.987885898,85.4922545 C0.500872095,82.228793 0.306066574,78.9653315 0.306066574,75.70187 C0.306066574,44.79497 2.3,11.7836261 34,4.86555886 C65.7,-2.05250838 275.841164,2.94587563 300.111763,2.94587563 C324.382363,2.94587563 333.128514,12.5023044 341.960938,26.5765113 C350.793361,40.6507183 348.131324,64.7283408 345.891061,79.8938383 C341.897548,107.249324 339.85209,128.173872 339.072868,150.538181 C338.878062,155.241405 338.585854,160.232581 338.293646,165.799663 C336.540396,199.010183 334.981952,212.735918 332.059869,255.832806 C330.988439,272.917987 330.111814,287.699548 329.429994,298.929695 C329.137786,304.496776 324.365051,308.912048 318.715691,308.912048 L312.968928,308.912048 L232.864913,309.2 C226.825942,309.2 221.858401,304.304808 222.053206,298.35379 L223.124637,258.520363 L223.806456,234.716291 C224.187278,221.347107 224.568099,207.083826 224.948921,192.57629 C215.849013,204.100717 207.555095,214.693648 200.067166,224.355082 C194.00357,232.31696 187.059131,241.464479 178.4,253 C166.9,268.3 157.2,281.5 149.8,291.7 C146.559856,296.078573 140.635646,297.543017 135.519505,295.488924 C134.732858,295.186359 133.964257,294.801348 133.226264,294.331715 L127.726264,290.731715 L89.7262635,266.431715 L58.8262635,246.631715 C52.9262635,242.831715 51.2262635,235.231715 55.0262635,229.731715 L80.1262635,193.131715 L95.1262635,171.231715 C100.427211,163.46521 108.214363,152.079818 118.48772,137.075538 Z" fill="#474BFF"></path>
                    <path d="M224.627754,192.951349 C205.634829,217.00902 190.167665,236.991904 178.226264,252.9 C166.726264,268.2 157.026264,281.4 149.626264,291.6 C145.926264,296.6 138.726264,297.8 133.226264,294.3 L127.726264,290.7 L89.7262635,266.4 L58.8262635,246.6 C52.9262635,242.8 51.2262635,235.2 55.0262635,229.7 L80.1262635,193.1 L95.1262635,171.2 C100.455533,163.392001 108.297643,151.926342 118.652596,136.803022 L226.519875,120.19353 L226.519875,122.982695 L225.838056,146.786767 C225.434622,161.943648 225.031189,177.589377 224.627756,192.951346 Z" id="Shadow-Legs" fill="#444444" opacity="0.176985679"></path>
                    <path d="M241.431634,96.8970246 C236.522923,104.321966 235.052989,106.345143 233.558688,108.017338 C231.902989,109.870143 230.33959,112.021966 225.331634,119.597025 C224.722477,120.518438 224.975612,121.75921 225.897025,122.368366 C226.818438,122.977523 228.05921,122.724388 228.668366,121.802975 C233.577077,114.378034 235.047011,112.354857 236.541312,110.682662 C238.197011,108.829857 239.76041,106.678034 244.768366,99.1029754 C245.377523,98.1815622 245.124388,96.9407904 244.202975,96.3316339 C243.281562,95.7224775 242.04079,95.9756115 241.431634,96.8970246 Z" id="Shadow" fill="#482D1F"></path>
                </g>
                <g id="Body" transform="translate(0.560443, 0.393031)">
                    <path d="M169.439557,185.506969 C184.139557,174.506969 222.139557,144.606969 222.139557,144.606969 C234.539557,155.806969 204.739557,175.906969 204.739557,175.906969" id="Finger" fill="#482D1F" fill-rule="nonzero"></path>
                    <g id="Path" transform="translate(0.520969, 94.000000)">
                        <mask id="mask-2" fill="white">
                            <use xlink:href="#path-1"></use>
                        </mask>
                        <use id="T-shirt" fill="#FFCB3D" fill-rule="nonzero" xlink:href="#path-1"></use>
                    </g>
                    <path d="M92.7444953,95.4542991 C102.229452,94.5890404 115.036458,96.7459227 126.239557,103.206969 C138.139557,110.106969 143.99666,119.40142 154.49666,137.50142 C163.29666,152.50142 170.939557,165.606969 165.339557,174.606969 C161.657492,180.517653 153.468745,182.109432 147.86939,182.566444 L148.215249,150.459223 L148.215249,148.659223 C148.615249,119.659223 126.415249,95.8592226 98.5152486,95.5592226 L92.744488,95.4542997 Z" id="Combined-Shape" fill="#8C2A00" fill-rule="nonzero" opacity="0.2"></path>
                    <path d="M255.679115,192.646527 L257.179115,201.446527 C257.879115,205.146527 254.579115,208.346527 250.879115,207.546527 L242.179115,205.646527 L193.879115,155.246527 C191.879115,153.146527 191.979115,149.746527 194.079115,147.746527 L199.979115,142.046527 C202.079115,140.046527 205.479115,140.146527 207.479115,142.246527 L255.679115,192.646527 Z" id="Pensil" fill="#FFCB3D" fill-rule="nonzero" transform="translate(224.856557, 174.138624) rotate(10.000000) translate(-224.856557, -174.138624) "></path>
                    <path d="M195.389196,171.097247 L222.786921,154.433254 C225.303614,152.94394 228.553431,154.017926 230.000963,156.883138 L231.331234,159.415142 C232.370732,161.545011 232.149642,163.972388 231.020879,165.768379 C233.050214,165.613312 234.993304,166.811723 235.983437,169.048726 L237.31754,171.65384 C238.564336,174.273968 238.009294,177.328756 236.253459,179.186446 C238.692233,178.08149 241.641593,179.194672 243.006146,181.982028 L244.335962,184.505359 C245.788873,187.473201 244.777239,191.021164 242.266201,192.618385 L225.993924,202.484494 C205.453785,217.193 186.20074,230.263229 168.234789,241.695181 L169.218484,249.714446 C191.074583,253.010315 221.157724,257.552802 259.467908,263.341907 L259.886502,263.404732 C266.893518,262.80615 273.004462,263.856584 277.177671,264.719307 C287.645073,263.669532 298.007296,262.525028 308.374759,261.48049 C316.764795,259.035979 335.596038,255.041862 336.824351,267.006341 C336.824351,267.006341 328.744609,269.635071 317.80331,273.115453 C302.327683,278.036354 281.03424,284.76576 269.009328,288.603653 L268.580916,288.617162 L219.037402,301.902474 L139.088316,301.732107 C139.000069,301.408916 138.912246,301.087062 138.824848,300.766547 C141.821363,299.251208 143.624991,297.587779 143.861981,295.800709 C145.198332,285.723668 146.199093,272.621692 146.864266,256.494781 L146.880537,254.873742 C122.059094,269.686604 100.009073,280.971864 80.7304737,288.729519 C69.3304737,293.329519 58.1304737,297.429519 47.2304737,301.029519 C21.8304737,306.029519 11.0395573,291.706969 8.13955732,288.806969 C4.73955732,285.406969 -2.16044268,275.906969 10.3395573,219.706969 C12.7150339,209.040614 15.1989859,199.393927 17.5589953,190.938695 C18.8764129,191.059467 20.1301662,191.102512 21.2581461,191.102512 C45.5758695,187.951355 64.3801457,193.574508 87.9056682,191.684089 C85.0149534,199.056507 81.2595831,207.897467 76.6395573,218.206969 C99.8386552,210.255864 123.464576,201.342055 147.517319,191.465543 L147.615029,182.392315 C151.427382,182.09443 156.499791,181.276178 160.52694,178.902843 C160.53405,178.945936 160.541087,178.988827 160.548054,179.031513 L161.365187,185.692931 C172.392072,181.027924 183.507458,176.163303 194.711345,171.099067 C194.859999,171.02474 195.085949,171.024134 195.389196,171.097247 Z M74.353173,94.2465828 C76.533409,88.5163039 78.6765914,83.4493018 80.9582009,77.4183778 C80.9506663,77.4140314 80.9444371,77.4102226 80.9395573,77.4069694 L83.043724,59.9711326 C82.843724,58.8711326 81.9395573,59.3069694 80.9395573,59.0069694 C78.3395573,58.3069694 76.0829237,56.1372429 74.2829237,54.1372429 C70.9829237,50.3372429 70.4395573,44.8069694 72.0395573,39.7069694 C74.0395573,34.8069694 79.2395573,31.1069694 84.0395573,31.5069694 C85.8395573,31.7069694 87.5395573,32.4069694 89.1395573,33.4069694 L89.2395573,33.5069694 C89.7395573,34.0069694 90.4395573,34.1069694 91.1395573,34.2069694 C92.8395573,34.2069694 94.2395573,33.0069694 94.3395573,31.3069694 L95.2395573,5.20696943 C95.2395573,3.50696943 96.5395573,2.30696943 98.2395573,2.30696943 C101.939557,2.30696943 105.539557,2.10696943 109.239557,1.30696943 C109.739557,1.30696943 110.139557,1.20696943 110.539557,1.20696943 C114.139557,0.806969432 133.439557,-0.393030568 143.839557,13.9069694 C144.739557,15.3069694 145.639557,16.7069694 146.339557,18.1069694 C148.139557,21.7069694 148.939557,25.7069694 148.639557,29.9069694 L147.539557,48.1069694 C147.339557,49.9069694 147.139557,51.7069694 146.739557,53.6069694 C141.939557,76.1069694 131.739557,91.7069694 123.139557,92.2069694 C118.739557,92.3069694 114.339557,91.8069694 110.039557,90.5069694 C109.50475,90.239566 109.843889,90.4488599 103.833643,88.0189054 L102.571972,94.8319299 C108.204316,95.9000728 114.013955,97.62074 119.884004,100.197681 C117.984004,102.697681 115.939557,105.006969 113.839557,106.606969 C91.0395573,124.406969 38.8047917,105.211657 47.8226889,101.54078 C52.2475092,99.7395876 61.8681454,95.9534896 74.353173,94.2465828 Z" id="Skin" fill="#BF865F" fill-rule="nonzero"></path>
                    <path d="M147.49865,254.238779 C154.21286,250.227362 161.129452,245.958344 168.248426,241.431724 L169.285924,249.783983 C183.831929,252.024874 213.990045,256.573992 259.760273,263.431337 C259.774812,263.43015 259.789312,263.428959 259.803815,263.42777 C266.983707,262.750767 273.248455,263.955595 277.503522,264.835241 C287.970924,263.785466 298.007296,262.525028 308.374759,261.48049 C316.764795,259.035979 335.596038,255.041862 336.824351,267.006341 C335.810407,267.361364 329.359319,269.339198 318.418019,272.819579 C302.942393,277.74048 281.648949,284.469886 269.624037,288.307779 L269.195626,288.321289 L219.652112,301.606601 L139.703026,301.436234 C139.614778,301.113042 139.526956,300.791189 139.439557,300.470673 C142.436073,298.955334 144.239701,297.291906 144.47669,295.504836 C145.813041,285.427795 146.813803,272.325819 147.478975,256.198907 L147.49865,254.238779 Z M148.135009,190.892879 L148.229739,182.096442 C151.839135,181.814415 156.577999,181.065951 160.489938,178.972947 L161.289468,185.40947 C156.890559,187.269051 152.50574,189.096854 148.135009,190.892879 Z" id="Shadow-Arm" fill="#8C2A00" fill-rule="nonzero" opacity="0.2"></path>
                    <path d="M379.939557,239.886878 L379.939557,239.886878 C380.739557,242.986878 378.939557,246.086878 375.839557,246.886878 L237.039557,284.286878 C233.939557,285.086878 230.839557,283.286878 230.039557,280.186878 L230.039557,280.186878 C229.239557,277.086878 231.039557,273.986878 234.139557,273.186878 L372.939557,235.786878 C375.939557,235.086878 379.139557,236.886878 379.939557,239.886878 Z" id="Notepad" fill="#474961" fill-rule="nonzero"></path>
                    <path d="M50.9788433,31.0158258 C51.1226764,25.1787155 52.4211315,17.4211993 57.5395573,11.0069694 C59.6395573,8.30696943 62.4395573,6.30696943 65.4395573,4.80696943 C73.4395573,0.806969432 79.5395573,2.80696943 95.3395573,2.40696943 C98.5395573,2.40696943 103.239557,1.90696943 109.239557,1.30696943 C113.339801,0.8 138.017731,-2.35250322 143.839557,13.9069694 C141.786286,13.5069694 136.939557,13.4069694 132.439557,14.5069694 C113.039557,19.3069694 107.339557,52.9069694 98.4395573,51.5069694 C98.3549586,51.4963946 98.2647685,51.4813467 98.1695783,51.4605248 L98.2395573,51.4069694 L93.9395573,39.6069694 C92.9395573,37.2069694 91.2395573,35.3069694 89.2395573,33.7069694 C87.6395573,32.7069694 85.9395573,32.0069694 84.1395573,31.8069694 C79.3395573,31.4069694 74.1395573,35.1069694 72.1395573,40.0069694 C70.2395573,44.9069694 71.1395573,50.4069694 74.6395573,54.2069694 C76.8395573,56.7069694 79.8395573,58.4069694 83.1395573,59.0069694 L83.3892958,59.0022574 C82.7558174,66.4836889 81.8079573,76.5360955 80.8701421,77.9132063 C79.375453,81.8349252 77.9564216,85.2603959 76.5429472,88.7644424 C74.5277641,88.6005923 72.7393178,88.4286877 71.3395573,88.3069694 C66.9395573,87.9069694 60.4395573,87.4069694 52.2395573,86.9069694 C52.2395573,86.9069694 51.6395573,86.9069694 51.1395573,86.8069694 C48.5395573,86.4069694 46.0395573,86.0069694 43.5395573,84.7069694 C43.5395573,84.7069694 42.7395573,84.4069694 42.0395573,83.8069694 C27.9395573,72.2069694 24.8395573,55.6069694 30.8395573,46.3069694 C35.1395573,39.8069694 43.5395573,37.3069694 44.7395573,36.9069694 C46.3395573,36.4069694 47.9395573,36.2069694 49.3395573,36.1069694 C49.885986,34.4676834 50.4324147,32.7454573 50.9788433,31.0158258 Z M133.439557,42.8069694 C131.439557,43.3069694 128.139557,43.8069694 125.439557,43.1069694 C120.739557,42.1069694 125.139557,39.3069694 129.439557,39.1069694 C131.439557,39.0069694 133.039557,39.8069694 134.039557,40.6069694 C134.739557,41.3069694 134.439557,42.6069694 133.439557,42.8069694 Z M150.439557,42.4069694 C148.439557,43.1069694 145.339557,44.0069694 142.439557,43.5069694 C137.539557,42.8069694 141.739557,39.6069694 145.939557,39.1069694 C148.139557,38.8069694 149.639557,39.5069694 150.739557,40.2069694 C151.639557,40.8069694 151.439557,42.1069694 150.439557,42.4069694 Z" id="Hair" fill="#482D1F" fill-rule="nonzero"></path>
                    <path d="M143.039557,55.0069694 C142.139557,53.8069694 142.439557,51.1069694 142.739557,49.3069694 C142.839557,48.0069694 144.039557,47.2069694 145.139557,47.2069694 C145.839557,47.3069694 146.739557,47.7069694 146.939557,49.1069694 C147.639557,52.4069694 144.239557,57.0069694 143.039557,55.0069694 Z M126.539557,55.1069694 C125.539557,53.9069694 125.939557,51.1069694 126.239557,49.4069694 C126.339557,48.1069694 127.539557,47.3069694 128.639557,47.3069694 C129.339557,47.4069694 130.239557,47.8069694 130.439557,49.2069694 C131.139557,52.5069694 127.839557,57.1069694 126.539557,55.1069694 Z" id="Eyes" fill="#482D1F" fill-rule="nonzero"></path>
                    <path d="M142.030489,47.4413331 C142.104696,46.8940564 141.721198,46.3902444 141.173921,46.3160373 C140.626644,46.2418303 140.122832,46.6253291 140.048625,47.1726058 L139.248625,53.0726058 L139.239601,53.197624 L139.140559,63.7950687 C139.102599,63.9139252 139.007993,63.9925843 138.87724,64.0051877 C137.622932,63.8721826 136.113936,63.8747553 134.344896,64.0098736 C133.794216,64.0519344 133.381898,64.5324463 133.423958,65.0831271 C133.466019,65.6338079 133.946531,66.046126 134.497212,66.0040652 C136.185174,65.8751395 137.597703,65.8751395 138.729126,66.0008532 L138.839557,66.0070174 C140.007516,66.0070174 140.941757,65.1765328 141.125951,64.0713684 L141.139514,63.9163148 L141.238927,53.2791073 L142.030489,47.4413331 Z" id="Nose" fill="#482D1F" fill-rule="nonzero"></path>
                    <path d="M133.239557,73.7069694 C132.539557,73.6069694 130.739557,73.2069694 130.339557,72.1069694 C130.339557,71.9069694 130.139557,71.6069694 130.239557,71.4069694 C130.539557,70.9069694 133.639557,70.9069694 133.639557,70.9069694 C137.739557,71.0069694 138.739557,70.8069694 139.039557,71.3069694 C139.139557,71.6069694 139.139557,72.0069694 138.439557,72.9069694 C137.539557,74.6069694 134.239557,74.0069694 133.239557,73.7069694 Z" id="Path" fill="#482D1F" fill-rule="nonzero"></path>
                    <path d="M76.0120605,216.844528 C76.7645163,216.497971 77.6554422,216.827017 78.0019991,217.579473 C78.3485561,218.331928 78.01951,219.222854 77.2670542,219.569411 L45.5670542,234.169411 C44.8145983,234.515968 43.9236724,234.186922 43.5771155,233.434466 C43.2305586,232.68201 43.5596046,231.791085 44.3120605,231.444528 L76.0120605,216.844528 Z M93.3250718,170.7062 C93.0493546,169.925001 93.4591284,169.068201 94.2403271,168.792484 C95.0215259,168.516767 95.8783256,168.92654 96.1540428,169.707739 C96.2241617,169.906409 96.3412661,170.26141 96.4896291,170.750369 C96.7342874,171.556688 96.9783988,172.451498 97.2061621,173.412753 C97.82808,176.037503 98.2151979,178.660799 98.2509418,181.135985 C98.3616355,188.801271 95.0500281,193.707902 87.4196915,193.606838 C86.591337,193.595866 85.9287173,192.915458 85.9396889,192.087104 C85.9506605,191.258749 86.6310687,190.596129 87.4594231,190.607101 C93.0925617,190.681712 95.3403829,187.351236 95.2512546,181.179303 C95.2190561,178.949633 94.8624587,176.533157 94.2869877,174.104432 C94.0741808,173.206299 93.8462527,172.37081 93.6188716,171.621432 C93.4840108,171.176972 93.3808301,170.864182 93.3250718,170.7062 Z" id="Shadow" fill="#482D1F" fill-rule="nonzero"></path>
                    <polygon id="Shadow" fill="#482D1F" fill-rule="nonzero" points="104.039557 87.9069694 95.9395573 84.6069694 100.739557 102.706969"></polygon>
                </g>
            </g>
        </g>
        <g id="Interior-/-Table-/-Table-2" transform="translate(406.000000, 719.000000)" fill="#D8DEED">
            <g id="Table-Copy">
                <rect id="Rectangle" fill-rule="nonzero" x="0" y="0" width="815" height="14" rx="7"></rect>
            </g>
        </g>
        <g id="UI-/-Web-design-/-Web-design-2-/-1" transform="translate(562.000000, 177.000000)">
            <g id="Color-palette" stroke-width="1" fill-rule="evenodd" transform="translate(0.641026, 0.629820)">
                <g id="Browser" fill="#F2F6FB" fill-rule="nonzero">
                    <path d="M304.377676,243.477467 L20.5171302,243.477467 C9.37077366,243.477467 0.267915845,233.75682 0.267915845,221.853986 L0.267915845,22.1839451 C0.267915845,10.2811111 9.37077366,0.560463349 20.5171302,0.560463349 L304.377676,0.560463349 C315.524032,0.560463349 324.62689,10.2811111 324.62689,22.1839451 L324.62689,221.754795 C324.62689,233.75682 315.524032,243.477467 304.377676,243.477467 Z" id="Path"></path>
                </g>
                <ellipse id="Oval" fill="#FFCB3D" fill-rule="nonzero" cx="93.5897436" cy="108.958869" rx="26.9230769" ry="26.4524422"></ellipse>
                <ellipse id="Oval" fill="#3ABF7C" fill-rule="nonzero" cx="160.25641" cy="108.958869" rx="26.9230769" ry="26.4524422"></ellipse>
                <ellipse id="Oval" fill="#A339FF" fill-rule="nonzero" cx="226.923077" cy="108.958869" rx="26.9230769" ry="26.4524422"></ellipse>
                <rect id="Rectangle" fill="#E1E5F0" fill-rule="nonzero" x="67.3076923" y="178.239075" width="191.025641" height="10.0771208" rx="5.03856041"></rect>
                <rect id="Rectangle" fill="#E1E5F0" fill-rule="nonzero" x="67.3076923" y="158.084833" width="191.025641" height="10.7069409" rx="5.35347044"></rect>
            </g>
            <path d="M0,13.8560411 C0,6.20356092 6.20209873,0 13.8608769,0 L311.139123,0 C318.794274,0 325,6.20187835 325,13.8560411 L325,27.7120823 L0,27.7120823 L0,13.8560411 Z" id="Top-bar-Copy" fill="#E1E5F0" fill-rule="nonzero"></path>
            <ellipse id="Burron-Copy" fill="#FF5645" fill-rule="nonzero" cx="18.9102564" cy="14.1709512" rx="6.08974359" ry="5.98329049"></ellipse>
            <ellipse id="Burron-Copy-2" fill="#FFCB3D" fill-rule="nonzero" cx="38.7820513" cy="14.1709512" rx="6.08974359" ry="5.98329049"></ellipse>
            <ellipse id="Burron-Copy-3" fill="#3ABF7C" fill-rule="nonzero" cx="59.2948718" cy="14.1709512" rx="6.08974359" ry="5.98329049"></ellipse>
        </g>
        <g id="Active-objects-/-Devices-/-Laptop" transform="translate(769.000000, 453.000000)" fill="#474961">
            <g id="Laptop-2" transform="translate(177.000000, 192.500000) scale(-1, 1) translate(-177.000000, -192.500000) translate(74.000000, 119.000000)">
                <path d="M154.451704,143.509238 C153.455365,145.2701 151.565004,146.46022 149.4,146.46022 L5.7,146.46022 C2.5,146.46022 -5.68434189e-14,143.86022 -5.68434189e-14,140.66022 C-5.68434189e-14,137.46022 2.6,134.86022 5.7,134.86022 L145.475148,134.86022 L194.2,3.76021996 C195.3,0.760219964 198.6,-0.739780036 201.6,0.360219964 C204.6,1.46021996 206.1,4.76021996 205,7.76021996 L154.9,142.56022 C154.776937,142.895847 154.626338,143.2127 154.451704,143.509238 Z" id="Laptop" fill-rule="nonzero"></path>
            </g>
        </g>
    </g>
</svg>