<?xml version="1.0" encoding="UTF-8" standalone="no"?> <svg xmlns="http://www.w3.org/2000/svg" xmlns:xlink="http://www.w3.org/1999/xlink" xmlns:serif="http://www.serif.com/" width="100%" height="100%" viewBox="0 0 893 443" version="1.1" xml:space="preserve" style="fill-rule:evenodd;clip-rule:evenodd;stroke-linejoin:round;stroke-miterlimit:2;"> <g transform="matrix(1,0,0,1,-290.953,-286.803)"> <g transform="matrix(4.16667,0,0,4.16667,0,0)"> <g id="main-imagotype-application" serif:id="main imagotype application"> <g transform="matrix(-1,0,0,1,460.4,-569.864)"> <rect x="176.453" y="705.221" width="107.494" height="1.312" style="fill:rgb(70,70,71);"></rect> </g> <g transform="matrix(1,0,0,1,118.888,174.982)"> <path d="M0,-105.066L0,-105.07C-0.12,-105.07 -0.24,-105.068 -0.36,-105.068C-0.484,-105.068 -0.608,-105.07 -0.732,-105.07L-0.732,-105.066C-20.868,-104.979 -40.929,-101.325 -49.059,-95.917L-49.059,-27.821C-44.48,-17.7 -19.685,-3.074 -0.732,-0.113L-0.732,0.004C-0.611,-0.013 -0.487,-0.036 -0.366,-0.055C-0.244,-0.036 -0.121,-0.013 0,0.004L0,-0.113C18.965,-3.067 44.236,-17.455 48.815,-27.576L48.815,-96.039C40.685,-101.447 20.148,-104.982 0,-105.066" style="fill:rgb(155,77,19);fill-rule:nonzero;"></path> </g> <g transform="matrix(1,0,0,1,106.562,81.307)"> <path d="M0,22.206C0.168,19.168 1.074,16.654 3.254,15.046C1.804,13.974 0.745,12.482 0,10.653C-1.171,11.45 -1.633,12.602 -1.464,14.07L-6.102,10.653C-7.13,9.472 -7.08,8.304 -5.451,7.155C-3.881,6.262 -2.708,5.326 -3.01,4.226C-2.279,2.47 -2.873,1.105 -4.881,0.158C-4.518,1.416 -4.49,2.448 -5.288,2.924C-6.21,2.912 -6.81,3.668 -7.322,4.633C-7.21,3.789 -7.25,3.047 -7.973,2.761C-8,0.69 -9.054,0 -10.739,0.158C-10.199,1.124 -9.932,2.167 -10.088,3.331C-11.095,3.283 -10.998,4.288 -10.86,5.331C-11.362,4.242 -11.92,3.38 -12.731,3.541C-14.4,0.158 -16.76,3.575 -16.76,3.575C-16.76,3.575 -14.736,4.219 -14.889,5.202C-15.738,6.015 -15.393,6.889 -14.238,7.806L-11.716,10.002C-11.339,10.372 -11.422,10.768 -11.797,11.182L-13.261,12.443C-13.932,13.055 -13.727,13.839 -13.017,14.721C-12.911,15.456 -13.674,16.042 -14.644,16.592C-11.857,18.287 -10.031,16.644 -8.543,13.826L-7.485,13.419L-3.905,16.592C-5.31,17.207 -5.903,18.193 -6.102,19.358C-4.224,18.989 -2.173,20.08 0,22.206" style="fill:rgb(248,241,227);fill-rule:nonzero;"></path> </g> <g transform="matrix(1,0,0,1,117.911,97.2812)"> <path d="M0,-10.955L-1.342,-11.992C-0.846,-13.076 0.848,-12.859 2.746,-12.419C2.622,-10.8 1.746,-10.262 0,-10.955M15.865,-16.447C11.953,-15.876 8.298,-15.081 7.627,-13.884C6.674,-12.895 6.159,-13.323 6.529,-14.696C7.815,-15.903 10.303,-16.013 13.302,-16.203C13.875,-16.595 13.967,-16.925 12.997,-17.118C8.562,-17.187 4.088,-16.832 2.929,-14.738L-0.915,-15.043C-2.678,-15.486 -3.091,-14.759 -3.051,-13.64C-7.241,-14.392 -8.894,-11.023 -6.102,-7.782L-5.553,-8.819C-5.227,-9.111 -4.732,-9.366 -3.783,-9.124C-1.829,-8.245 -0.255,-7.371 0.854,-6.562C2.11,-5.666 1.689,-5.239 0.244,-5.097L-3.844,-4.803C-5.695,-5.24 -5.776,-2.921 -3.966,-3.084L2.441,-3.023C5.152,-4.317 5.226,-5.957 3.417,-7.843C4.327,-7.85 5.061,-7.233 5.492,-5.524C5.485,-4.132 4.297,-3.156 2.624,-2.351C-5.596,-0.824 -9.314,2.129 -9.397,6.232L6.163,4.605C10.386,-0.015 13.38,-4.909 9.722,-9.47C9.071,-10.894 9.848,-10.743 11.044,-10.223C11.845,-9.94 11.89,-10.231 11.899,-11.138C12.276,-13.241 13.794,-14.475 15.865,-15.287C16.481,-15.66 16.441,-16.048 15.865,-16.447" style="fill:rgb(248,241,227);fill-rule:nonzero;"></path> </g> <g transform="matrix(1,0,0,1,101.599,128.937)"> <path d="M0,-23.431C4.825,-23.69 12.534,-23.917 21.601,-25.139C26.081,-27.009 30.181,-31.806 30.306,-37.103C29.426,-38.989 29.351,-40.31 30.753,-40.598C39.128,-41.504 46.427,-43.075 51.581,-45.967C52.947,-42.025 50.746,-39.29 46.211,-37.343C44.614,-36.634 42.521,-36.118 40.028,-35.757C38.401,-35.675 38.686,-34.211 40.028,-34.252C44.035,-34.653 47.9,-35.319 51.581,-36.326C52.605,-32.896 50.676,-30.66 47.31,-29.004C44.131,-28.43 41.175,-28.059 38.726,-28.15C36.896,-28.007 36.721,-26.947 37.791,-26.645C41.407,-26.241 44.796,-26 47.635,-26.156C47.698,-22.389 44.833,-20.431 40.511,-20.319C38.566,-20.483 36.634,-21.046 34.699,-21.763C33.174,-22.129 32.625,-21.295 33.967,-20.746C35.474,-19.818 37.045,-19.082 38.726,-18.672C37.339,-16.391 35.168,-15.282 31.974,-15.702C30.4,-16.535 29.059,-17.347 28.394,-18.102C27.331,-19.053 26.441,-18.631 27.133,-17.329C27.893,-16.028 29.414,-15.003 31.201,-14.075C30.15,-12.679 28.54,-12.374 26.441,-13.017C24.742,-14.725 23.158,-16.171 21.641,-17.329C20.563,-18.122 19.546,-16.821 20.624,-15.987C22.219,-13.849 23.923,-12.135 25.872,-11.39C27.621,-10.515 28.431,-8.38 26.319,-5.654C25.417,-4.468 25.268,-3.364 26.035,-2.359C28.536,-0.59 29.938,1.466 29.248,4.068C28.843,5.025 29.187,5.637 29.94,6.061C31.586,6.788 31.953,8.197 30.875,9.56C28.227,11.563 26.191,14.178 24.57,17.207C23.623,16.558 22.943,13.79 22.943,13.79L21.926,15.173C21.522,15.605 21.586,16.005 22.129,16.353C23.632,17.279 23.487,18.869 22.089,19.689C22.783,20.868 22.473,21.814 21.194,22.536C21.372,21.397 21.46,20.371 20.787,20.299C19.058,20.245 18.634,19.551 18.794,18.753C17.777,19.902 17.255,20.865 15.905,19.567C15.283,20.542 14.497,20.95 13.546,20.787C13.434,19.726 13.841,18.932 14.807,18.428C13.564,17.553 14.146,16.496 15.336,15.377C14.266,15.229 13.626,14.783 13.831,13.75C13.289,13.255 12.732,13.211 12.163,13.587C12.174,12.446 12.759,11.81 14.563,12.244C15.069,11.061 15.947,10.911 17.167,11.716L17.736,12.122C18.256,12.593 18.718,12.536 19.119,11.919L22.943,7.892C23.618,6.079 23.425,4.678 22.333,3.702C15.918,-1.484 15.102,-6.429 18.631,-11.187C19.038,-11.714 19.102,-12.124 18.672,-12.366C17.812,-13.211 16.863,-13.724 15.824,-13.912C13.698,-13.718 12.226,-14.157 11.268,-15.092L12.082,-16.231C11.816,-16.876 11.145,-17.417 10.251,-17.899C10.383,-16.599 9.572,-15.859 7.851,-15.661C5.324,-16.081 4.223,-15.204 4.027,-13.505C2.482,-13.934 1.927,-15.381 2.187,-16.953L-3.783,-16.149C-4.524,-16.158 -4.607,-15.798 -4.434,-15.295C-3.174,-14.266 -2.905,-12.47 -3.946,-12.122C-4.619,-10.16 -5.699,-9.37 -7.078,-9.437C-6.574,-10.372 -6.241,-11.205 -6.793,-11.512C-7.248,-12.068 -7.351,-12.611 -7.078,-13.139C-8.834,-14.497 -8.73,-16.167 -8.258,-17.899C-9.285,-19.955 -10.639,-21.089 -11.471,-21.6C-11.938,-22.574 -11.962,-23.359 -11.268,-23.838C-11.253,-24.921 -12.124,-25.699 -13.221,-26.401C-11.716,-27.321 -10.335,-27.616 -9.478,-25.221C-8.89,-25.455 -8.507,-25.147 -8.38,-24.163C-8.489,-25.294 -8.408,-26.212 -7.566,-26.278C-7.108,-27.129 -7.571,-28.12 -8.136,-29.126C-6.533,-29.133 -5.269,-28.711 -5.37,-26.563C-4.863,-26.387 -4.732,-25.707 -4.881,-24.651C-4.571,-25.474 -4.301,-26.417 -3.62,-26.156C-3.161,-26.709 -3.575,-27.675 -4.068,-28.679C-1.583,-27.927 -1.037,-26.496 -1.79,-24.611C-1.427,-24.04 -1.374,-23.509 -1.993,-23.065L-3.783,-20.543L-3.376,-19.648L2.237,-20.827C0.954,-21.474 0.393,-22.418 0,-23.431" style="fill:rgb(248,241,227);fill-rule:nonzero;"></path> </g> <g transform="matrix(0.356198,0.93441,0.93441,-0.356198,135.144,76.4082)"> <path d="M9.29,-6.214C8.841,-7.455 7.971,-7.064 6.676,-5.021C5.457,-3.007 9.683,8.264 9.29,14.258C10.284,14.334 11.136,14.089 11.568,12.867C11.998,9.062 10.843,1.474 9.29,-6.214" style="fill:rgb(248,241,227);fill-rule:nonzero;"></path> </g> <g transform="matrix(1,0,0,1,132.983,110.317)"> <path d="M0,22.048C0.055,18.928 -1.064,16.443 -3.6,14.726C-2.449,13.458 -1.987,11.894 -2.014,10.119L4.424,16.434C5.644,17.319 6.865,16.038 5.995,14.863L-1.129,8.044C1.045,7.745 2.167,6.57 2.624,4.841C5.41,4.744 7.174,3.1 8.512,0.814C9.178,0.593 9.692,0.296 9.885,-0.163C10.997,0.331 12.213,0.239 13.485,-0.163L11.227,2.4C14.009,4.171 14.54,6.642 13.211,9.692C12.266,7.459 10.937,6.028 9.153,5.543C8.608,5.307 7.574,5.953 5.888,7.77C5.588,8.14 5.537,8.49 5.888,8.807L9.916,12.56C12.07,14.51 11.613,16.854 9.458,19.455C7.157,21.807 4.839,22.211 2.502,20.4C2.14,21.263 1.236,21.766 0,22.048" style="fill:rgb(248,241,227);fill-rule:nonzero;"></path> </g> <g transform="matrix(1,0,0,1,117.301,139.823)"> <path d="M0,-21.34C-1.934,-16.845 -1.317,-12.585 1.912,-8.567C-0.684,-6.832 -2.688,-4.863 -3.987,-2.668C-4.49,-3.08 -4.926,-3.042 -5.207,-1.977C-5.902,0.431 -7.544,0.452 -8.665,-0.106C-12.086,-3.925 -15.366,-7.318 -17.817,-8.201C-16.729,-8.932 -15.56,-9.121 -14.319,-8.811L-15.946,-10.723C-16.323,-10.755 -16.635,-10.61 -16.922,-10.397C-18.076,-8.991 -19.159,-9.322 -20.217,-10.275C-22.267,-9.82 -22.681,-10.446 -22.699,-11.333C-21.882,-11.181 -21.171,-11.21 -20.706,-11.658C-21.064,-12.905 -20.421,-13.479 -19.241,-13.692C-20.567,-14.628 -21.319,-15.556 -20.34,-16.459C-21.066,-16.842 -21.416,-17.592 -21.275,-18.818C-20.087,-18.889 -19.28,-18.491 -18.875,-17.598C-17.526,-18.831 -16.758,-18.064 -16.15,-16.743C-15.919,-17.984 -15.367,-18.707 -14.278,-18.564C-13.733,-19.018 -13.623,-19.587 -13.994,-20.282C-12.676,-20.392 -12.426,-19.42 -12.814,-17.801C-11.439,-17.152 -11.369,-16.077 -12.814,-14.506C-13.184,-14.268 -13.276,-13.97 -12.895,-13.57L-8.868,-9.787C-6.915,-7.957 -3.376,-11.374 -5.614,-13.082C-7.829,-14.857 -8.624,-16.214 -8.258,-18.564C-7.461,-21.746 -3.946,-21.792 0,-21.34" style="fill:rgb(248,241,227);fill-rule:nonzero;"></path> </g> <g transform="matrix(1,0,0,1,95.1718,146.239)"> <path d="M0,10.035C-0.412,10.98 -0.893,10.88 -1.424,10.035C-1.81,9.486 -1.803,8.776 -1.749,7.859C-1.79,6.557 -1.013,5.907 -0.997,4.299C-1.339,3.15 -1.6,2.29 -1.709,1.655C-1.75,1.137 -1.55,0.833 -0.997,1.37C-0.342,3.366 0.59,5.011 2.949,5.052C3.498,3.445 4.991,2.445 5.41,2.225C5.69,2.078 5.38,1.736 4.942,1.655C3.519,1.391 2.267,0.338 2.319,-0.948C1.729,-2.555 0.74,-4.351 -0.041,-3.959C-1.407,-3.304 -2.165,-1.791 -2.97,-0.053C-4.095,-0.169 -5.053,0.015 -6.046,-0.112C-7.045,0.39 -7.479,1.067 -6.509,1.452C-6.374,1.563 -6.224,1.767 -6.224,2.225C-5.743,3.357 -6.082,6.3 -6.265,8.896C-6.234,10.32 -6.732,11.233 -7.688,11.703C-8.126,12.309 -7.891,12.661 -6.346,12.516C-2.615,12.067 -0.139,12.923 1.831,14.306C2.06,14.386 2.301,14.337 2.563,14.062C3.35,11.728 4.338,10.214 5.695,10.198C6.001,9.869 5.986,9.501 5.695,9.099C4.925,8.767 4.442,8.304 4.231,7.716C3.588,6.031 2.421,6.911 1.2,7.838C0.843,8.327 0.444,9.009 0,10.035" style="fill:rgb(248,241,227);fill-rule:nonzero;"></path> </g> <g transform="matrix(1,0,0,1,121.227,156.625)"> <path d="M0,8.679C-0.941,8.002 -1.71,7.658 -2.899,7.9C-2.644,4.794 -2.642,2.477 -2.868,0.625C-1.839,0.926 -0.887,0.709 0,0.055C0.158,2.348 0.079,5.398 0,8.679M4.698,-0.596C2.351,-0.076 0.817,-1.232 -0.61,-2.609C-1,-2.978 -1.348,-2.945 -1.664,-2.614C-3.061,-1.291 -4.664,-1.233 -6.424,-2.146C-6.971,-2.667 -7.193,-2.32 -7.302,-1.674C-7.039,-1.037 -6.452,-0.585 -5.553,-0.311C-5.325,-0.087 -5.457,0.066 -5.797,0.177L-6.387,0.136C-7.085,0.045 -7.364,0.265 -6.875,0.767C-6.73,3.532 -6.759,6.193 -6.326,8.638C-6.307,8.952 -6.383,9.162 -6.61,9.208C-6.78,9.584 -7.093,9.785 -7.526,9.838C-8.503,10.178 -8.197,10.977 -6.712,10.693L-5.593,9.92C-5.319,9.742 -5.048,9.703 -4.78,9.798C-2.728,10.163 -1.218,10.691 -0.122,11.343C0.528,11.572 1.081,11.657 1.363,11.343C2.104,10.634 2.934,10.139 3.844,9.838C4.833,9.584 4.552,9.098 3.743,8.516C3.518,6.11 3.543,3.405 3.681,0.564C3.913,0.36 4.181,0.209 4.698,0.421C5.451,0.564 5.41,-0.535 4.698,-0.596" style="fill:rgb(248,241,227);fill-rule:nonzero;"></path> </g> <g transform="matrix(1,0,0,1,145.288,146.522)"> <path d="M0,8.613L-0.081,-0.519C0.994,-0.345 1.891,-0.038 2.4,0.559L2.502,7.352C2.191,8.371 1.2,8.623 0,8.613M8.105,8.572C7.928,8.735 7.376,8.778 6.61,8.755C6.343,8.775 6.161,8.705 6.183,8.42L6.153,1.464C6.015,0.93 6.488,0.975 6.61,0.518C6.809,-0.199 6.626,-0.352 5.97,-0.245C5.737,-0.223 5.463,-0.27 5.024,-0.58C4.645,-0.929 4.269,-1.274 3.895,-1.618C3.752,-1.792 3.464,-1.896 2.888,-1.862C2.469,-1.902 2.074,-2.232 1.698,-2.808C1.462,-3.163 0.71,-2.893 0.386,-2.381C-0.769,-1.191 -2.201,-0.678 -3.976,-1.008C-4.518,-1.137 -4.699,-0.581 -4.251,-0.306C-3.996,-0.346 -3.783,-0.143 -3.61,0.304C-3.537,1.473 -3.239,4.656 -3.366,7.871C-3.264,8.156 -3.361,8.33 -3.61,8.42C-4.175,8.221 -4.272,8.755 -3.946,9.03C-3.041,9.502 -2.385,10.088 -1.499,11.183C-0.08,11.183 2.924,10.155 3.697,10.159C4.627,10.174 5.351,10.628 5.878,11.105C7.053,11.776 7.739,10.311 8.868,9.182C8.924,8.649 8.864,8.239 8.105,8.572" style="fill:rgb(248,241,227);fill-rule:nonzero;"></path> </g> <g transform="matrix(-0.999863,0.0165792,0.0165792,0.999863,107.47,161.242)"> <path d="M-0.114,-6.452C1.028,-5.776 2.094,-4.687 3.111,-3.332C2.33,-2.075 1.261,-0.961 -0.114,0.002C-1.368,-1.036 -2.45,-2.143 -3.176,-3.394C-2.182,-4.688 -1.17,-5.802 -0.114,-6.452" style="fill:rgb(248,241,227);fill-rule:nonzero;"></path> </g> <g transform="matrix(-0.999863,0.0165792,0.0165792,0.999863,135.08,161.022)"> <path d="M-0.114,-6.452C1.028,-5.776 2.094,-4.687 3.111,-3.332C2.33,-2.075 1.261,-0.961 -0.114,0.002C-1.368,-1.036 -2.45,-2.143 -3.176,-3.394C-2.182,-4.688 -1.17,-5.802 -0.114,-6.452" style="fill:rgb(248,241,227);fill-rule:nonzero;"></path> </g> <g transform="matrix(1,0,0,1,193.087,82.7032)"> <path d="M0,10.12C0.107,10.12 0.269,10.147 0.484,10.201L0.726,10.241L0.524,10.402L-6.975,15.926C-7.136,15.845 -7.392,15.71 -7.741,15.523C-8.037,15.361 -8.447,15.153 -8.971,14.898C-9.495,14.642 -10.174,14.287 -11.007,13.829C-11.491,13.561 -11.874,13.198 -12.156,12.741C-12.438,12.284 -12.58,11.773 -12.58,11.208L-12.58,-5.202C-12.58,-5.363 -12.519,-5.504 -12.398,-5.625C-12.277,-5.746 -12.136,-5.806 -11.975,-5.806L-2.298,-5.806L0,-1.815L-8.266,-1.815C-8.481,-1.815 -8.588,-1.694 -8.588,-1.452L-8.588,8.951C-8.588,9.354 -8.562,9.683 -8.507,9.938C-8.454,10.194 -8.366,10.402 -8.245,10.563C-8.125,10.724 -7.977,10.866 -7.802,10.987C-7.627,11.108 -7.418,11.223 -7.177,11.329C-6.156,11.868 -5.443,12.237 -5.04,12.438C-4.637,12.64 -4.381,12.768 -4.274,12.821L-1.048,10.442C-0.699,10.227 -0.35,10.12 0,10.12" style="fill:rgb(70,70,71);fill-rule:nonzero;"></path> </g> <g transform="matrix(1,0,0,1,201.221,81.8974)"> <path d="M0,11.732C0.959,12.243 1.746,12.646 2.359,12.941C2.973,13.238 3.386,13.453 3.6,13.587L3.6,-0.848C3.6,-0.955 3.546,-1.009 3.438,-1.009L-1.44,-1.009L-1.44,9.353C-1.44,10.16 -1.313,10.698 -1.06,10.966C-0.807,11.235 -0.454,11.477 0,11.692L0,11.732ZM8.559,10.805L0.999,16.732C0.783,16.624 0.459,16.449 0.028,16.208C-0.35,16.019 -0.855,15.764 -1.489,15.441C-2.123,15.119 -2.911,14.703 -3.854,14.191C-4.34,13.95 -4.724,13.594 -5.007,13.123C-5.291,12.653 -5.432,12.149 -5.432,11.611L-5.432,1.975C-5.432,1.491 -5.674,1.182 -6.158,1.047L-6.399,1.007C-5.485,0.47 -4.623,-0.122 -3.814,-0.767C-3.113,-1.304 -2.425,-1.942 -1.751,-2.682C-1.077,-3.421 -0.579,-4.194 -0.255,-5L7.187,-5C7.457,-5 7.591,-4.852 7.591,-4.557L7.591,9.837C7.591,10.321 7.833,10.617 8.317,10.724L8.559,10.805Z" style="fill:rgb(70,70,71);fill-rule:nonzero;"></path> </g> <g transform="matrix(1,0,0,1,219.779,90.7268)"> <path d="M0,-5.887C-0.054,-5.833 -0.095,-5.786 -0.121,-5.746C-0.148,-5.705 -0.188,-5.658 -0.242,-5.605C-0.861,-4.852 -1.748,-4.194 -2.903,-3.629C-3.253,-3.441 -3.609,-3.28 -3.972,-3.145C-4.334,-3.011 -4.691,-2.876 -5.04,-2.742L-5.04,0.564C-5.04,1.37 -4.918,1.908 -4.675,2.177C-4.432,2.446 -4.081,2.701 -3.621,2.943C-2.621,3.454 -1.817,3.864 -1.208,4.173C-0.601,4.482 -0.188,4.691 0.028,4.798L0,-5.887ZM3.992,1.088C4.018,2.433 4.24,3.366 4.657,3.89C5.073,4.415 5.55,4.731 6.088,4.838C6.679,4.946 7.364,4.865 8.145,4.596L3.547,7.902C3.465,7.848 3.317,7.761 3.101,7.64C2.886,7.519 2.649,7.351 2.394,7.136C2.137,6.921 1.875,6.658 1.605,6.35C1.335,6.041 1.079,5.685 0.836,5.281L-2.561,7.943C-2.804,7.835 -3.141,7.66 -3.572,7.419C-3.95,7.23 -4.455,6.975 -5.088,6.653C-5.722,6.33 -6.511,5.913 -7.454,5.403C-7.94,5.16 -8.324,4.804 -8.607,4.334C-8.891,3.864 -9.032,3.36 -9.032,2.822L-9.032,-2.661C-8.333,-2.661 -7.439,-2.783 -6.351,-3.024C-5.262,-3.266 -4.207,-3.656 -3.186,-4.194C-2.567,-4.489 -1.956,-4.886 -1.351,-5.383C-0.746,-5.88 -0.296,-6.478 0,-7.177L0,-9.677C0,-9.784 -0.054,-9.838 -0.162,-9.838L-6.411,-9.838L-9.032,-13.83L3.587,-13.83C3.856,-13.83 3.992,-13.682 3.992,-13.387L3.992,1.088Z" style="fill:rgb(70,70,71);fill-rule:nonzero;"></path> </g> <g transform="matrix(1,0,0,1,232.661,75.8481)"> <path d="M0,18.628C0.417,19.166 0.893,19.502 1.431,19.636C2.049,19.797 2.748,19.757 3.528,19.515L-1.069,22.821L-1.109,22.821C-1.244,22.741 -1.506,22.6 -1.895,22.398C-2.285,22.196 -2.681,21.874 -3.084,21.43C-3.488,20.987 -3.844,20.402 -4.153,19.676C-4.462,18.951 -4.617,18.037 -4.617,16.935L-4.617,5.041L-5.786,5.041L-7.56,1.049L-5.02,1.049C-4.805,1.049 -4.482,0.968 -4.052,0.807C-3.623,0.646 -3.199,0.363 -2.782,-0.04C-2.366,-0.443 -1.996,-0.98 -1.673,-1.653C-1.351,-2.324 -1.189,-3.171 -1.189,-4.193L-0.625,-3.346L-0.625,1.049L0.826,1.049L2.963,5.041L-0.625,5.041L-0.625,15.886C-0.625,17.177 -0.417,18.091 0,18.628" style="fill:rgb(70,70,71);fill-rule:nonzero;"></path> </g> <g transform="matrix(1,0,0,1,255.449,81.8974)"> <path d="M0,11.732C0.959,12.243 1.746,12.646 2.359,12.941C2.973,13.238 3.386,13.453 3.6,13.587L3.6,-0.848C3.6,-0.955 3.546,-1.009 3.438,-1.009L-1.44,-1.009L-1.44,9.353C-1.44,10.16 -1.313,10.698 -1.06,10.966C-0.807,11.235 -0.454,11.477 0,11.692L0,11.732ZM8.559,10.805L0.999,16.732C0.783,16.624 0.459,16.449 0.028,16.208C-0.35,16.019 -0.855,15.764 -1.489,15.441C-2.123,15.119 -2.911,14.703 -3.854,14.191C-4.34,13.95 -4.724,13.594 -5.007,13.123C-5.291,12.653 -5.432,12.149 -5.432,11.611L-5.432,1.975C-5.432,1.491 -5.674,1.182 -6.158,1.047L-6.399,1.007C-5.485,0.47 -4.623,-0.122 -3.814,-0.767C-3.113,-1.304 -2.425,-1.942 -1.751,-2.682C-1.077,-3.421 -0.579,-4.194 -0.255,-5L7.187,-5C7.457,-5 7.591,-4.852 7.591,-4.557L7.591,9.837C7.591,10.321 7.833,10.617 8.317,10.724L8.559,10.805Z" style="fill:rgb(70,70,71);fill-rule:nonzero;"></path> </g> <g transform="matrix(1,0,0,1,270.701,94.6367)"> <path d="M0,-21.812L0,-17.74L3.548,-17.74L2.298,-14.474L0,-14.474L0,-2.942C0,-1.679 0.208,-0.778 0.625,-0.241C1.041,0.297 1.518,0.633 2.056,0.767C2.674,0.928 3.373,0.902 4.153,0.686L-0.444,3.992C-0.605,3.912 -0.881,3.744 -1.271,3.488C-1.66,3.232 -2.057,2.87 -2.459,2.4C-2.863,1.93 -3.219,1.338 -3.528,0.625C-3.837,-0.086 -3.992,-0.927 -3.992,-1.894L-3.992,-14.474L-5.726,-14.474L-4.436,-17.74L-3.992,-17.74L-3.992,-18.829C-3.992,-19.312 -4.234,-19.621 -4.718,-19.756L-4.919,-19.796C-4.032,-20.333 -3.186,-20.925 -2.379,-21.57C-1.68,-22.107 -0.995,-22.746 -0.323,-23.485C0.349,-24.225 0.847,-24.998 1.169,-25.804L7.661,-25.804L5,-21.812L0,-21.812Z" style="fill:rgb(70,70,71);fill-rule:nonzero;"></path> </g> <g transform="matrix(1,0,0,1,193.196,122.556)"> <path d="M0,-8.073C-0.074,-7.998 -0.13,-7.934 -0.166,-7.879C-0.203,-7.824 -0.258,-7.759 -0.332,-7.686C-1.18,-6.654 -2.397,-5.751 -3.981,-4.976C-4.461,-4.718 -4.949,-4.497 -5.446,-4.313C-5.944,-4.128 -6.433,-3.944 -6.912,-3.76L-6.912,0.774C-6.912,1.88 -6.745,2.618 -6.412,2.986C-6.078,3.355 -5.596,3.704 -4.965,4.036C-3.594,4.737 -2.492,5.3 -1.657,5.723C-0.824,6.147 -0.258,6.433 0.039,6.58L0,-8.073ZM5.474,1.493C5.51,3.337 5.814,4.617 6.386,5.336C6.957,6.054 7.611,6.488 8.349,6.635C9.16,6.783 10.1,6.672 11.169,6.303L4.864,10.837C4.752,10.763 4.548,10.644 4.253,10.478C3.958,10.312 3.634,10.081 3.283,9.787C2.931,9.491 2.571,9.132 2.201,8.709C1.832,8.285 1.48,7.796 1.147,7.243L-3.511,10.893C-3.845,10.745 -4.307,10.506 -4.898,10.174C-5.417,9.915 -6.109,9.566 -6.979,9.123C-7.848,8.681 -8.928,8.11 -10.223,7.409C-10.889,7.077 -11.416,6.589 -11.803,5.944C-12.192,5.3 -12.386,4.608 -12.386,3.87L-12.386,-3.649C-11.428,-3.649 -10.202,-3.815 -8.709,-4.147C-7.216,-4.479 -5.77,-5.012 -4.368,-5.751C-3.521,-6.156 -2.682,-6.699 -1.853,-7.382C-1.023,-8.063 -0.406,-8.883 0,-9.842L0,-13.27C0,-13.417 -0.074,-13.491 -0.221,-13.491L-8.792,-13.491L-12.386,-18.966L4.919,-18.966C5.289,-18.966 5.474,-18.762 5.474,-18.357L5.474,1.493Z" style="fill:rgb(70,70,71);fill-rule:nonzero;"></path> </g> <g transform="matrix(1,0,0,1,212.024,107.682)"> <path d="M0,21.62C0.423,21.657 0.838,21.639 1.244,21.564C1.686,21.491 2.147,21.362 2.626,21.178L-3.677,25.711C-3.898,25.601 -4.277,25.37 -4.811,25.02C-5.345,24.669 -5.889,24.172 -6.442,23.527C-6.995,22.883 -7.484,22.072 -7.907,21.095C-8.331,20.118 -8.543,18.966 -8.543,17.639L-8.543,3.926C-8.543,3.373 -8.709,2.875 -9.041,2.433C-9.372,1.991 -9.796,1.678 -10.313,1.493L-10.644,1.438L-3.069,-4.091L-3.069,16.201C-3.069,17.234 -2.958,18.109 -2.737,18.828C-2.516,19.546 -2.221,20.109 -1.853,20.514L-1.853,-3.483C-1.853,-3.888 -1.668,-4.091 -1.3,-4.091L4.174,-4.091L7.769,1.383L-0.913,1.383C-1.06,1.383 -1.134,1.457 -1.134,1.604L-1.134,21.122C-0.802,21.418 -0.424,21.583 0,21.62" style="fill:rgb(70,70,71);fill-rule:nonzero;"></path> </g> <g transform="matrix(1,0,0,1,254.267,109.563)"> <path d="M0,17.915C0.571,18.616 1.225,19.076 1.963,19.297C2.811,19.556 3.769,19.574 4.838,19.352L-1.465,23.942C-1.687,23.831 -2.065,23.601 -2.599,23.25C-3.134,22.9 -3.677,22.402 -4.23,21.758C-4.783,21.113 -5.272,20.302 -5.695,19.325C-6.12,18.349 -6.331,17.196 -6.331,15.869L-6.331,-0.276C-6.331,-0.423 -6.405,-0.498 -6.552,-0.498L-13.132,-0.498L-13.132,14.432C-13.132,16.054 -12.847,17.233 -12.275,17.97C-11.704,18.708 -11.05,19.168 -10.312,19.352C-9.465,19.611 -8.506,19.611 -7.437,19.352L-13.74,23.942C-13.961,23.831 -14.34,23.656 -14.874,23.416C-15.409,23.176 -15.952,22.781 -16.505,22.227C-17.058,21.675 -17.547,20.892 -17.97,19.878C-18.395,18.864 -18.606,17.528 -18.606,15.869L-18.606,-0.276C-18.606,-0.423 -18.68,-0.498 -18.827,-0.498L-25.518,-0.498L-25.518,13.768C-25.518,15.021 -25.324,16.007 -24.937,16.726C-24.55,17.445 -24.108,17.998 -23.61,18.385C-23.112,18.772 -22.606,19.04 -22.089,19.186C-21.574,19.334 -21.187,19.427 -20.928,19.463L-24.135,23.942C-24.504,23.831 -25.067,23.628 -25.822,23.333C-26.578,23.038 -27.342,22.587 -28.116,21.979C-28.891,21.371 -29.563,20.588 -30.135,19.629C-30.707,18.671 -30.992,17.492 -30.992,16.09L-30.992,1.935C-30.992,1.382 -31.158,0.894 -31.489,0.47C-31.821,0.047 -32.245,-0.257 -32.761,-0.442L-33.093,-0.553L-25.518,-6.027L-25.518,-1.548C-25.002,-2.064 -24.514,-2.746 -24.052,-3.594C-23.592,-4.441 -23.214,-5.234 -22.919,-5.972L-13.74,-5.972C-13.335,-5.972 -13.132,-5.769 -13.132,-5.363L-13.132,-1.825C-12.616,-2.34 -12.146,-2.986 -11.722,-3.76C-11.299,-4.534 -10.939,-5.271 -10.644,-5.972L-1.465,-5.972C-1.06,-5.972 -0.857,-5.769 -0.857,-5.363L-0.857,14.432C-0.857,16.054 -0.572,17.215 0,17.915" style="fill:rgb(70,70,71);fill-rule:nonzero;"></path> </g> <g transform="matrix(1,0,0,1,277.739,111.719)"> <path d="M0,13.602C-1.81,14.708 -3.454,15.778 -4.933,16.809C-5.562,17.251 -6.181,17.704 -6.791,18.164C-7.401,18.625 -7.956,19.076 -8.455,19.519C-8.954,19.961 -9.37,20.375 -9.702,20.763C-10.036,21.15 -10.239,21.472 -10.313,21.73C-10.646,21.582 -11.108,21.343 -11.699,21.011C-12.217,20.753 -12.91,20.403 -13.779,19.961C-14.648,19.519 -15.729,18.947 -17.023,18.247C-17.689,17.915 -18.217,17.427 -18.604,16.782C-18.993,16.137 -19.187,15.446 -19.187,14.708L-19.187,12.607C-19.187,12.202 -19.289,11.824 -19.491,11.474C-19.694,11.123 -19.98,10.856 -20.348,10.672L-13.713,8.35L-13.713,11.612C-13.713,12.718 -13.547,13.456 -13.215,13.823C-12.883,14.192 -12.405,14.524 -11.778,14.819L-11.778,14.874C-10.414,15.575 -9.317,16.127 -8.488,16.533C-7.658,16.939 -7.097,17.233 -6.801,17.417L-6.801,12.165C-6.801,11.354 -7.087,10.626 -7.658,9.98C-8.23,9.336 -8.949,8.773 -9.815,8.294C-10.681,7.815 -11.621,7.401 -12.635,7.05C-13.649,6.7 -14.607,6.414 -15.51,6.193C-16.414,5.972 -17.196,5.806 -17.86,5.695C-18.523,5.585 -18.91,5.511 -19.021,5.474C-19.131,5.474 -19.187,5.401 -19.187,5.253L-19.187,-1.824C-19.187,-2.23 -19.251,-2.524 -19.38,-2.709C-19.51,-2.893 -19.667,-3.031 -19.85,-3.124C-20.035,-3.215 -20.237,-3.262 -20.458,-3.262C-20.68,-3.262 -20.901,-3.28 -21.122,-3.317L-13.713,-8.128L-13.713,1.327C-13.713,1.401 -13.677,1.475 -13.602,1.548C-13.418,1.585 -13.225,1.623 -13.021,1.659C-12.819,1.696 -12.607,1.751 -12.386,1.825L-12.386,-7.52C-12.386,-7.925 -12.184,-8.128 -11.778,-8.128L-4.534,-8.128L-1.382,-2.654L-11.391,-2.654C-11.538,-2.654 -11.612,-2.58 -11.612,-2.433L-11.612,2.046C-10.686,2.304 -9.62,2.654 -8.415,3.097C-7.211,3.539 -6.09,4.092 -5.052,4.755C-4.014,5.419 -3.134,6.212 -2.412,7.133C-1.689,8.055 -1.327,9.123 -1.327,10.34L-1.327,12.275C-1.327,12.938 -0.996,13.345 -0.332,13.492L0,13.602Z" style="fill:rgb(70,70,71);fill-rule:nonzero;"></path> </g> <g transform="matrix(1,0,0,1,202.454,139.659)"> <path d="M0,21.213C0,21.476 -0.131,21.607 -0.394,21.607C-0.583,21.607 -0.87,21.591 -1.253,21.56C-1.637,21.528 -1.923,21.512 -2.112,21.512C-2.301,21.512 -2.59,21.528 -2.979,21.56C-3.367,21.591 -3.656,21.607 -3.845,21.607C-4.108,21.607 -4.239,21.434 -4.239,21.087C-4.239,19.753 -4.197,17.752 -4.113,15.083C-4.029,12.414 -3.987,10.413 -3.987,9.078C-3.987,8.879 -4.029,8.779 -4.113,8.779C-4.208,8.779 -4.281,8.837 -4.334,8.952C-4.87,10.097 -6.136,13.155 -8.132,18.124C-8.458,19.08 -8.925,20.273 -9.535,21.702C-9.608,21.838 -9.986,21.906 -10.669,21.906C-11.657,21.906 -12.203,21.817 -12.308,21.639C-12.666,20.788 -13.175,19.595 -13.837,18.061C-14.709,15.981 -16.049,12.881 -17.855,8.763C-17.887,8.69 -17.956,8.616 -18.061,8.543C-18.145,8.606 -18.187,8.721 -18.187,8.889C-18.187,10.244 -18.163,12.277 -18.116,14.988C-18.068,17.699 -18.044,19.732 -18.044,21.087C-18.044,21.434 -18.176,21.607 -18.438,21.607C-18.617,21.607 -18.891,21.591 -19.258,21.56C-19.626,21.528 -19.899,21.512 -20.078,21.512C-20.267,21.512 -20.548,21.528 -20.921,21.56C-21.294,21.591 -21.575,21.607 -21.764,21.607C-22.027,21.607 -22.158,21.507 -22.158,21.308C-22.158,20.141 -22.103,18.395 -21.992,16.067C-21.882,13.74 -21.827,11.994 -21.827,10.828C-21.827,9.619 -21.882,7.804 -21.992,5.382C-22.103,2.961 -22.158,1.146 -22.158,-0.062C-22.158,-0.262 -22.037,-0.377 -21.795,-0.409C-20.367,-0.598 -19.29,-0.693 -18.565,-0.693C-18.46,-0.693 -18.312,-0.477 -18.124,-0.047C-15.581,5.543 -13.396,10.533 -11.567,14.925C-11.137,15.955 -10.879,16.469 -10.795,16.469C-10.69,16.469 -10.464,16.049 -10.118,15.209C-8.689,11.805 -6.708,6.751 -4.176,0.048C-4.019,-0.362 -3.845,-0.567 -3.656,-0.567C-3.299,-0.567 -2.761,-0.545 -2.041,-0.504C-1.321,-0.461 -0.783,-0.44 -0.425,-0.44C-0.163,-0.44 -0.032,-0.314 -0.032,-0.062C-0.032,1.146 -0.071,2.961 -0.15,5.382C-0.229,7.804 -0.268,9.619 -0.268,10.828C-0.268,11.984 -0.223,13.717 -0.134,16.028C-0.045,18.339 0,20.068 0,21.213" style="fill:rgb(155,77,19);fill-rule:nonzero;"></path> </g> <g transform="matrix(1,0,0,1,217.946,147.65)"> <path d="M0,4.728C0,4.423 -0.473,3.057 -1.418,0.63C-2.333,-1.723 -2.979,-3.268 -3.357,-4.003C-5.532,1.544 -6.619,4.45 -6.619,4.712C-6.619,5.069 -6.22,5.279 -5.421,5.342C-5.379,5.353 -4.864,5.358 -3.877,5.358L-2.253,5.358C-0.751,5.358 0,5.148 0,4.728M7.344,13.427C7.344,13.553 7.218,13.616 6.966,13.616C6.766,13.616 6.475,13.601 6.091,13.569C5.708,13.538 5.416,13.521 5.216,13.521C5.017,13.521 4.717,13.538 4.318,13.569C3.919,13.601 3.619,13.616 3.42,13.616C3.125,13.616 2.75,12.82 2.293,11.228C1.836,9.637 1.371,8.831 0.898,8.81C0.509,8.789 -0.504,8.778 -2.143,8.778L-4.633,8.778C-6.367,8.778 -7.354,8.789 -7.596,8.81C-7.974,8.841 -8.376,9.65 -8.802,11.236C-9.227,12.823 -9.556,13.616 -9.787,13.616L-13.333,13.616C-13.543,13.616 -13.648,13.543 -13.648,13.395C-13.648,13.291 -13.574,13.054 -13.427,12.686L-9.566,2.127C-9.24,1.276 -8.253,-1.177 -6.603,-5.232C-6.309,-5.904 -5.91,-6.918 -5.405,-8.274C-5.279,-8.673 -5.143,-8.873 -4.996,-8.873C-4.796,-8.873 -4.502,-8.846 -4.113,-8.794C-3.725,-8.741 -3.43,-8.715 -3.23,-8.715C-3.042,-8.715 -2.755,-8.744 -2.372,-8.802C-1.988,-8.859 -1.708,-8.888 -1.529,-8.888C-1.434,-8.888 -1.303,-8.694 -1.135,-8.305C-0.882,-7.717 0.362,-4.549 2.601,1.198C5.763,9.277 7.344,13.353 7.344,13.427" style="fill:rgb(155,77,19);fill-rule:nonzero;"></path> </g> <g transform="matrix(1,0,0,1,244.517,139.833)"> <path d="M0,20.692C0,21.186 -0.153,21.433 -0.457,21.433L-4.082,21.433C-4.387,21.433 -5.18,20.314 -6.461,18.076C-7.544,16.185 -8.264,14.819 -8.621,13.979C-8.978,13.17 -9.183,12.718 -9.235,12.623C-9.55,12.098 -9.918,11.819 -10.338,11.788C-10.464,11.777 -10.816,11.772 -11.395,11.772C-12.718,11.772 -13.38,11.935 -13.38,12.261C-13.38,13.228 -13.346,14.672 -13.277,16.594C-13.209,18.517 -13.175,19.957 -13.175,20.913C-13.175,21.259 -13.307,21.433 -13.569,21.433C-13.769,21.433 -14.068,21.417 -14.467,21.385C-14.867,21.354 -15.166,21.338 -15.366,21.338C-15.555,21.338 -15.836,21.354 -16.209,21.385C-16.582,21.417 -16.863,21.433 -17.052,21.433C-17.315,21.433 -17.446,21.312 -17.446,21.07C-17.446,19.915 -17.391,18.178 -17.28,15.862C-17.17,13.545 -17.115,11.809 -17.115,10.653C-17.115,9.435 -17.17,7.604 -17.28,5.161C-17.391,2.718 -17.446,0.888 -17.446,-0.331C-17.446,-0.562 -17.315,-0.678 -17.052,-0.678C-16.863,-0.678 -16.574,-0.662 -16.185,-0.631C-15.797,-0.599 -15.502,-0.583 -15.303,-0.583C-15.114,-0.583 -14.83,-0.599 -14.452,-0.631C-14.073,-0.662 -13.79,-0.678 -13.601,-0.678C-13.359,-0.678 -13.238,-0.583 -13.238,-0.394C-13.238,0.499 -13.267,1.844 -13.325,3.64C-13.383,5.437 -13.412,6.787 -13.412,7.691C-13.412,8.1 -13.385,8.358 -13.333,8.463C-13.249,8.652 -13.033,8.746 -12.687,8.746C-10.648,8.746 -9.156,8.368 -8.211,7.611C-7.402,6.94 -6.635,5.705 -5.91,3.908C-5.385,2.501 -4.859,1.092 -4.334,-0.315C-4.261,-0.494 -4.098,-0.615 -3.846,-0.678C-3.678,-0.72 -3.121,-0.741 -2.175,-0.741C-1.02,-0.741 -0.441,-0.578 -0.441,-0.252C-0.441,-0.063 -0.683,0.788 -1.167,2.301C-1.734,4.066 -2.469,5.621 -3.373,6.965C-3.972,7.879 -4.765,8.799 -5.752,9.723C-6.004,9.944 -6.131,10.144 -6.131,10.322C-6.131,10.511 -5.705,11.452 -4.854,13.143C-4.119,14.604 -3.452,15.775 -2.853,16.658C-2.191,17.467 -1.267,18.712 -0.079,20.393C-0.026,20.487 0,20.587 0,20.692" style="fill:rgb(155,77,19);fill-rule:nonzero;"></path> </g> <g transform="matrix(1,0,0,1,261.237,142.544)"> <path d="M0,15.555C0,15.723 -0.042,15.965 -0.126,16.28C-0.221,16.679 -0.279,16.921 -0.3,17.005C-0.331,17.383 -0.405,17.934 -0.521,18.659C-0.573,18.848 -0.709,18.943 -0.93,18.943C-1.035,18.943 -1.235,18.922 -1.529,18.88C-2.821,18.691 -4.823,18.597 -7.533,18.597C-8.3,18.597 -9.456,18.618 -11,18.659C-12.545,18.701 -13.701,18.722 -14.467,18.722C-14.814,18.722 -14.987,18.57 -14.987,18.265C-14.987,17.089 -14.922,15.321 -14.791,12.962C-14.659,10.604 -14.594,8.836 -14.594,7.659C-14.594,6.462 -14.657,4.229 -14.783,0.962C-14.804,0.121 -14.861,-1.134 -14.956,-2.805L-14.972,-3.026C-14.982,-3.267 -14.846,-3.388 -14.562,-3.388C-13.827,-3.388 -12.724,-3.367 -11.252,-3.325C-9.782,-3.283 -8.679,-3.262 -7.943,-3.262C-7.239,-3.262 -6.186,-3.283 -4.783,-3.325C-3.381,-3.367 -2.328,-3.388 -1.624,-3.388C-1.13,-3.388 -0.862,-3.236 -0.82,-2.931C-0.599,-1.544 -0.489,-0.683 -0.489,-0.346C-0.489,-0.105 -0.604,0.016 -0.835,0.016C-1.729,0.016 -3.081,-0.034 -4.894,-0.134C-6.706,-0.234 -8.069,-0.283 -8.983,-0.283C-9.845,-0.283 -10.389,-0.168 -10.614,0.063C-10.84,0.294 -10.953,0.867 -10.953,1.781L-10.953,4.129C-10.953,4.77 -10.938,5.143 -10.906,5.248C-10.811,5.574 -10.538,5.737 -10.086,5.737C-9.96,5.737 -9.782,5.731 -9.55,5.721L-9.015,5.721C-6.956,5.721 -5.106,5.684 -3.467,5.611C-2.827,5.59 -2.07,5.537 -1.198,5.453C-0.978,5.432 -0.867,5.527 -0.867,5.737C-0.867,6.073 -0.906,6.588 -0.985,7.281C-1.064,7.974 -1.104,8.494 -1.104,8.841C-1.104,9.031 -1.261,9.125 -1.576,9.125C-1.702,9.125 -2.17,9.088 -2.979,9.014C-3.567,8.951 -4.891,8.92 -6.95,8.92C-8.684,8.92 -9.782,8.941 -10.244,8.983C-10.664,9.014 -10.906,9.235 -10.969,9.645C-10.958,9.572 -10.953,9.976 -10.953,10.859L-10.953,13.191C-10.953,14.284 -10.785,14.967 -10.449,15.24C-10.187,15.46 -9.53,15.571 -8.479,15.571L-6.745,15.555C-6.01,15.555 -3.945,15.429 -0.552,15.177L-0.315,15.161C-0.105,15.14 0,15.271 0,15.555" style="fill:rgb(155,77,19);fill-rule:nonzero;"></path> </g> <g transform="matrix(1,0,0,1,276.398,153.528)"> <path d="M0,-6.682C0,-8.583 -0.546,-9.855 -1.639,-10.496C-2.448,-10.969 -3.903,-11.205 -6.004,-11.205C-7.707,-11.205 -8.573,-11.068 -8.604,-10.795C-8.678,-10.228 -8.715,-8.71 -8.715,-6.241L-8.715,-3.231C-8.684,-3.209 -8.615,-3.189 -8.51,-3.168C-8.321,-3.146 -8.011,-3.12 -7.581,-3.089C-6.583,-3.036 -5.505,-3.01 -4.35,-3.01C-1.45,-3.01 0,-4.234 0,-6.682M4.318,7.612C4.318,7.696 4.234,7.738 4.066,7.738C3.866,7.738 3.562,7.722 3.152,7.691C2.742,7.659 2.438,7.643 2.238,7.643C2.017,7.643 1.688,7.659 1.253,7.691C0.817,7.722 0.489,7.738 0.268,7.738C0.026,7.738 -0.158,7.607 -0.284,7.344C-0.62,6.63 -1.576,4.418 -3.152,0.709C-3.31,0.331 -3.693,0.1 -4.302,0.016C-4.439,0.005 -4.917,0 -5.736,0C-7.187,0 -8.048,0.021 -8.321,0.063C-8.542,0.094 -8.652,0.362 -8.652,0.867C-8.652,1.602 -8.618,2.703 -8.549,4.169C-8.481,5.634 -8.447,6.729 -8.447,7.454C-8.447,7.675 -8.552,7.785 -8.762,7.785C-8.973,7.785 -9.29,7.761 -9.716,7.714C-10.141,7.667 -10.464,7.643 -10.685,7.643C-10.864,7.643 -11.137,7.659 -11.504,7.691C-11.873,7.722 -12.146,7.738 -12.324,7.738C-12.587,7.738 -12.718,7.617 -12.718,7.376C-12.718,6.209 -12.663,4.458 -12.552,2.12C-12.442,-0.218 -12.387,-1.97 -12.387,-3.136C-12.387,-6.456 -12.508,-9.997 -12.75,-13.758L-12.765,-14.01C-12.776,-14.22 -12.555,-14.326 -12.104,-14.326C-11.2,-14.326 -9.847,-14.349 -8.045,-14.396C-6.244,-14.444 -4.896,-14.467 -4.003,-14.467C-1.67,-14.467 0.199,-13.91 1.607,-12.797C3.162,-11.567 3.94,-9.823 3.94,-7.565C3.94,-6.01 3.729,-4.786 3.31,-3.892C2.868,-2.947 2.049,-2.049 0.851,-1.198C0.651,-1.061 0.552,-0.93 0.552,-0.804C0.552,-0.657 1.179,0.741 2.435,3.388C3.69,6.036 4.318,7.444 4.318,7.612" style="fill:rgb(155,77,19);fill-rule:nonzero;"></path> </g> <g transform="matrix(1,0,0,1,186.544,171.266)"> <path d="M0,-6.481C-0.284,-6.661 -0.637,-6.81 -1.059,-6.929C-1.48,-7.047 -1.924,-7.106 -2.388,-7.106C-3.458,-7.106 -4.382,-6.751 -5.159,-6.041C-5.937,-5.33 -6.325,-4.397 -6.325,-3.24C-6.325,-2.085 -5.941,-1.153 -5.173,-0.448C-4.406,0.258 -3.478,0.611 -2.388,0.611C-1.336,0.611 -0.483,0.408 0.17,-0L-0.057,0.967C-0.341,1.128 -0.68,1.248 -1.073,1.329C-1.466,1.409 -1.938,1.45 -2.487,1.45C-3.767,1.45 -4.887,1.019 -5.849,0.156C-6.811,-0.706 -7.291,-1.838 -7.291,-3.24C-7.291,-4.652 -6.813,-5.787 -5.856,-6.645C-4.899,-7.502 -3.776,-7.931 -2.487,-7.931C-1.919,-7.931 -1.414,-7.876 -0.974,-7.767C-0.533,-7.658 -0.147,-7.509 0.185,-7.319L0,-6.481Z" style="fill:rgb(30,19,15);fill-rule:nonzero;"></path> </g> <g transform="matrix(1,0,0,1,192.499,171.892)"> <path d="M0,-7.732C-1.023,-7.732 -1.91,-7.372 -2.658,-6.652C-3.407,-5.932 -3.781,-5.008 -3.781,-3.88C-3.781,-2.753 -3.409,-1.826 -2.665,-1.102C-1.921,-0.377 -1.033,-0.014 0,-0.014C1.023,-0.014 1.909,-0.374 2.658,-1.094C3.406,-1.815 3.78,-2.743 3.78,-3.88C3.78,-5.008 3.406,-5.932 2.658,-6.652C1.909,-7.372 1.023,-7.732 0,-7.732M0,0.824C-1.289,0.824 -2.402,0.384 -3.34,-0.498C-4.278,-1.379 -4.747,-2.506 -4.747,-3.88C-4.747,-5.235 -4.278,-6.353 -3.34,-7.234C-2.402,-8.116 -1.289,-8.556 0,-8.556C1.298,-8.556 2.414,-8.118 3.347,-7.242C4.28,-6.365 4.747,-5.245 4.747,-3.88C4.747,-2.506 4.28,-1.379 3.347,-0.498C2.414,0.384 1.298,0.824 0,0.824" style="fill:rgb(30,19,15);fill-rule:nonzero;"></path> </g> <g transform="matrix(1,0,0,1,202.602,169.422)"> <path d="M0,-2.973C-0.169,-3.381 -0.33,-3.846 -0.48,-4.367C-0.566,-4.12 -0.639,-3.914 -0.701,-3.748C-0.762,-3.583 -0.864,-3.325 -1.006,-2.974L-2.089,-0.188L1.068,-0.188L0,-2.973ZM2.447,3.137L1.4,0.593L-2.437,0.593L-3.44,3.142L-4.389,3.137L-0.637,-6.115L-0.338,-6.115L3.414,3.137L2.447,3.137Z" style="fill:rgb(30,19,15);fill-rule:nonzero;"></path> </g> <g transform="matrix(1,0,0,1,216.373,163.593)"> <path d="M0,8.967L-0.391,4.262C-0.391,4.016 -0.415,3.609 -0.464,3.04C-0.513,2.472 -0.537,2.093 -0.537,1.903C-0.736,2.339 -0.944,2.774 -1.158,3.21C-1.372,3.645 -1.551,4.014 -1.693,4.317L-3.997,9.063L-4.305,9.068L-6.622,4.321L-7.741,1.917C-7.8,2.703 -7.859,3.485 -7.918,4.262L-8.294,8.966L-9.15,8.967L-8.425,-0.101L-7.813,-0.101L-5.312,4.988C-5.171,5.281 -4.978,5.689 -4.732,6.21C-4.486,6.731 -4.288,7.172 -4.137,7.531C-3.776,6.736 -3.512,6.167 -3.345,5.826C-3.179,5.485 -3.043,5.205 -2.938,4.988L-0.451,-0.101L0.16,-0.101L0.913,8.967L0,8.967Z" style="fill:rgb(30,19,15);fill-rule:nonzero;"></path> </g> <g transform="matrix(1,0,0,1,222.798,169.422)"> <path d="M0,-2.973C-0.169,-3.381 -0.33,-3.846 -0.48,-4.367C-0.566,-4.12 -0.639,-3.914 -0.701,-3.748C-0.762,-3.583 -0.864,-3.325 -1.006,-2.974L-2.089,-0.188L1.068,-0.188L0,-2.973ZM2.447,3.137L1.4,0.593L-2.437,0.593L-3.44,3.142L-4.389,3.137L-0.637,-6.115L-0.338,-6.115L3.414,3.137L2.447,3.137Z" style="fill:rgb(30,19,15);fill-rule:nonzero;"></path> </g> <g transform="matrix(1,0,0,1,232.588,163.499)"> <path d="M0,9.052L-4.074,4.707L-4.074,9.06L-5.026,9.06L-5.026,-0.008L-4.074,-0.008L-4.074,4.353L-0.118,-0.003L1,-0.008L-3.079,4.484L1.171,9.06L0,9.052Z" style="fill:rgb(30,19,15);fill-rule:nonzero;"></path> </g> <g transform="matrix(1,0,0,1,234.924,163.492)"> <path d="M0,9.068L0,0L4.733,0L4.733,0.824L0.953,0.824L0.953,4.093L4.051,4.093L4.051,4.918L0.953,4.918L0.953,8.244L5.23,8.244L5.23,9.068L0,9.068Z" style="fill:rgb(30,19,15);fill-rule:nonzero;"></path> </g> <g transform="matrix(1,0,0,1,243.879,171.739)"> <path d="M0,-7.423L-1.478,-7.423L-1.478,-4.154L0.057,-4.154C0.559,-4.154 0.983,-4.3 1.329,-4.594C1.675,-4.888 1.848,-5.286 1.848,-5.788C1.848,-6.281 1.67,-6.677 1.314,-6.975C0.959,-7.274 0.521,-7.423 0,-7.423M3.108,0.824L0.083,-3.327L-1.478,-3.33L-1.478,0.821L-2.431,0.821L-2.431,-8.247L0.156,-8.247C0.886,-8.247 1.511,-8.025 2.032,-7.579C2.553,-7.134 2.814,-6.537 2.814,-5.788C2.814,-5.22 2.648,-4.73 2.317,-4.318C1.985,-3.905 1.559,-3.623 1.038,-3.472L4.221,0.821L3.108,0.824Z" style="fill:rgb(30,19,15);fill-rule:nonzero;"></path> </g> <g transform="matrix(1,0,0,1,249.266,171.139)"> <path d="M0,1.563C-0.123,1.563 -0.266,1.468 -0.426,1.279C-0.587,1.089 -0.668,0.923 -0.668,0.781C-0.668,0.649 -0.585,0.485 -0.419,0.291C-0.253,0.097 -0.114,0 0,0C0.123,0 0.265,0.094 0.426,0.284C0.587,0.474 0.668,0.639 0.668,0.781C0.668,0.914 0.585,1.078 0.419,1.271C0.253,1.466 0.114,1.563 0,1.563" style="fill:rgb(30,19,15);fill-rule:nonzero;"></path> </g> <g transform="matrix(1,0,0,1,258.504,171.266)"> <path d="M0,-6.481C-0.284,-6.661 -0.637,-6.81 -1.059,-6.929C-1.48,-7.047 -1.924,-7.106 -2.388,-7.106C-3.458,-7.106 -4.382,-6.751 -5.159,-6.041C-5.937,-5.33 -6.325,-4.397 -6.325,-3.24C-6.325,-2.085 -5.941,-1.153 -5.173,-0.448C-4.406,0.258 -3.478,0.611 -2.388,0.611C-1.336,0.611 -0.483,0.408 0.17,-0L-0.057,0.967C-0.341,1.128 -0.68,1.248 -1.073,1.329C-1.466,1.409 -1.938,1.45 -2.487,1.45C-3.767,1.45 -4.887,1.019 -5.849,0.156C-6.811,-0.706 -7.291,-1.838 -7.291,-3.24C-7.291,-4.652 -6.813,-5.787 -5.856,-6.645C-4.899,-7.502 -3.776,-7.931 -2.487,-7.931C-1.919,-7.931 -1.414,-7.876 -0.974,-7.767C-0.533,-7.658 -0.147,-7.509 0.185,-7.319L0,-6.481Z" style="fill:rgb(30,19,15);fill-rule:nonzero;"></path> </g> <g transform="matrix(1,0,0,1,264.459,171.892)"> <path d="M0,-7.732C-1.023,-7.732 -1.91,-7.372 -2.658,-6.652C-3.407,-5.932 -3.781,-5.008 -3.781,-3.88C-3.781,-2.753 -3.409,-1.826 -2.665,-1.102C-1.921,-0.377 -1.033,-0.014 0,-0.014C1.023,-0.014 1.909,-0.374 2.658,-1.094C3.406,-1.815 3.78,-2.743 3.78,-3.88C3.78,-5.008 3.406,-5.932 2.658,-6.652C1.909,-7.372 1.023,-7.732 0,-7.732M0,0.824C-1.289,0.824 -2.402,0.384 -3.34,-0.498C-4.278,-1.379 -4.747,-2.506 -4.747,-3.88C-4.747,-5.235 -4.278,-6.353 -3.34,-7.234C-2.402,-8.116 -1.289,-8.556 0,-8.556C1.298,-8.556 2.414,-8.118 3.347,-7.242C4.28,-6.365 4.747,-5.245 4.747,-3.88C4.747,-2.506 4.28,-1.379 3.347,-0.498C2.414,0.384 1.298,0.824 0,0.824" style="fill:rgb(30,19,15);fill-rule:nonzero;"></path> </g> <g transform="matrix(1,0,0,1,279.791,163.593)"> <path d="M0,8.967L-0.391,4.262C-0.391,4.016 -0.415,3.609 -0.464,3.04C-0.513,2.472 -0.537,2.093 -0.537,1.903C-0.736,2.339 -0.944,2.774 -1.158,3.21C-1.372,3.645 -1.551,4.014 -1.693,4.317L-3.997,9.063L-4.305,9.068L-6.622,4.321L-7.741,1.917C-7.8,2.703 -7.859,3.485 -7.918,4.262L-8.294,8.966L-9.15,8.967L-8.425,-0.101L-7.813,-0.101L-5.312,4.988C-5.171,5.281 -4.978,5.689 -4.732,6.21C-4.486,6.731 -4.288,7.172 -4.137,7.531C-3.776,6.736 -3.512,6.167 -3.345,5.826C-3.179,5.485 -3.043,5.205 -2.938,4.988L-0.451,-0.101L0.16,-0.101L0.913,8.967L0,8.967Z" style="fill:rgb(30,19,15);fill-rule:nonzero;"></path> </g> </g> </g> </g> </svg> 