<?xml version="1.0" encoding="UTF-8"?>
<svg width="607px" height="88px" viewBox="0 0 607 88" version="1.1" xmlns="http://www.w3.org/2000/svg" xmlns:xlink="http://www.w3.org/1999/xlink">
    <title>Logo</title>
    <g id="Styleguide" stroke="none" stroke-width="1" fill="none" fill-rule="evenodd">
        <g id="Styleguide-Brand" transform="translate(-141.000000, -457.000000)" fill="#27326C">
            <g id="Logo" transform="translate(141.000000, 457.000000)">
                <path d="M0,0 L606.738,0 L606.738,88 L0,88 L0,0 Z M6.94738,6.94738 L6.94738,81.0527667 L599.789667,81.0527667 L599.789667,6.94738 L6.94738,6.94738 Z" id="Shape"></path>
                <path d="M194.811833,58.4782 C200.147567,58.4782 204.816333,55.8521333 207.317367,51.7253 L201.564733,48.3904667 C200.3144,50.6414333 197.771567,51.9753667 194.811833,51.9753667 C189.6433,51.9753667 186.308467,48.5155 186.308467,43.3051667 C186.308467,38.0944667 189.6433,34.6347467 194.811833,34.6347467 C197.771567,34.6347467 200.2726,35.9686433 201.564733,38.2195 L207.317367,34.88485 C204.774533,30.75809 200.105767,28.1319867 194.811833,28.1319867 C186.0166,28.1319867 179.6388,34.71809 179.6388,43.3051667 C179.6388,51.8921333 186.0166,58.4782 194.811833,58.4782 Z M53.0713333,28.7154633 L59.741,28.7154633 L59.741,57.8944667 L53.0713333,57.8944667 L53.0713333,40.9288 L45.5264333,53.3093 L44.7762333,53.3093 L37.2313333,40.9288 L37.2313333,57.8944667 L30.56196,57.8944667 L30.56196,28.7154633 L37.2313333,28.7154633 L45.1513333,41.6793667 L53.0713333,28.7154633 Z M123.651733,28.7154633 L131.238433,28.7154633 L121.442567,46.6814333 L121.442567,57.8944667 L114.773267,57.8944667 L114.773267,46.6814333 L104.9774,28.7154633 L112.563733,28.7154633 L118.107733,39.9703333 L123.651733,28.7154633 Z M281.653167,57.8944667 L274.358333,57.8944667 L272.899367,53.3093 L262.061433,53.3093 L260.602467,57.8944667 L253.307633,57.8944667 L263.228533,28.7154633 L271.732267,28.7154633 L281.653167,57.8944667 Z M267.4804,36.34367 L264.062333,47.0565333 L270.898467,47.0565333 L267.4804,36.34367 Z M346.374233,28.7154633 L346.374233,44.5555 L335.119767,28.7154633 L330.117333,28.7154633 L330.117333,57.8944667 L336.787,57.8944667 L336.787,42.0544667 L348.041833,57.8944667 L353.0439,57.8944667 L353.0439,28.7154633 L346.374233,28.7154633 Z M428.277667,28.7154633 L418.773667,57.8944667 L410.270667,57.8944667 L400.766667,28.7154633 L408.063333,28.7154633 L414.524,50.1827333 L420.984667,28.7154633 L428.277667,28.7154633 Z M496.675667,57.8944667 L503.968667,57.8944667 L494.046667,28.7154633 L485.543667,28.7154633 L475.625333,57.8944667 L482.918333,57.8944667 L484.377667,53.3093 L495.216333,53.3093 L496.675667,57.8944667 Z M486.379667,47.0565333 L489.797,36.34367 L493.214333,47.0565333 L486.379667,47.0565333 Z M575.256,49.5161333 C575.256,55.1433667 570.753333,58.4782 564.417333,58.4782 C558.290333,58.4782 554.370667,55.5602667 552.746333,51.2666 L558.499333,47.9321333 C559.540667,50.3495667 561.333667,51.9753667 564.626333,51.9753667 C567.794333,51.9753667 568.586333,50.7246667 568.586333,49.5993667 C568.586333,47.8071 566.918,47.0983333 562.54,45.8894333 C558.206,44.6805333 553.952667,42.5964 553.952667,37.0106 C553.952667,31.3833667 558.704667,28.1319867 563.75,28.1319867 C568.542333,28.1319867 572.293333,30.4246433 574.42,34.71809 L568.795333,38.0112333 C567.794333,35.9269533 566.415667,34.6347467 563.75,34.6347467 C561.667333,34.6347467 560.622333,35.67685 560.622333,36.8441333 C560.622333,38.1780667 561.333667,39.0951 565.876667,40.4704667 C570.295,41.8044 575.256,43.3466 575.256,49.5161333 Z" id="Shape"></path>
            </g>
        </g>
    </g>
</svg>