<svg width="179" height="43" viewBox="0 0 179 43" fill="none" xmlns="http://www.w3.org/2000/svg">
<path d="M169.302 29.0807C171.791 29.0807 174.313 28.2525 176.155 26.8192C176.188 26.7873 176.188 26.7555 176.155 26.7555L174.345 24.5895C174.313 24.5577 174.28 24.5577 174.28 24.5895C172.761 25.6406 171.112 26.1821 169.366 26.1821C166.748 26.1821 165.164 24.9718 164.776 22.7103L164.743 22.4555H176.543V21.6592C176.543 17.391 173.052 13.8873 168.784 13.8555C168.752 13.8555 168.72 13.8555 168.687 13.8555C166.36 13.8555 164.291 14.6199 162.836 16.0532C161.446 17.4229 160.67 19.3658 160.67 21.4681C160.702 26.0866 164.065 29.0807 169.302 29.0807ZM165.067 19.4295C165.616 17.7414 166.909 16.8177 168.687 16.8177C170.466 16.8177 171.726 17.7414 172.308 19.4295C172.373 19.5888 172.341 19.7481 172.244 19.8755C172.147 20.0029 171.985 20.0984 171.823 20.0984H165.584C165.422 20.0984 165.261 20.0029 165.164 19.8755C165.034 19.7481 165.002 19.5888 165.067 19.4295Z" fill="#303030"/>
<path d="M145.508 21.5315C145.508 25.8634 149.064 29.1441 153.817 29.1441C156.144 29.1441 158.278 28.3478 159.83 26.8826V26.7871L157.631 24.4301C156.791 25.4812 155.465 26.1182 154.075 26.1182C153.364 26.1182 152.685 25.9589 152.039 25.6404C152.006 25.6404 151.974 25.6086 151.942 25.5767L151.909 25.5449L151.845 25.513C150.939 25.0671 150.196 24.2708 149.808 23.3152C149.711 23.0923 149.646 22.8693 149.582 22.6145C149.549 22.4871 149.517 22.3915 149.517 22.296L149.485 22.1367C149.485 22.073 149.452 21.9775 149.452 21.9138C149.452 21.8182 149.452 21.7226 149.452 21.6271C149.452 21.5634 149.452 21.5315 149.452 21.5315C149.452 21.436 149.452 21.3404 149.452 21.2449V21.1812C149.452 21.1493 149.452 21.1493 149.452 21.1175C149.517 20.6078 149.646 20.0664 149.873 19.5886C149.905 19.5249 149.937 19.4293 149.97 19.3656C150.39 18.5375 151.036 17.9323 151.812 17.5182C152.491 17.136 153.267 16.9449 154.075 16.9449C155.465 16.9449 156.758 17.5501 157.664 18.633L159.862 16.2123C158.31 14.7471 156.144 13.9189 153.784 13.9189C149.064 13.9189 145.508 17.1997 145.508 21.5315Z" fill="#303030"/>
<path d="M143.31 28.4437V21.0222C143.181 17.6459 142.243 14.5244 136.521 14.5244C135.325 14.5244 134.258 14.6837 133.353 15.034L133.03 15.1615V14.5881C133.03 14.5563 132.997 14.5563 132.997 14.5563H129.797C129.765 14.5563 129.765 14.5881 129.765 14.5881V28.4437C129.765 28.4755 129.797 28.5074 129.829 28.5074H133.515C133.547 28.5074 133.579 28.4755 133.579 28.4437V20.64C133.579 20.194 133.644 19.78 133.741 19.3977C134.161 18.3148 135.293 17.5503 136.554 17.5185C137.782 17.5185 138.946 18.2829 139.366 19.3659C139.495 19.7481 139.528 20.1622 139.528 20.6081V28.4118C139.528 28.4437 139.56 28.4755 139.592 28.4755L143.31 28.4437C143.278 28.5074 143.31 28.4755 143.31 28.4437Z" fill="#303030"/>
<path d="M113.019 14.5881V22.0415C113.148 25.4177 114.086 28.5392 119.808 28.5392C125.627 28.5392 126.467 24.717 126.597 21.8822V14.5881C126.597 14.5563 126.564 14.5244 126.532 14.5244H122.847C122.814 14.5244 122.782 14.5563 122.782 14.5881V22.3918C122.782 22.8377 122.717 23.2518 122.62 23.634C122.2 24.717 121.068 25.4815 119.808 25.5133C118.579 25.5133 117.415 24.7489 116.995 23.6659C116.866 23.2837 116.833 22.8696 116.833 22.4237V14.5881C116.833 14.5563 116.801 14.5244 116.769 14.5244H113.083C113.051 14.5244 113.019 14.5563 113.019 14.5881Z" fill="#303030"/>
<path d="M102.318 13.8555C97.5982 13.8555 94.0098 17.1362 94.0098 21.4681C94.0098 25.7999 97.5658 29.0807 102.318 29.0807C107.07 29.0807 110.659 25.7999 110.659 21.4681C110.659 17.1044 107.07 13.8555 102.318 13.8555ZM102.318 25.9273C99.8611 25.9273 97.9861 24.0162 97.9861 21.4681C97.9861 18.9518 99.8935 17.0088 102.318 17.0088C104.775 17.0088 106.682 18.9836 106.682 21.4681C106.682 23.9525 104.743 25.9273 102.318 25.9273Z" fill="#303030"/>
<path d="M85.346 28.8258C89.2577 28.8258 92.2318 25.6406 92.2318 21.4362C92.2318 17.2636 89.2253 13.9829 85.346 13.9829C83.277 13.9829 81.402 14.811 80.0765 16.3399L79.6563 16.7858V7.48509C79.6563 7.45324 79.6239 7.42139 79.5916 7.42139H75.9062C75.8739 7.42139 75.8416 7.45324 75.8416 7.48509V28.4436C75.8416 28.4755 75.8739 28.5073 75.9062 28.5073H79.3653C79.3976 28.5073 79.43 28.4755 79.43 28.4436V25.8318L79.8502 26.3095C81.1757 27.934 83.1153 28.8258 85.346 28.8258ZM84.5378 17.1681C86.9947 17.1681 88.8051 18.9518 88.8051 21.4044C88.8051 23.8251 86.9624 25.6406 84.5378 25.6406C82.1132 25.6406 80.2058 23.7932 80.2058 21.4362C80.2058 19.0155 82.0809 17.1681 84.5378 17.1681Z" fill="#303030"/>
<path d="M72.8673 28.5074C72.8997 28.5074 72.932 28.4755 72.932 28.4437V21.0222C72.8027 17.6459 71.8652 14.5244 66.1431 14.5244C64.947 14.5244 63.8802 14.6837 62.975 15.034L62.6517 15.1615V14.5881C62.6517 14.5563 62.6194 14.5563 62.587 14.5563H59.3866C59.3542 14.5563 59.3542 14.5881 59.3542 14.5881V28.4437C59.3542 28.4755 59.3866 28.5074 59.4189 28.5074H63.1043C63.1366 28.5074 63.1689 28.4755 63.1689 28.4437V20.64C63.1689 20.194 63.2336 19.78 63.3306 19.3977C63.7508 18.3148 64.8823 17.5503 66.1431 17.5185C67.3716 17.5185 68.5354 18.2829 68.9557 19.3659C69.085 19.7481 69.1173 20.1622 69.1173 20.6081V28.4118C69.1173 28.4437 69.1496 28.4755 69.182 28.4755H72.8673V28.5074Z" fill="#303030"/>
<path d="M42.8669 14.5881V22.0415C42.9963 25.4177 43.9338 28.5392 49.6558 28.5392C55.4749 28.5392 56.3154 24.717 56.4447 21.8822V14.5881C56.4447 14.5563 56.4124 14.5244 56.38 14.5244H52.6946C52.6623 14.5244 52.63 14.5563 52.63 14.5881V22.3918C52.63 22.8377 52.5653 23.2518 52.4684 23.634C52.0481 24.717 50.9166 25.4815 49.6558 25.5133C48.4274 25.5133 47.2635 24.7489 46.8433 23.6659C46.714 23.2837 46.6816 22.8696 46.6816 22.4237V14.5881C46.6816 14.5563 46.6493 14.5244 46.617 14.5244H42.9316C42.8669 14.5244 42.8669 14.5563 42.8669 14.5881Z" fill="#303030"/>
<path d="M19.6555 4.55469C10.1511 4.55469 2.45703 12.1354 2.45703 21.4999C2.45703 30.8643 10.1511 38.4451 19.6555 38.4451C29.1599 38.4451 36.854 30.8643 36.854 21.4999C36.854 12.1354 29.1599 4.55469 19.6555 4.55469ZM19.0413 28.1569L17.7805 31.8199C17.7482 31.9473 17.6835 32.0428 17.6188 32.1384C17.4572 32.3932 17.2632 32.5843 17.0046 32.7117C16.7783 32.8391 16.5197 32.9028 16.2611 32.9028C16.0994 32.9028 15.9055 32.871 15.7438 32.8073C15.0326 32.5525 14.58 31.8517 14.677 31.151C11.1209 29.3673 8.69633 25.7043 8.69633 21.4999C8.69633 15.5117 13.6102 10.6384 19.7202 10.6384C20.4314 10.6384 21.1103 10.7021 21.7892 10.8295C22.1771 10.2243 22.953 9.93765 23.6642 10.1606C24.0521 10.288 24.3431 10.5428 24.537 10.8614C24.6987 11.148 24.7957 11.4665 24.7633 11.8169C24.7633 11.9443 24.731 12.0717 24.6987 12.1673L23.4379 15.8302L19.0413 28.1569ZM20.4314 32.3295L21.9508 27.8065C24.5694 26.8828 26.4444 24.4302 26.4444 21.4999C26.4444 20.1302 26.0241 18.8243 25.2806 17.7732L26.8 13.2502C29.1599 15.2251 30.6793 18.1873 30.6793 21.4999C30.647 27.2332 26.1534 31.9154 20.4314 32.3295Z" fill="#303030"/>
<path d="M12.8667 21.4999C12.8667 23.857 14.1275 25.9273 16.0025 27.1377L20.2698 14.8429C20.0758 14.811 19.8495 14.811 19.6556 14.811C15.9055 14.811 12.8667 17.8051 12.8667 21.4999Z" fill="#303030"/>
</svg>
